<svg width="10" height="10" viewBox="0 0 10 10" fill="none" xmlns="http://www.w3.org/2000/svg">
<path fill-rule="evenodd" clip-rule="evenodd" d="M4.82412 5.24785L7.00739 7.43117C7.15811 7.58188 7.4025 7.58188 7.55321 7.43117C7.70393 7.28041 7.70393 7.03606 7.55321 6.88531L5.36994 4.70203L7.55321 2.51874C7.70393 2.36801 7.70393 2.12364 7.55321 1.97291C7.4025 1.82219 7.15811 1.82219 7.00739 1.97291L4.82412 4.15621L2.6408 1.97291C2.49008 1.82218 2.2457 1.82218 2.09498 1.97291C1.94425 2.12363 1.94425 2.36801 2.09498 2.51873L4.27826 4.70203L2.09498 6.88535C1.94425 7.03606 1.94425 7.28041 2.09498 7.43117C2.2457 7.58188 2.49008 7.58188 2.6408 7.43117L4.82412 5.24785Z" fill="#BEBEBE"/>
</svg>
