<svg width="17" height="17" viewBox="0 0 17 17" fill="none" xmlns="http://www.w3.org/2000/svg">
<path d="M16.5 9.22777H11.2142L15.7921 11.8713L15.065 13.1307L10.4871 10.4871L13.1307 15.065L11.8713 15.7921L9.22777 11.2142V16.5H7.7736V11.2142L5.13003 15.7921L3.87066 15.065L6.51423 10.4871L1.93634 13.1307L1.20925 11.8713L5.78715 9.22777H0.5V7.7736H5.78578L1.20788 5.13003L1.93497 3.87066L6.51286 6.51423L3.87066 1.93497L5.13003 1.20788L7.7736 5.78578V0.5H9.22777V5.78578L11.87 1.20788L13.1293 1.93497L10.4858 6.51286L15.0637 3.86929L15.7907 5.12865L11.2129 7.77223H16.4986V9.2264L16.5 9.22777Z" fill="#F05A22"/>
</svg>
