<svg width="11" height="11" viewBox="0 0 11 11" fill="none" xmlns="http://www.w3.org/2000/svg">
<ellipse cx="5.71461" cy="5.49977" rx="4.75368" ry="4.75368" fill="#223038"/>
<path d="M8.52259 4.96085C6.99029 4.05086 4.46279 3.96719 3.00002 4.41115C2.76511 4.48244 2.5167 4.34978 2.44555 4.11495C2.37435 3.87989 2.50681 3.63166 2.7419 3.56025C4.42106 3.05056 7.21241 3.14899 8.97642 4.19612C9.1877 4.32157 9.25701 4.59444 9.13179 4.80537C9.00645 5.01664 8.73336 5.08628 8.52259 4.96085ZM8.47241 6.30867C8.3649 6.48311 8.13682 6.53783 7.96261 6.43071C6.68513 5.64546 4.73716 5.41798 3.22581 5.87675C3.02982 5.93598 2.82281 5.82546 2.76327 5.62985C2.70422 5.43385 2.81478 5.22722 3.01042 5.16762C4.73692 4.64371 6.88323 4.89748 8.35048 5.79914C8.52469 5.90644 8.57953 6.13463 8.47241 6.30867ZM7.89075 7.60307C7.80532 7.74317 7.62293 7.78705 7.48335 7.70166C6.36706 7.01942 4.96203 6.86536 3.30734 7.24329C3.14789 7.27985 2.98897 7.17993 2.95261 7.02049C2.91609 6.8611 3.01563 6.70216 3.17543 6.66577C4.9862 6.25182 6.53948 6.42998 7.79243 7.19561C7.93213 7.28093 7.97612 7.46343 7.89075 7.60307ZM5.71067 0.746664C3.08534 0.746664 0.957031 2.87493 0.957031 5.50022C0.957031 8.12582 3.08534 10.2539 5.71067 10.2539C8.33606 10.2539 10.4643 8.12582 10.4643 5.50022C10.4643 2.87493 8.33606 0.746664 5.71067 0.746664Z" fill="#1ED760"/>
</svg>
