<svg width="12" height="12" viewBox="0 0 12 12" fill="none" xmlns="http://www.w3.org/2000/svg">
<g id="Group">
<path id="Vector" d="M11.5199 3.62278L11.0276 3.1926C10.7889 2.9837 10.4394 2.99252 10.2488 3.2093C10.0594 3.42384 10.0957 3.76099 10.3255 3.96963L8.72272 4.05363L7.65939 2.50175C7.75515 2.39662 7.80716 2.25286 7.78473 2.09327C7.74253 1.79296 7.46248 1.56211 7.15964 1.57799L3.25409 1.78267C2.8993 1.80126 2.57755 1.96573 2.37057 2.23379L0.873423 4.18074C0.511416 4.6513 0.569106 5.33443 1.0112 5.80597L6.20624 11.3474C6.49667 11.6574 6.89793 11.8227 7.30684 11.8012C7.71576 11.7798 8.06503 11.5752 8.26472 11.2395L11.8376 5.23858C12.1416 4.72794 12.0078 4.04807 11.5199 3.62278ZM4.97458 5.34689L7.80334 5.19864L7.04156 9.91889L4.97458 5.34689ZM3.27429 2.93836C3.30483 2.89876 3.35298 2.87431 3.40638 2.87151L4.30833 2.82424L3.74999 4.31497L2.1509 4.39877L3.27429 2.93836Z" fill="url(#paint0_linear_3881_66813)"/>
<path id="Vector_2" d="M10.7607 1.01939L10.0365 0.82716L9.70884 0.152331C9.60303 -0.0657273 9.23215 -0.0462905 9.18874 0.179589L9.05412 0.878646L8.39422 1.14341C8.2875 1.18627 8.226 1.29399 8.24252 1.4115C8.25903 1.52901 8.34969 1.62876 8.46681 1.65989L9.19093 1.85212L9.51864 2.52695C9.57154 2.63597 9.68665 2.70521 9.80442 2.69904C9.92219 2.69286 10.0169 2.6119 10.038 2.49973L10.1726 1.80067L10.8325 1.5359C10.9392 1.49304 11.0007 1.38533 10.9842 1.26781C10.9677 1.1503 10.8771 1.05056 10.7599 1.01943L10.7607 1.01939Z" fill="url(#paint1_linear_3881_66813)"/>
<path id="Vector_3" d="M0.630209 2.28807C0.933212 2.27219 1.14461 2.01574 1.10238 1.71527C1.06016 1.41481 0.780292 1.1841 0.477289 1.19998C0.174286 1.21586 -0.0371137 1.47231 0.00511403 1.77278C0.0473417 2.07324 0.327206 2.30395 0.630209 2.28807Z" fill="url(#paint2_linear_3881_66813)"/>
</g>
<defs>
<linearGradient id="paint0_linear_3881_66813" x1="5.87949" y1="1.64508" x2="6.4142" y2="11.848" gradientUnits="userSpaceOnUse">
<stop stop-color="#3CBAF8"/>
<stop offset="1" stop-color="#3CBAF8"/>
</linearGradient>
<linearGradient id="paint1_linear_3881_66813" x1="9.42503" y1="-0.000497501" x2="9.56715" y2="2.71147" gradientUnits="userSpaceOnUse">
<stop stop-color="#3CBAF8"/>
<stop offset="1" stop-color="#3CBAF8"/>
</linearGradient>
<linearGradient id="paint2_linear_3881_66813" x1="0.477289" y1="1.19998" x2="0.534576" y2="2.29308" gradientUnits="userSpaceOnUse">
<stop stop-color="#3CBAF8"/>
<stop offset="1" stop-color="#3CBAF8"/>
</linearGradient>
</defs>
</svg>
