<svg width="18" height="18" viewBox="0 0 18 18" fill="none" xmlns="http://www.w3.org/2000/svg">
<g id="Group">
<path id="Vector" d="M10.9777 2.24679H4.96262C4.39365 2.24679 3.86808 2.49632 3.48288 2.90715C2.63757 3.80877 1.80175 4.7217 0.941233 5.60882C0.881139 5.67076 0.763898 5.79162 0.674483 5.91037C0.155327 6.59989 0.14394 7.55652 0.674595 8.261C1.42074 9.25155 2.16743 10.2417 2.91414 11.2318C4.40897 13.214 5.90382 15.1962 7.39418 17.1816C7.41661 17.2115 7.45846 17.2672 7.50571 17.3217C8.32165 18.2613 9.82117 18.2253 10.584 17.2128L17.327 8.261C17.6134 7.88081 17.7418 7.42678 17.7179 6.98112H13.3003L10.9777 2.24679Z" fill="url(#paint0_linear_3881_66277)" fill-opacity="0.4"/>
<path id="Vector_2" d="M0.4469 7.8743C0.206984 7.33173 0.228845 6.71009 0.500806 6.18657H17.5011C17.7727 6.70964 17.7945 7.33167 17.5546 7.8743H0.4469Z" fill="url(#paint1_linear_3881_66277)"/>
<path id="Vector_3" d="M7.1365 16.8414L4.25258 7.27332C4.18901 7.0624 4.21043 6.83496 4.31229 6.63962L6.33764 2.75558C6.3456 2.73731 6.35425 2.71918 6.36362 2.70123L6.60087 2.24679H8.50635L5.96767 7.11528C6.97439 10.4553 7.98694 13.7941 8.99127 17.1346L12.0292 7.11454L9.49159 2.24679H11.3964L11.6337 2.70149C11.6417 2.71683 11.6491 2.7323 11.6561 2.74789L13.6849 6.63974C13.787 6.83548 13.8083 7.06341 13.7441 7.27466L10.8318 16.8807L10.5818 17.2128C9.81897 18.2253 8.31945 18.2613 7.50352 17.3217C7.45626 17.2672 7.41443 17.2115 7.39198 17.1816C7.30684 17.0682 7.22168 16.9548 7.1365 16.8414Z" fill="url(#paint2_linear_3881_66277)"/>
<path id="Vector_4" d="M16.587 1.67816L15.5226 1.32374L15.167 0.258222C15.0523 -0.0860741 14.4818 -0.0860741 14.3671 0.258222L14.0115 1.32374L12.9471 1.67816C12.775 1.73554 12.6579 1.89644 12.6579 2.07871C12.6579 2.26099 12.775 2.42188 12.9471 2.47927L14.0115 2.83369L14.3671 3.89921C14.4244 4.07135 14.5853 4.18725 14.7665 4.18725C14.9476 4.18725 15.1097 4.07023 15.1659 3.89921L15.5215 2.83369L16.5859 2.47927C16.758 2.42188 16.875 2.26099 16.875 2.07871C16.875 1.89644 16.7591 1.73554 16.587 1.67816Z" fill="url(#paint3_linear_3881_66277)"/>
<path id="Vector_5" d="M0.843863 2.81112C1.30968 2.81112 1.68773 2.43329 1.68773 1.96726C1.68773 1.50122 1.30968 1.12339 0.843863 1.12339C0.378051 1.12339 0 1.50122 0 1.96726C0 2.43329 0.378051 2.81112 0.843863 2.81112Z" fill="url(#paint4_linear_3881_66277)"/>
</g>
<defs>
<linearGradient id="paint0_linear_3881_66277" x1="9.00077" y1="2.24679" x2="9.00077" y2="18.0003" gradientUnits="userSpaceOnUse">
<stop stop-color="#008CD4"/>
<stop offset="1" stop-color="#47C2FF"/>
</linearGradient>
<linearGradient id="paint1_linear_3881_66277" x1="9.00077" y1="6.18657" x2="9.00077" y2="7.8743" gradientUnits="userSpaceOnUse">
<stop stop-color="#008CD4"/>
<stop offset="1" stop-color="#47C2FF"/>
</linearGradient>
<linearGradient id="paint2_linear_3881_66277" x1="8.99859" y1="2.24679" x2="8.99858" y2="18.0003" gradientUnits="userSpaceOnUse">
<stop stop-color="#008CD4"/>
<stop offset="1" stop-color="#47C2FF"/>
</linearGradient>
<linearGradient id="paint3_linear_3881_66277" x1="14.7665" y1="5.72765e-08" x2="14.7665" y2="4.18725" gradientUnits="userSpaceOnUse">
<stop stop-color="#008CD4"/>
<stop offset="1" stop-color="#47C2FF"/>
</linearGradient>
<linearGradient id="paint4_linear_3881_66277" x1="0.843863" y1="1.12339" x2="0.843863" y2="2.81112" gradientUnits="userSpaceOnUse">
<stop stop-color="#008CD4"/>
<stop offset="1" stop-color="#47C2FF"/>
</linearGradient>
</defs>
</svg>
