<svg width="36" height="36" viewBox="0 0 36 36" fill="none" xmlns="http://www.w3.org/2000/svg">
<g id="Group">
<path id="Vector" opacity="0.3" d="M17.9999 35.9999C8.075 35.9999 0 27.9249 0 17.9999C0 8.075 8.075 0 17.9999 0C27.9249 0 35.9999 8.075 35.9999 17.9999C35.9999 27.9249 27.9249 35.9999 17.9999 35.9999Z" fill="#FF4C4C"/>
<path id="Vector_2" d="M23.0672 25.6605C22.507 25.6605 21.9598 25.3826 21.6389 24.875C20.8436 23.6171 19.4834 22.8656 18.0025 22.8656C16.5215 22.8656 15.1614 23.6171 14.366 24.875C13.8695 25.6616 12.8257 25.8979 12.0391 25.399C11.2503 24.9013 11.0152 23.8587 11.514 23.071C12.9313 20.8286 15.357 19.4906 18.0025 19.4906C20.648 19.4906 23.0738 20.8286 24.491 23.071C24.9898 23.8587 24.7547 24.9013 23.9659 25.399C23.6869 25.5759 23.3748 25.6605 23.0672 25.6605Z" fill="#FF4C4C"/>
<path id="Vector_3" d="M11.2478 17.2234C12.4898 17.2234 13.4978 16.2161 13.4978 14.9734C13.4978 13.7308 12.4898 12.7234 11.2478 12.7234C10.0058 12.7234 8.99778 13.7308 8.99778 14.9734C8.99778 16.2161 10.0058 17.2234 11.2478 17.2234Z" fill="#FF4C4C"/>
<path id="Vector_4" d="M24.7504 17.2234C25.9924 17.2234 27.0004 16.2161 27.0004 14.9734C27.0004 13.7308 25.9924 12.7234 24.7504 12.7234C23.5084 12.7234 22.5004 13.7308 22.5004 14.9734C22.5004 16.2161 23.5084 17.2234 24.7504 17.2234Z" fill="#FF4C4C"/>
</g>
</svg>
