<svg width="16" height="16" viewBox="0 0 16 16" fill="none" xmlns="http://www.w3.org/2000/svg">
<g id="Group">
<path id="Vector" d="M15.2773 5.111L14.6913 4.487C14.4073 4.184 13.9313 4.171 13.6313 4.454C13.3333 4.734 13.3183 5.198 13.5903 5.5H11.3993L10.2523 3.3C10.4023 3.163 10.5003 2.97 10.5003 2.75C10.5003 2.336 10.1643 2 9.75025 2H4.41125C3.92625 2 3.45825 2.202 3.12625 2.554L0.723255 5.111C0.142255 5.729 0.0902545 6.668 0.600254 7.345L6.59325 15.301C6.92825 15.746 7.44125 16.001 8.00025 16.001C8.55925 16.001 9.07225 15.746 9.40725 15.301L15.4003 7.345C15.9103 6.668 15.8583 5.728 15.2773 5.111ZM6.06625 7.001H9.93325L7.99925 13.406L6.06625 7.001ZM4.21825 3.583C4.26725 3.531 4.33725 3.501 4.41025 3.501H5.64325L4.60125 5.501H2.41525L4.21825 3.583Z" fill="white"/>
<path id="Vector_2" d="M14.742 1.4915L13.796 1.1765L13.48 0.2295C13.378 -0.0765 12.871 -0.0765 12.769 0.2295L12.453 1.1765L11.507 1.4915C11.354 1.5425 11.25 1.6855 11.25 1.8475C11.25 2.0095 11.354 2.1525 11.507 2.2035L12.453 2.5185L12.769 3.4655C12.82 3.6185 12.963 3.7215 13.124 3.7215C13.285 3.7215 13.429 3.6175 13.479 3.4655L13.795 2.5185L14.741 2.2035C14.894 2.1525 14.998 2.0095 14.998 1.8475C14.998 1.6855 14.894 1.5425 14.741 1.4915H14.742Z" fill="white"/>
<path id="Vector_3" d="M0.75 2.5C1.16421 2.5 1.5 2.16421 1.5 1.75C1.5 1.33579 1.16421 1 0.75 1C0.335786 1 0 1.33579 0 1.75C0 2.16421 0.335786 2.5 0.75 2.5Z" fill="white"/>
</g>
</svg>
