<svg width="13" height="11" viewBox="0 0 13 11" fill="none" xmlns="http://www.w3.org/2000/svg">
<g id="Group">
<path id="Vector" d="M7.92629 0C7.55958 0 7.21854 0.0990119 6.91417 0.258164C7.31535 0.804563 7.55958 1.47198 7.55958 2.20026C7.55958 2.92855 7.31535 3.59597 6.91417 4.14236C7.21854 4.30152 7.55958 4.40053 7.92629 4.40053C9.13937 4.40053 10.1266 3.41334 10.1266 2.20026C10.1266 0.987185 9.13937 0 7.92629 0Z" fill="url(#paint0_linear_3881_67285)"/>
<path id="Vector_2" d="M4.25905 4.40053C5.47422 4.40053 6.45931 3.41544 6.45931 2.20026C6.45931 0.985092 5.47422 0 4.25905 0C3.04387 0 2.05878 0.985092 2.05878 2.20026C2.05878 3.41544 3.04387 4.40053 4.25905 4.40053Z" fill="url(#paint1_linear_3881_67285)"/>
<path id="Vector_3" d="M5.35845 7.31206C5.35551 6.61605 5.62394 5.98457 6.0552 5.50051C5.4978 5.26362 4.89052 5.13307 4.25831 5.13307C2.52084 5.13307 0.954249 6.09752 0.169488 7.65017C-0.0373367 8.05869 -0.0556722 8.53981 0.118882 8.97106C0.299304 9.41625 0.662348 9.76243 1.11487 9.91938C2.12992 10.2714 3.18752 10.4504 4.25831 10.4504C5.0086 10.4504 5.75229 10.3572 6.47985 10.1834C5.85717 9.44559 5.35845 8.48847 5.35845 7.31206Z" fill="url(#paint2_linear_3881_67285)"/>
<path id="Vector_4" d="M9.19439 10.9526C9.31907 11.0179 9.46429 11.0179 9.58897 10.9526C10.2469 10.6064 12.3254 9.35303 12.3254 7.31412C12.3283 6.41861 11.611 5.68959 10.7214 5.68446C10.186 5.69106 9.68872 5.96316 9.39168 6.41128C9.09465 5.96316 8.59665 5.69179 8.06199 5.68446C7.17235 5.68959 6.45506 6.41935 6.458 7.31412C6.458 9.35303 8.53651 10.6064 9.19439 10.9526Z" fill="url(#paint3_linear_3881_67285)"/>
</g>
<defs>
<linearGradient id="paint0_linear_3881_67285" x1="8.52037" y1="0" x2="8.52037" y2="4.40053" gradientUnits="userSpaceOnUse">
<stop stop-color="#FC2E8E"/>
<stop offset="1" stop-color="#E75D9E"/>
</linearGradient>
<linearGradient id="paint1_linear_3881_67285" x1="4.25905" y1="0" x2="4.25905" y2="4.40053" gradientUnits="userSpaceOnUse">
<stop stop-color="#FC2E8E"/>
<stop offset="1" stop-color="#E75D9E"/>
</linearGradient>
<linearGradient id="paint2_linear_3881_67285" x1="3.23992" y1="5.13307" x2="3.23992" y2="10.4504" gradientUnits="userSpaceOnUse">
<stop stop-color="#FC2E8E"/>
<stop offset="1" stop-color="#E75D9E"/>
</linearGradient>
<linearGradient id="paint3_linear_3881_67285" x1="9.39168" y1="5.68446" x2="9.39168" y2="11.0016" gradientUnits="userSpaceOnUse">
<stop stop-color="#FC2E8E"/>
<stop offset="1" stop-color="#E75D9E"/>
</linearGradient>
</defs>
</svg>
