<svg width="177" height="187" viewBox="0 0 177 187" fill="none" xmlns="http://www.w3.org/2000/svg">
<g id="Frame 2085673179" style="mix-blend-mode:overlay">
<circle id="Ellipse 224" cx="47.84" cy="146.239" r="0.569689" transform="rotate(82.4467 47.84 146.239)" fill="white"/>
<circle id="Ellipse 4088" cx="70.8895" cy="108.191" r="0.569689" transform="rotate(82.4467 70.8895 108.191)" fill="white"/>
<circle id="Ellipse 4073" cx="90.8918" cy="103.206" r="0.569689" transform="rotate(82.4467 90.8918 103.206)" fill="white"/>
<circle id="Ellipse 230" cx="120.778" cy="31.3776" r="0.569689" transform="rotate(82.4467 120.778 31.3776)" fill="white"/>
<circle id="Ellipse 4065" cx="48.5705" cy="176.137" r="0.569689" transform="rotate(82.4467 48.5705 176.137)" fill="white"/>
<circle id="Ellipse 214" cx="47.1133" cy="101.608" r="0.569689" transform="rotate(82.4467 47.1133 101.608)" fill="white" fill-opacity="0.6"/>
<circle id="Ellipse 213" cx="15.9027" cy="127.928" r="0.569689" transform="rotate(82.4467 15.9027 127.928)" fill="white" fill-opacity="0.6"/>
<circle id="Ellipse 4077" cx="98.9904" cy="106.511" r="0.569689" transform="rotate(82.4467 98.9904 106.511)" fill="white" fill-opacity="0.3"/>
<circle id="Ellipse 264" cx="26.9899" cy="134.53" r="0.569689" transform="rotate(82.4467 26.9899 134.53)" fill="white" fill-opacity="0.15"/>
<circle id="Ellipse 4069" cx="96.162" cy="60.3653" r="0.569689" transform="rotate(82.4467 96.162 60.3653)" fill="white" fill-opacity="0.15"/>
<circle id="Ellipse 4070" cx="97.2832" cy="139.031" r="0.569689" transform="rotate(82.4467 97.2832 139.031)" fill="white" fill-opacity="0.15"/>
<circle id="Ellipse 4071" cx="98.7521" cy="46.8872" r="0.569689" transform="rotate(82.4467 98.7521 46.8872)" fill="white" fill-opacity="0.15"/>
<circle id="Ellipse 4072" cx="132.268" cy="56.1265" r="0.569689" transform="rotate(82.4467 132.268 56.1265)" fill="white" fill-opacity="0.15"/>
<circle id="Ellipse 262" cx="39.0225" cy="141.281" r="0.569689" transform="rotate(82.4467 39.0225 141.281)" fill="white" fill-opacity="0.15"/>
<circle id="Ellipse 225" cx="17.059" cy="74.6873" r="0.569689" transform="rotate(82.4467 17.059 74.6873)" fill="white" fill-opacity="0.3"/>
<circle id="Ellipse 263" cx="143.531" cy="50.2508" r="0.569689" transform="rotate(82.4467 143.531 50.2508)" fill="white" fill-opacity="0.15"/>
<circle id="Ellipse 259" cx="84.3872" cy="25.2558" r="0.569689" transform="rotate(82.4467 84.3872 25.2558)" fill="white" fill-opacity="0.15"/>
<circle id="Ellipse 247" cx="56.9895" cy="100.511" r="0.569689" transform="rotate(82.4467 56.9895 100.511)" fill="white" fill-opacity="0.3"/>
<circle id="Ellipse 258" cx="82.3166" cy="162.358" r="0.569689" transform="rotate(82.4467 82.3166 162.358)" fill="white" fill-opacity="0.15"/>
<circle id="Ellipse 228" cx="32.3108" cy="152.571" r="0.569689" transform="rotate(82.4467 32.3108 152.571)" fill="white" fill-opacity="0.6"/>
<circle id="Ellipse 4089" cx="68.3306" cy="130.139" r="0.569689" transform="rotate(82.4467 68.3306 130.139)" fill="white" fill-opacity="0.6"/>
<circle id="Ellipse 235" cx="37.6474" cy="155.693" r="0.569689" transform="rotate(82.4467 37.6474 155.693)" fill="white" fill-opacity="0.3"/>
<circle id="Ellipse 4065_2" cx="62.9823" cy="177.512" r="0.569689" transform="rotate(82.4467 62.9823 177.512)" fill="white" fill-opacity="0.15"/>
<circle id="Ellipse 4066" cx="61.9158" cy="161.232" r="0.569689" transform="rotate(82.4467 61.9158 161.232)" fill="white" fill-opacity="0.15"/>
<circle id="Ellipse 4081" cx="47.922" cy="134.081" r="0.569689" transform="rotate(82.4467 47.922 134.081)" fill="white" fill-opacity="0.15"/>
<circle id="Ellipse 4082" cx="50.8559" cy="139.714" r="0.569689" transform="rotate(82.4467 50.8559 139.714)" fill="white" fill-opacity="0.15"/>
<circle id="Ellipse 4078" cx="104.059" cy="129.555" r="0.749231" transform="rotate(82.4467 104.059 129.555)" fill="white" fill-opacity="0.15"/>
<circle id="Ellipse 4079" cx="70.7351" cy="76.9321" r="0.749231" transform="rotate(82.4467 70.7351 76.9321)" fill="white" fill-opacity="0.15"/>
<circle id="Ellipse 4080" cx="108.708" cy="49.0304" r="0.749231" transform="rotate(82.4467 108.708 49.0304)" fill="white" fill-opacity="0.15"/>
<circle id="Ellipse 232" cx="141.31" cy="80.284" r="0.749231" transform="rotate(82.4467 141.31 80.284)" fill="white" fill-opacity="0.6"/>
<circle id="Ellipse 4067" cx="92.6674" cy="64.2939" r="0.749231" transform="rotate(82.4467 92.6674 64.2939)" fill="white" fill-opacity="0.6"/>
<circle id="Ellipse 4068" cx="123.78" cy="107.295" r="0.749231" transform="rotate(82.4467 123.78 107.295)" fill="white" fill-opacity="0.6"/>
<circle id="Ellipse 248" cx="116.1" cy="81.6904" r="0.749231" transform="rotate(82.4467 116.1 81.6904)" fill="white" fill-opacity="0.6"/>
<circle id="Ellipse 4074" cx="97.4765" cy="112.913" r="0.749231" transform="rotate(82.4467 97.4765 112.913)" fill="white" fill-opacity="0.6"/>
<circle id="Ellipse 4075" cx="102.977" cy="92.4807" r="0.749231" transform="rotate(82.4467 102.977 92.4807)" fill="white" fill-opacity="0.6"/>
<circle id="Ellipse 4087" cx="78.7868" cy="142.78" r="0.749231" transform="rotate(82.4467 78.7868 142.78)" fill="white" fill-opacity="0.6"/>
<circle id="Ellipse 4076" cx="81.713" cy="149.366" r="0.749231" transform="rotate(82.4467 81.713 149.366)" fill="white" fill-opacity="0.6"/>
<circle id="Ellipse 231" cx="69.3834" cy="37.279" r="0.749231" transform="rotate(82.4467 69.3834 37.279)" fill="white" fill-opacity="0.6"/>
<circle id="Ellipse 219" cx="94.9489" cy="27.8678" r="0.749231" transform="rotate(82.4467 94.9489 27.8678)" fill="white" fill-opacity="0.3"/>
<circle id="Ellipse 215" cx="24.7454" cy="88.6248" r="0.749231" transform="rotate(82.4467 24.7454 88.6248)" fill="white" fill-opacity="0.15"/>
<circle id="Ellipse 237" cx="145.15" cy="72.1112" r="0.749231" transform="rotate(82.4467 145.15 72.1112)" fill="white" fill-opacity="0.3"/>
<circle id="Ellipse 241" cx="35.8717" cy="118.894" r="0.749231" transform="rotate(82.4467 35.8717 118.894)" fill="white" fill-opacity="0.3"/>
<circle id="Ellipse 216" cx="45.365" cy="29.5164" r="0.749231" transform="rotate(82.4467 45.365 29.5164)" fill="white" fill-opacity="0.3"/>
<circle id="Ellipse 250" cx="55.5224" cy="19.4137" r="0.749231" transform="rotate(82.4467 55.5224 19.4137)" fill="white" fill-opacity="0.15"/>
<circle id="Ellipse 257" cx="134.434" cy="24.2736" r="0.749231" transform="rotate(82.4467 134.434 24.2736)" fill="white" fill-opacity="0.15"/>
<circle id="Ellipse 236" cx="50.7055" cy="32.6418" r="0.749231" transform="rotate(82.4467 50.7055 32.6418)" fill="white" fill-opacity="0.3"/>
<circle id="Ellipse 245" cx="90.5382" cy="85.3745" r="0.749231" transform="rotate(82.4467 90.5382 85.3745)" fill="white" fill-opacity="0.3"/>
<circle id="Ellipse 4086" cx="120.124" cy="76.5648" r="0.749231" transform="rotate(82.4467 120.124 76.5648)" fill="white" fill-opacity="0.3"/>
<circle id="Ellipse 251" cx="32.3674" cy="55.3241" r="0.749231" transform="rotate(82.4467 32.3674 55.3241)" fill="white" fill-opacity="0.15"/>
<circle id="Ellipse 233" cx="19.6745" cy="104.072" r="0.749231" transform="rotate(82.4467 19.6745 104.072)" fill="white" fill-opacity="0.6"/>
<circle id="Ellipse 240" cx="140.618" cy="42.0647" r="0.749231" transform="rotate(82.4467 140.618 42.0647)" fill="white" fill-opacity="0.6"/>
<circle id="Ellipse 243" cx="54.2762" cy="77.2993" r="0.749231" transform="rotate(82.4467 54.2762 77.2993)" fill="white" fill-opacity="0.6"/>
<circle id="Ellipse 234" cx="33.7894" cy="175.338" r="0.749231" transform="rotate(82.4467 33.7894 175.338)" fill="white" fill-opacity="0.3"/>
<circle id="Ellipse 242" cx="24.0461" cy="58.6174" r="0.749231" transform="rotate(82.4467 24.0461 58.6174)" fill="white" fill-opacity="0.3"/>
<circle id="Ellipse 266" cx="77.396" cy="11.0377" r="0.749231" transform="rotate(82.4467 77.396 11.0377)" fill="white" fill-opacity="0.15"/>
<circle id="Ellipse 246" cx="136.95" cy="89.371" r="0.749231" transform="rotate(82.4467 136.95 89.371)" fill="white" fill-opacity="0.3"/>
<circle id="Ellipse 226" cx="108.732" cy="16.1906" r="0.749231" transform="rotate(82.4467 108.732 16.1906)" fill="white" fill-opacity="0.3"/>
<circle id="Ellipse 220" cx="68.899" cy="161.582" r="0.749231" transform="rotate(82.4467 68.899 161.582)" fill="white" fill-opacity="0.6"/>
<circle id="Ellipse 267" cx="76.4897" cy="24.844" r="0.749231" transform="rotate(82.4467 76.4897 24.844)" fill="white" fill-opacity="0.15"/>
<circle id="Ellipse 256" cx="159.327" cy="51.0736" r="0.749231" transform="rotate(82.4467 159.327 51.0736)" fill="white" fill-opacity="0.15"/>
<circle id="Ellipse 261" cx="169.86" cy="118.093" r="0.749231" transform="rotate(82.4467 169.86 118.093)" fill="white" fill-opacity="0.15"/>
<circle id="Ellipse 260" cx="9.04438" cy="85.7807" r="0.749231" transform="rotate(82.4467 9.04438 85.7807)" fill="white" fill-opacity="0.15"/>
<circle id="Ellipse 217" cx="63.0545" cy="117.171" r="0.749231" transform="rotate(82.4467 63.0545 117.171)" fill="white" fill-opacity="0.6"/>
<circle id="Ellipse 4083" cx="26.1089" cy="181.487" r="0.749231" transform="rotate(82.4467 26.1089 181.487)" fill="white" fill-opacity="0.15"/>
<circle id="Ellipse 4084" cx="5.22362" cy="61.1138" r="0.749231" transform="rotate(82.4467 5.22362 61.1138)" fill="white" fill-opacity="0.15"/>
<circle id="Ellipse 4085" cx="33.8519" cy="37.6111" r="0.749231" transform="rotate(82.4467 33.8519 37.6111)" fill="white" fill-opacity="0.15"/>
</g>
</svg>
