<svg width="12" height="12" viewBox="0 0 12 12" fill="none" xmlns="http://www.w3.org/2000/svg">
<g id="star_fill">
<path id="Vector" d="M4.78679 0.392833C4.83557 0.280387 4.91468 0.185062 5.01623 0.116369C5.11778 0.0476756 5.23823 0.00801428 5.36555 0.00134154C5.49288 -0.0053312 5.62263 0.0212178 5.74186 0.0783403C5.8611 0.135463 5.96565 0.221162 6.04508 0.326889L8.06282 3.01319L11.3203 3.52681C11.4485 3.5471 11.5718 3.59973 11.6781 3.67946C11.7844 3.75919 11.8699 3.86323 11.9261 3.98121C11.9823 4.0992 12.0072 4.22701 11.9983 4.35189C11.9895 4.47678 11.9472 4.59438 11.8756 4.69297L10.0564 7.19804L10.8312 10.3725C10.8617 10.4975 10.859 10.6255 10.8231 10.7435C10.7873 10.8615 10.7197 10.9656 10.6271 11.0452C10.5345 11.1249 10.4201 11.1773 10.2953 11.1974C10.1705 11.2175 10.0397 11.2044 9.91602 11.1595L6.77368 10.0207L3.99506 11.4699C3.88567 11.5269 3.76044 11.5534 3.63189 11.5466C3.50334 11.5398 3.37596 11.5 3.26246 11.4312C3.14897 11.3623 3.05334 11.2668 2.98511 11.1543C2.91689 11.0417 2.87846 10.9159 2.87367 10.7896L2.75134 7.58089L0.259827 5.30231C0.161678 5.21262 0.0870441 5.1011 0.0433779 4.97889C-0.000288267 4.85668 -0.0114596 4.72805 0.0109795 4.60585C0.0334185 4.48365 0.0886827 4.37215 0.171255 4.28249C0.253827 4.19282 0.360818 4.12812 0.481547 4.09485L3.54811 3.2498L4.78679 0.392833Z" fill="#8F8F8F"/>
</g>
</svg>
