<svg width="1447" height="854" viewBox="0 0 1447 854" fill="none" xmlns="http://www.w3.org/2000/svg">
<g id="Group 5" style="mix-blend-mode:screen" opacity="0.15">
<g id="Vector 34" filter="url(#filter0_f_3881_67481)">
<path d="M663.708 431.566C541.745 544.561 227.958 589.876 134.467 532.73C105.462 313.751 170.079 224.766 432.558 128.071C647.735 133.916 1090.32 168.815 1139.26 261.654C1188.2 354.493 1095.42 359.845 1042.92 350.916C967.332 330.718 785.671 318.572 663.708 431.566Z" fill="#3CBAF8"/>
</g>
<g id="Vector 35" style="mix-blend-mode:soft-light" filter="url(#filter1_f_3881_67481)">
<path d="M829.558 599.57C707.595 712.564 393.809 757.88 300.317 700.734C271.313 481.755 335.929 392.77 598.408 296.075C813.585 301.92 1256.17 336.819 1305.11 429.658C1354.05 522.497 1261.27 527.849 1208.77 518.919C1133.18 498.722 951.521 486.576 829.558 599.57Z" fill="#3CB6F8" style="mix-blend-mode:overlay"/>
</g>
</g>
<defs>
<filter id="filter0_f_3881_67481" x="0" y="0" width="1281.15" height="685.519" filterUnits="userSpaceOnUse" color-interpolation-filters="sRGB">
<feFlood flood-opacity="0" result="BackgroundImageFix"/>
<feBlend mode="normal" in="SourceGraphic" in2="BackgroundImageFix" result="shape"/>
<feGaussianBlur stdDeviation="64" result="effect1_foregroundBlur_3881_67481"/>
</filter>
<filter id="filter1_f_3881_67481" x="165.85" y="168.004" width="1281.15" height="685.519" filterUnits="userSpaceOnUse" color-interpolation-filters="sRGB">
<feFlood flood-opacity="0" result="BackgroundImageFix"/>
<feBlend mode="normal" in="SourceGraphic" in2="BackgroundImageFix" result="shape"/>
<feGaussianBlur stdDeviation="64" result="effect1_foregroundBlur_3881_67481"/>
</filter>
</defs>
</svg>
