<svg width="40" height="30" viewBox="0 0 40 30" fill="none" xmlns="http://www.w3.org/2000/svg">
<g id="Vector" filter="url(#filter0_i_3881_67478)">
<path d="M11.0742 0.500021C11.3362 0.30303 11.6343 0.159702 11.9515 0.0782193C12.2688 -0.00326301 12.5989 -0.0213039 12.9231 0.0251273C13.2473 0.0715585 13.5592 0.181552 13.8409 0.348828C14.1227 0.516105 14.3689 0.737388 14.5654 1.00004C14.7619 1.2627 14.9048 1.56158 14.9861 1.87963C15.0674 2.19767 15.0854 2.52865 15.0391 2.85367C14.9927 3.17869 14.883 3.49138 14.7162 3.77389C14.5493 4.0564 14.3286 4.3032 14.0666 4.50019C10.1665 7.43281 7.93211 10.2854 6.65284 12.7755C8.40933 12.3222 10.2631 12.4288 11.9564 13.0804C13.6497 13.7321 15.0984 14.8964 16.1012 16.4116C17.104 17.9268 17.6111 19.7175 17.552 21.535C17.4928 23.3524 16.8704 25.1062 15.7712 26.5527C14.672 27.9991 13.1506 29.0663 11.4186 29.6059C9.6865 30.1455 7.82978 30.1307 6.1065 29.5635C4.38321 28.9964 2.87896 27.9051 1.80284 26.4413C0.726717 24.9776 0.132179 23.214 0.101864 21.3959C-0.217674 18.3256 0.217249 15.2235 1.36867 12.3605C2.85741 8.59536 5.76757 4.49019 11.0742 0.500021ZM33.5176 0.500021C33.7796 0.30303 34.0777 0.159702 34.3949 0.0782193C34.7121 -0.00326301 35.0423 -0.0213039 35.3665 0.0251273C35.6906 0.0715585 36.0025 0.181552 36.2843 0.348828C36.5661 0.516105 36.8123 0.737388 37.0088 1.00004C37.2052 1.2627 37.3482 1.56158 37.4295 1.87963C37.5108 2.19767 37.5288 2.52865 37.4824 2.85367C37.4361 3.17869 37.3264 3.49138 37.1596 3.77389C36.9927 4.0564 36.772 4.3032 36.51 4.50019C32.6099 7.43281 30.3755 10.2854 29.0962 12.7755C30.8527 12.3222 32.7064 12.4288 34.3997 13.0804C36.093 13.7321 37.5418 14.8964 38.5446 16.4116C39.5474 17.9268 40.0545 19.7175 39.9954 21.535C39.9362 23.3524 39.3138 25.1062 38.2146 26.5527C37.1154 27.9991 35.594 29.0663 33.8619 29.6059C32.1299 30.1455 30.2732 30.1307 28.5499 29.5635C26.8266 28.9964 25.3223 27.9051 24.2462 26.4413C23.1701 24.9776 22.5756 23.214 22.5452 21.3959C22.2257 18.3256 22.6606 15.2235 23.8121 12.3605C25.3033 8.59536 28.211 4.49019 33.5176 0.500021Z" fill="#3CBAF8"/>
</g>
<defs>
<filter id="filter0_i_3881_67478" x="0" y="-1" width="40" height="31" filterUnits="userSpaceOnUse" color-interpolation-filters="sRGB">
<feFlood flood-opacity="0" result="BackgroundImageFix"/>
<feBlend mode="normal" in="SourceGraphic" in2="BackgroundImageFix" result="shape"/>
<feColorMatrix in="SourceAlpha" type="matrix" values="0 0 0 0 0 0 0 0 0 0 0 0 0 0 0 0 0 0 127 0" result="hardAlpha"/>
<feOffset dy="-1"/>
<feGaussianBlur stdDeviation="0.5"/>
<feComposite in2="hardAlpha" operator="arithmetic" k2="-1" k3="1"/>
<feColorMatrix type="matrix" values="0 0 0 0 1 0 0 0 0 1 0 0 0 0 1 0 0 0 0.08 0"/>
<feBlend mode="color-dodge" in2="shape" result="effect1_innerShadow_3881_67478"/>
</filter>
</defs>
</svg>
