<svg width="18" height="18" viewBox="0 0 18 18" fill="none" xmlns="http://www.w3.org/2000/svg">
<g id="Group">
<path id="Vector" d="M14.0633 12.3375C14.9953 12.3375 15.7508 11.5819 15.7508 10.65C15.7508 9.71796 14.9953 8.96243 14.0633 8.96243C13.1313 8.96243 12.3757 9.71796 12.3757 10.65C12.3757 11.5819 13.1313 12.3375 14.0633 12.3375Z" fill="url(#paint0_linear_3881_66289)"/>
<path id="Vector_2" opacity="0.4" d="M9.00001 14.6232C9.50132 13.7133 10.3887 13.0502 11.2692 12.5407C10.9025 12.0006 10.6876 11.3497 10.6876 10.6493C10.6876 8.78812 12.2015 7.27417 14.0626 7.27417C15.0799 7.27417 15.9824 7.73589 16.6017 8.44972L17.7453 7.33515C17.9749 7.11104 18.0584 6.77534 17.9585 6.47001C17.8596 6.16457 17.5959 5.94215 17.2773 5.89591L12.0807 5.14056L9.75706 0.431754C9.47142 -0.143918 8.52875 -0.143918 8.2431 0.431754L5.91947 5.14056L0.722847 5.89591C0.404239 5.94204 0.140544 6.16457 0.041654 6.47001C-0.0583665 6.77546 0.0252399 7.11104 0.254858 7.33515L4.01557 11.0008L3.12682 16.1766C3.07293 16.493 3.20263 16.8133 3.46195 17.0023C3.72127 17.1902 4.06622 17.2155 4.35073 17.0665L9.00001 14.6232Z" fill="url(#paint1_linear_3881_66289)"/>
<path id="Vector_3" d="M16.4254 17.9634H11.698C11.2404 17.9634 10.8086 17.7399 10.5422 17.3652C10.2808 16.9967 10.2126 16.5242 10.3599 16.1018C10.9092 14.5242 12.3967 13.4634 14.0618 13.4634C15.7268 13.4634 17.2143 14.5242 17.7642 16.1024C17.9109 16.5243 17.8428 16.9967 17.5813 17.3653C17.3149 17.74 16.883 17.9634 16.4254 17.9634Z" fill="url(#paint2_linear_3881_66289)"/>
</g>
<defs>
<linearGradient id="paint0_linear_3881_66289" x1="14.0633" y1="8.96243" x2="14.0633" y2="12.3375" gradientUnits="userSpaceOnUse">
<stop stop-color="#008CD4"/>
<stop offset="1" stop-color="#47C2FF"/>
</linearGradient>
<linearGradient id="paint1_linear_3881_66289" x1="9.00005" y1="2.34769e-07" x2="9.00005" y2="17.163" gradientUnits="userSpaceOnUse">
<stop stop-color="#008CD4"/>
<stop offset="1" stop-color="#47C2FF"/>
</linearGradient>
<linearGradient id="paint2_linear_3881_66289" x1="14.0618" y1="13.4634" x2="14.0618" y2="17.9634" gradientUnits="userSpaceOnUse">
<stop stop-color="#008CD4"/>
<stop offset="1" stop-color="#47C2FF"/>
</linearGradient>
</defs>
</svg>
