<svg width="38" height="41" viewBox="0 0 38 41" fill="none" xmlns="http://www.w3.org/2000/svg">
<g id="Group">
<path id="Vector" d="M31.384 12.2858C31.384 10.6364 32.7209 9.29927 34.3705 9.29929C36.0199 9.29929 37.357 10.6364 37.357 12.2858L37.4692 25.8698C37.4692 26.9447 37.0992 27.9892 36.4201 28.8229L30.4438 36.8998V39.8301C30.4438 40.4766 29.9194 41.001 29.2729 41.001H22.7177C22.0711 41.001 21.5468 40.4766 21.5468 39.8301V28.0032C21.5468 26.9377 21.9097 25.905 22.5772 25.0736L26.2571 20.2091C26.9039 19.354 28.0743 19.092 29.0239 19.5897C29.9026 20.0502 30.3695 21.045 30.1012 22C29.6483 23.6109 29.0031 25.4413 28.1258 27.3145C28.298 27.1503 28.4792 26.9866 28.6642 26.8197C30.0728 25.5483 31.7158 24.0655 31.4962 20.3703L31.384 12.2858Z" fill="url(#paint0_linear_3881_67411)" fill-opacity="0.4"/>
<path id="Vector_2" d="M6.08527 12.2701C6.08527 10.6207 4.74816 9.28361 3.09873 9.28361C1.44932 9.28361 0.11222 10.6207 0.11222 12.2701L0 25.8542C0 26.929 0.370006 27.9735 1.04913 28.8072L7.02544 36.8841V39.8144C7.02544 40.461 7.54967 40.9853 8.19634 40.9853H14.7515C15.3982 40.9853 15.9224 40.461 15.9224 39.8144V27.9875C15.9224 26.922 15.5594 25.8893 14.892 25.0579L11.2121 20.1934C10.5652 19.3383 9.39488 19.0763 8.44521 19.5741C7.56656 20.0346 7.09972 21.0294 7.36814 21.9844C7.82093 23.5952 8.46619 25.4256 9.34329 27.2988C9.17126 27.1347 8.98994 26.971 8.80505 26.804C7.39645 25.5326 5.75339 24.0498 5.97305 20.3547L6.08527 12.2701Z" fill="url(#paint1_linear_3881_67411)" fill-opacity="0.4"/>
<g id="Vector_3">
<path d="M18.1072 16.8212C18.5053 17.0297 18.969 17.0297 19.3671 16.8212C21.4677 15.7159 28.1044 11.7137 28.1044 5.20351C28.1138 2.3465 25.8235 0.0163927 22.9828 0C21.2733 0.0210763 19.6856 0.889888 18.7371 2.32074C17.7887 0.889888 16.1986 0.0234181 14.4914 0C11.6508 0.0163927 9.36052 2.3465 9.36989 5.20351C9.36989 11.7137 16.0066 15.7159 18.1072 16.8212Z" fill="black"/>
<path d="M18.1072 16.8212C18.5053 17.0297 18.969 17.0297 19.3671 16.8212C21.4677 15.7159 28.1044 11.7137 28.1044 5.20351C28.1138 2.3465 25.8235 0.0163927 22.9828 0C21.2733 0.0210763 19.6856 0.889888 18.7371 2.32074C17.7887 0.889888 16.1986 0.0234181 14.4914 0C11.6508 0.0163927 9.36052 2.3465 9.36989 5.20351C9.36989 11.7137 16.0066 15.7159 18.1072 16.8212Z" fill="url(#paint2_linear_3881_67411)"/>
</g>
</g>
<defs>
<linearGradient id="paint0_linear_3881_67411" x1="29.508" y1="9.29929" x2="29.508" y2="41.001" gradientUnits="userSpaceOnUse">
<stop stop-color="#008CD4"/>
<stop offset="1" stop-color="#47C2FF"/>
</linearGradient>
<linearGradient id="paint1_linear_3881_67411" x1="7.96119" y1="9.28361" x2="7.96119" y2="40.9853" gradientUnits="userSpaceOnUse">
<stop stop-color="#008CD4"/>
<stop offset="1" stop-color="#47C2FF"/>
</linearGradient>
<linearGradient id="paint2_linear_3881_67411" x1="18.7371" y1="2.32232e-07" x2="18.7371" y2="16.9776" gradientUnits="userSpaceOnUse">
<stop stop-color="#008CD4"/>
<stop offset="1" stop-color="#47C2FF"/>
</linearGradient>
</defs>
</svg>
