<svg width="36" height="34" viewBox="0 0 36 34" fill="none" xmlns="http://www.w3.org/2000/svg">
<g id="Group">
<path id="Vector" d="M24.2579 7.80898C23.5985 7.1496 22.5295 7.1496 21.8702 7.80898L19.6872 9.99189V1.68782C19.6872 0.756143 18.9311 0 17.9994 0C17.0677 0 16.3116 0.756143 16.3116 1.68782V9.98964L14.1286 7.80673C13.4693 7.14735 12.4003 7.14735 11.7409 7.80673C11.0816 8.4661 11.0816 9.53505 11.7409 10.1944L16.8044 15.2579C17.133 15.5864 17.565 15.753 17.9971 15.753C18.4292 15.753 18.8613 15.5887 19.1899 15.2579L24.2534 10.1944C24.9127 9.53505 24.9127 8.4661 24.2534 7.80673L24.2579 7.80898Z" fill="#FF4C4C"/>
<path id="Vector_2" opacity="0.4" d="M18.0259 33.7546C17.6591 33.7546 17.2923 33.7389 16.9232 33.7074C14.2632 33.4733 11.8102 32.4111 9.84787 30.6761C7.61995 32.6519 4.7394 33.7569 1.71483 33.7569C0.731393 33.7321 -0.00224078 33.0075 5.14269e-06 32.0646C5.14269e-06 31.1329 0.758399 30.3813 1.68782 30.3813H1.71483C4.36358 30.3813 6.85255 29.2155 8.54937 27.1812C8.87118 26.7986 9.34602 26.5758 9.84337 26.5735C10.343 26.5735 10.8178 26.7941 11.1374 27.1767C12.6744 29.0107 14.8326 30.136 17.2135 30.3453C19.599 30.5433 21.9192 29.8254 23.7532 28.2884C24.1561 27.9508 24.5296 27.5795 24.8627 27.1767C25.1845 26.7941 25.6594 26.5713 26.1567 26.5713H26.1612C26.663 26.5713 27.1379 26.7963 27.4552 27.1812C29.1408 29.2133 31.6185 30.3768 34.2582 30.3768H34.3122C35.2394 30.3768 35.9956 31.1261 36.0001 32.0556C36.0046 32.9873 35.2529 33.7479 34.3212 33.7524C31.2629 33.7929 28.3801 32.6632 26.1477 30.6738C26.0712 30.7413 25.9947 30.8066 25.9159 30.8719C23.6767 32.7487 20.9042 33.7524 18.0169 33.7524L18.0259 33.7546Z" fill="#FF4C4C"/>
<path id="Vector_3" opacity="0.4" d="M18.0237 23.8435C17.6591 23.8435 17.2923 23.8278 16.9232 23.7963C14.2632 23.5622 11.8102 22.5 9.84787 20.765C7.61995 22.7408 4.74165 23.8435 1.71933 23.8435H1.68332C0.751647 23.8435 -0.00224092 23.0829 5.00515e-06 22.1512C5.00515e-06 21.2196 0.758398 20.4679 1.68782 20.4679C1.69683 20.4657 1.70808 20.4679 1.71933 20.4679C4.36583 20.4679 6.85255 19.3022 8.54937 17.2679C8.87118 16.8853 9.34602 16.6625 9.84337 16.6602C10.343 16.6602 10.8178 16.8808 11.1374 17.2634C12.6744 19.0974 14.8326 20.2227 17.2135 20.4319C19.599 20.6322 21.9192 19.9099 23.7532 18.3728C24.1561 18.0375 24.5274 17.6639 24.8627 17.2634C25.1845 16.8808 25.6594 16.658 26.1567 16.658H26.1612C26.663 16.658 27.1379 16.883 27.4552 17.2679C29.1408 19.3 31.6185 20.4634 34.2582 20.4634C34.2762 20.4634 34.2965 20.4589 34.3122 20.4634C35.2394 20.4634 35.9956 21.2128 36.0001 22.1422C36.0046 23.0739 35.2529 23.8345 34.3212 23.839C31.2629 23.8976 28.3824 22.7521 26.1477 20.7605C26.0712 20.828 25.9947 20.8955 25.9137 20.9585C23.6767 22.8354 20.9042 23.839 18.0147 23.839L18.0237 23.8435Z" fill="#FF4C4C"/>
</g>
</svg>
