<svg width="10" height="10" viewBox="0 0 10 10" fill="none" xmlns="http://www.w3.org/2000/svg">
<g id="g12">
<path id="path14" d="M7.9572 4.43294C6.34558 3.47585 3.68724 3.38784 2.14875 3.85478C1.90168 3.92977 1.64041 3.79024 1.56557 3.54325C1.49068 3.29602 1.63001 3.03494 1.87726 2.95983C3.64334 2.42376 6.5792 2.52729 8.43453 3.62863C8.65674 3.76057 8.72964 4.04756 8.59793 4.26941C8.46611 4.49161 8.17888 4.56486 7.9572 4.43294ZM7.90443 5.85053C7.79135 6.034 7.55146 6.09156 7.36823 5.97889C6.02462 5.15299 3.97582 4.91373 2.38623 5.39625C2.18009 5.45854 1.96236 5.34231 1.89974 5.13657C1.83764 4.93043 1.95392 4.7131 2.15969 4.65041C3.97556 4.09938 6.23298 4.36629 7.77618 5.31462C7.95941 5.42748 8.01709 5.66748 7.90443 5.85053ZM7.29265 7.21194C7.2028 7.35929 7.01097 7.40544 6.86416 7.31563C5.69009 6.59808 4.21232 6.43604 2.47198 6.83353C2.30427 6.87199 2.13713 6.7669 2.09888 6.5992C2.06047 6.43156 2.16517 6.26439 2.33324 6.22612C4.23774 5.79074 5.87143 5.97812 7.18924 6.78339C7.33617 6.87313 7.38244 7.06507 7.29265 7.21194ZM4.99972 0.00059982C2.23849 0.00059982 0 2.23904 0 5.00023C0 7.76175 2.23849 10 4.99972 10C7.76102 10 9.9994 7.76175 9.9994 5.00023C9.9994 2.23904 7.76102 0.00059982 4.99972 0.00059982Z" fill="#1ED760"/>
</g>
</svg>
