<svg width="487" height="495" viewBox="0 0 487 495" fill="none" xmlns="http://www.w3.org/2000/svg">
<g id="Group">
<path id="Vector" d="M472.367 157.987L454.248 138.693C445.467 129.324 430.749 128.922 421.473 137.672C412.259 146.33 411.795 160.677 420.205 170.014H352.461L316.996 101.991C321.634 97.7552 324.664 91.7877 324.664 84.9854C324.664 72.1847 314.275 61.7957 301.474 61.7957H136.395C121.399 61.7957 106.928 68.0415 96.6629 78.9252L22.3632 157.987C4.39888 177.095 2.79107 206.128 18.5601 227.061L203.861 473.057C214.219 486.816 230.081 494.701 247.365 494.701C264.649 494.701 280.511 486.816 290.869 473.057L476.17 227.061C491.939 206.128 490.331 177.064 472.367 157.987ZM187.566 216.425H307.132L247.334 414.464L187.566 216.425ZM130.427 110.741C131.942 109.134 134.107 108.206 136.364 108.206H174.487L142.269 170.045H74.6791L130.427 110.741Z" fill="#DFDFDF"/>
<path id="Vector_2" d="M455.879 46.1165L426.629 36.3769L416.858 7.09604C413.705 -2.36535 398.028 -2.36535 394.875 7.09604L385.104 36.3769L355.854 46.1165C351.123 47.6934 347.908 52.115 347.908 57.1239C347.908 62.1329 351.123 66.5544 355.854 68.1313L385.104 77.871L394.875 107.152C396.452 111.882 400.873 115.067 405.851 115.067C410.829 115.067 415.282 111.852 416.828 107.152L426.598 77.871L455.848 68.1313C460.579 66.5544 463.794 62.1329 463.794 57.1239C463.794 52.115 460.579 47.6934 455.848 46.1165H455.879Z" fill="#DFDFDF"/>
<path id="Vector_3" d="M23.1897 77.285C35.997 77.285 46.3794 66.9027 46.3794 54.0954C46.3794 41.2881 35.997 30.9057 23.1897 30.9057C10.3824 30.9057 0 41.2881 0 54.0954C0 66.9027 10.3824 77.285 23.1897 77.285Z" fill="#DFDFDF"/>
</g>
</svg>
