<svg width="12" height="11" viewBox="0 0 12 11" fill="none" xmlns="http://www.w3.org/2000/svg">
<g id="Group">
<path id="Vector" d="M8.41494 5.92068L10.3884 3.99706C10.5241 3.86474 10.5733 3.66592 10.5141 3.48573C10.4556 3.30554 10.3 3.17388 10.1118 3.14662L7.38497 2.75033L6.1655 0.279471C5.99661 -0.0609697 5.43941 -0.0609697 5.27052 0.279471L4.05105 2.75033L1.3242 3.14662C1.13603 3.17388 0.979769 3.30554 0.92192 3.48573C0.862742 3.66592 0.911946 3.86474 1.04759 3.99706L3.02108 5.92068L2.55497 8.63622C2.52306 8.82307 2.59952 9.01257 2.75378 9.12428C2.90605 9.23532 3.11085 9.24995 3.27841 9.16218L5.71801 7.87954L8.15761 9.16218C8.23009 9.20074 8.30988 9.21936 8.38967 9.21936C8.49273 9.21936 8.59646 9.18745 8.68224 9.12428C8.83584 9.01257 8.91297 8.82307 8.88105 8.63622L8.41494 5.92068Z" fill="url(#paint0_linear_3881_67239)"/>
<path id="Vector_2" d="M5.71705 9.29407C5.44178 9.29407 5.21836 9.51749 5.21836 9.79277V10.5009C5.21836 10.7762 5.44178 10.9996 5.71705 10.9996C5.99233 10.9996 6.21575 10.7762 6.21575 10.5009V9.79277C6.21575 9.51749 5.99233 9.29407 5.71705 9.29407Z" fill="url(#paint1_linear_3881_67239)"/>
<path id="Vector_3" d="M11.0906 6.16152L10.4171 5.94276C10.1558 5.85832 9.87451 6.00061 9.78939 6.26259C9.70428 6.52457 9.84724 6.80583 10.1092 6.89094L10.7828 7.1097C10.8333 7.12633 10.8852 7.13431 10.9364 7.13431C11.1465 7.13431 11.342 7.00066 11.4105 6.78988C11.4956 6.5279 11.3526 6.24663 11.0906 6.16152Z" fill="url(#paint2_linear_3881_67239)"/>
<path id="Vector_4" d="M8.52523 1.57048C8.67949 1.57048 8.83176 1.49933 8.92883 1.36502L9.34508 0.791853C9.50732 0.569104 9.45811 0.257255 9.2347 0.095014C9.01195 -0.0672273 8.7001 -0.0160283 8.53852 0.205391L8.12228 0.778555C7.96004 1.0013 8.00925 1.31315 8.23266 1.47539C8.32109 1.53989 8.42349 1.57048 8.52456 1.57048H8.52523Z" fill="url(#paint3_linear_3881_67239)"/>
<path id="Vector_5" d="M2.50408 1.36549C2.60116 1.49981 2.75342 1.57096 2.90768 1.57096C3.00875 1.57096 3.11182 1.54037 3.19959 1.47587C3.423 1.31363 3.4722 1.00245 3.30996 0.779032L2.89372 0.205868C2.73215 -0.016216 2.4203 -0.067415 2.19755 0.0954911C1.97413 0.257732 1.92493 0.568916 2.08717 0.792331L2.50341 1.36549H2.50408Z" fill="url(#paint4_linear_3881_67239)"/>
<path id="Vector_6" d="M1.01804 5.94295L0.344471 6.16171C0.0818264 6.24682 -0.0604671 6.52809 0.024643 6.79007C0.0931301 7.00085 0.287953 7.1345 0.498733 7.1345C0.549267 7.1345 0.601796 7.12652 0.65233 7.10989L1.3259 6.89113C1.58854 6.80602 1.73084 6.52476 1.64573 6.26278C1.56128 6.00147 1.28002 5.85784 1.01804 5.94295Z" fill="url(#paint5_linear_3881_67239)"/>
</g>
<defs>
<linearGradient id="paint0_linear_3881_67239" x1="5.71801" y1="0.0241405" x2="5.71801" y2="9.21936" gradientUnits="userSpaceOnUse">
<stop stop-color="#F16F0B"/>
<stop offset="1" stop-color="#F8973C"/>
</linearGradient>
<linearGradient id="paint1_linear_3881_67239" x1="5.71705" y1="9.29407" x2="5.71705" y2="10.9996" gradientUnits="userSpaceOnUse">
<stop stop-color="#F16F0B"/>
<stop offset="1" stop-color="#F8973C"/>
</linearGradient>
<linearGradient id="paint2_linear_3881_67239" x1="10.5999" y1="5.91843" x2="10.5999" y2="7.13431" gradientUnits="userSpaceOnUse">
<stop stop-color="#F16F0B"/>
<stop offset="1" stop-color="#F8973C"/>
</linearGradient>
<linearGradient id="paint3_linear_3881_67239" x1="8.73368" y1="0" x2="8.73368" y2="1.57048" gradientUnits="userSpaceOnUse">
<stop stop-color="#F16F0B"/>
<stop offset="1" stop-color="#F8973C"/>
</linearGradient>
<linearGradient id="paint4_linear_3881_67239" x1="2.69857" y1="0" x2="2.69857" y2="1.57096" gradientUnits="userSpaceOnUse">
<stop stop-color="#F16F0B"/>
<stop offset="1" stop-color="#F8973C"/>
</linearGradient>
<linearGradient id="paint5_linear_3881_67239" x1="0.835184" y1="5.91843" x2="0.835184" y2="7.1345" gradientUnits="userSpaceOnUse">
<stop stop-color="#F16F0B"/>
<stop offset="1" stop-color="#F8973C"/>
</linearGradient>
</defs>
</svg>
