<svg width="1670" height="1089" viewBox="0 0 1670 1089" fill="none" xmlns="http://www.w3.org/2000/svg">
<g id="Group 3" opacity="0.8">
<g id="Vector 34" filter="url(#filter0_f_3881_66206)">
<path d="M751.711 580.905C641.985 456.096 334.616 378.984 235.819 426.254C184.611 641.023 239.769 736.101 490.875 859.059C705.423 875.228 1149.06 885.74 1207.2 798.429C1265.34 711.118 1173.64 696.319 1120.52 699.834C1043.3 712.195 861.437 705.715 751.711 580.905Z" fill="#3CBAF8"/>
</g>
<g id="Vector 35" style="mix-blend-mode:soft-light" filter="url(#filter1_f_3881_66206)">
<path d="M933.771 430.809C824.045 305.999 516.676 228.888 417.879 276.157C366.671 490.926 421.829 586.005 672.935 708.962C887.483 725.132 1331.12 735.643 1389.26 648.332C1447.4 561.022 1355.7 546.223 1302.58 549.737C1225.36 562.099 1043.5 555.619 933.771 430.809Z" fill="#3CB6F8" style="mix-blend-mode:overlay"/>
</g>
</g>
<defs>
<filter id="filter0_f_3881_66206" x="0.000198383" y="193.783" width="1444.26" height="894.661" filterUnits="userSpaceOnUse" color-interpolation-filters="sRGB">
<feFlood flood-opacity="0" result="BackgroundImageFix"/>
<feBlend mode="normal" in="SourceGraphic" in2="BackgroundImageFix" result="shape"/>
<feGaussianBlur stdDeviation="109.2" result="effect1_foregroundBlur_3881_66206"/>
</filter>
<filter id="filter1_f_3881_66206" x="138.376" y="0.00296049" width="1531.62" height="982.029" filterUnits="userSpaceOnUse" color-interpolation-filters="sRGB">
<feFlood flood-opacity="0" result="BackgroundImageFix"/>
<feBlend mode="normal" in="SourceGraphic" in2="BackgroundImageFix" result="shape"/>
<feGaussianBlur stdDeviation="131.04" result="effect1_foregroundBlur_3881_66206"/>
</filter>
</defs>
</svg>
