<svg width="13" height="14" viewBox="0 0 13 14" fill="none" xmlns="http://www.w3.org/2000/svg">
<g id="Group">
<g id="Vector">
<path d="M10.715 4.19589C10.715 3.63275 11.1714 3.17624 11.7346 3.17625C12.2977 3.17625 12.7542 3.63276 12.7542 4.19589L12.7925 8.83367C12.7925 9.20066 12.6662 9.55725 12.4343 9.84188L10.3939 12.5995V13.5999C10.3939 13.8207 10.2149 13.9997 9.99418 13.9997H7.75614C7.53539 13.9997 7.35637 13.8207 7.35637 13.5999V9.56204C7.35637 9.19826 7.4803 8.84567 7.70817 8.56183L8.96455 6.90101C9.18538 6.60906 9.58498 6.51962 9.90919 6.68955C10.2092 6.84678 10.3686 7.18641 10.277 7.51246C10.1223 8.06245 9.90207 8.68736 9.60257 9.3269C9.66133 9.27086 9.72322 9.21497 9.78638 9.15796C10.2673 8.7239 10.8282 8.21764 10.7533 6.95607L10.715 4.19589Z" fill="#B7B7B7" fill-opacity="0.4" style="mix-blend-mode:plus-lighter"/>
</g>
<g id="Vector_2">
<path d="M2.0776 4.18787C2.0776 3.62473 1.62109 3.16822 1.05795 3.16822C0.49482 3.16822 0.0383134 3.62473 0.0383134 4.18787L0 8.82564C0 9.19263 0.126325 9.54922 0.358189 9.83385L2.39859 12.5914V13.5919C2.39859 13.8126 2.57757 13.9916 2.79835 13.9916H5.03637C5.25716 13.9916 5.43613 13.8126 5.43613 13.5919V9.55401C5.43613 9.19023 5.31221 8.83764 5.08434 8.5538L3.82797 6.89297C3.60712 6.60103 3.20755 6.51159 2.88332 6.68153C2.58333 6.83875 2.42395 7.17839 2.51559 7.50444C2.67018 8.05442 2.89048 8.67933 3.18993 9.31887C3.1312 9.26283 3.06929 9.20694 3.00617 9.14993C2.52525 8.71587 1.96429 8.20961 2.03929 6.94805L2.0776 4.18787Z" fill="#B7B7B7" fill-opacity="0.4" style="mix-blend-mode:plus-lighter"/>
</g>
<g id="Vector_3">
<path d="M6.18339 5.74301C6.31931 5.81417 6.47762 5.81417 6.61354 5.74301C7.33072 5.36564 9.59658 3.99924 9.59658 1.77655C9.59978 0.801127 8.81784 0.0055967 7.84801 0C7.26436 0.00719576 6.72228 0.303821 6.39847 0.792333C6.07466 0.303821 5.53178 0.00799528 4.94892 0C3.97909 0.0055967 3.19716 0.801127 3.20035 1.77655C3.20035 3.99924 5.46622 5.36564 6.18339 5.74301Z" fill="#B7B7B7" fill-opacity="0.8" style="mix-blend-mode:plus-lighter"/>
</g>
</g>
</svg>
