<svg width="19" height="19" viewBox="0 0 19 19" fill="none" xmlns="http://www.w3.org/2000/svg">
<g id="Group">
<path id="Vector" d="M11.3351 10.387C13.3683 9.85754 16.544 9.74764 17.6645 10.6042C18.4 11.1651 18.8349 12.2788 18.9607 14.1347C19.2799 18.8411 17.651 18.984 14.6655 18.984H11.3351C9.11072 18.984 7.65262 17.9738 5.95446 17.1043C5.16529 16.7002 4.73604 15.7783 5.03441 14.9434C5.33741 14.0956 6.27358 13.6575 7.11871 13.968L9.36731 14.7941L6.63096 8.83346C6.22547 7.95016 6.58556 6.90413 7.44885 6.4576C8.37389 5.97913 9.51106 6.37303 9.94193 7.32118L11.3351 10.387Z" fill="url(#paint0_linear_3881_66268)"/>
<path id="Vector_2" d="M13.0215 4.29821C13.0268 4.19337 13.0295 4.08744 13.0296 3.98046V3.97402V3.96127C13.0315 1.79091 11.2652 0.0135734 9.08789 0L9.08197 7.36442e-05L9.07201 0C8.12029 0.0124631 7.21728 0.362566 6.51482 0.969862C5.81235 0.362566 4.90935 0.0124631 3.95763 0L3.94767 7.36442e-05L3.94176 0C1.76441 0.0135734 -0.00191436 1.79091 1.55716e-06 3.96127L2.64767e-05 3.97518L3.10013e-05 3.98046C0.000109179 4.0867 0.00281593 4.19187 0.00803796 4.29599C0.216321 8.49109 4.42725 11.011 5.73984 11.696C5.86771 11.7623 6.00291 11.8062 6.14067 11.8345L5.0877 9.54082C4.30356 7.83271 4.99991 5.80989 6.66931 4.9464C8.45816 4.02112 10.6572 4.78285 11.4904 6.61639L11.9424 7.61083C12.5372 6.65963 12.9587 5.554 13.0215 4.29821Z" fill="url(#paint1_linear_3881_66268)" fill-opacity="0.4"/>
</g>
<defs>
<linearGradient id="paint0_linear_3881_66268" x1="11.9697" y1="6.25367" x2="11.9697" y2="18.984" gradientUnits="userSpaceOnUse">
<stop stop-color="#008CD4"/>
<stop offset="1" stop-color="#47C2FF"/>
</linearGradient>
<linearGradient id="paint1_linear_3881_66268" x1="6.51481" y1="1.61882e-07" x2="6.51481" y2="11.8345" gradientUnits="userSpaceOnUse">
<stop stop-color="#008CD4"/>
<stop offset="1" stop-color="#47C2FF"/>
</linearGradient>
</defs>
</svg>
