<svg width="36" height="35" viewBox="0 0 36 35" fill="none" xmlns="http://www.w3.org/2000/svg">
<g id="Group">
<path id="Vector" opacity="0.4" d="M35.7874 14.8168L33.0916 4.63111C32.3691 1.90135 29.8992 0 27.0753 0H15.2803C11.8425 0 9.0557 2.7868 9.0557 6.22458V19.2532C9.0557 20.746 9.5926 22.1889 10.5684 23.3189L19.8378 34.0514C20.4933 34.8103 21.6878 34.8592 22.348 34.1046C23.2935 33.0242 24.2337 31.2494 23.4449 28.8673L21.4381 22.6351H29.5149C31.2254 22.6351 32.9339 22.0565 34.1432 20.8467C35.7587 19.2303 36.3594 16.9718 35.7897 14.817L35.7874 14.8168Z" fill="#FF4C4C"/>
<path id="Vector_2" d="M6.22458 22.6348H3.9611C1.77683 22.6348 0 20.858 0 18.6737V3.9611C0 1.77683 1.77683 0 3.9611 0H6.22458C8.40884 0 10.1857 1.77683 10.1857 3.9611V18.6737C10.1857 20.858 8.40884 22.6348 6.22458 22.6348Z" fill="#FF4C4C"/>
</g>
</svg>
