<svg width="1672" height="1079" viewBox="0 0 1672 1079" fill="none" xmlns="http://www.w3.org/2000/svg">
<g id="Group 5" opacity="0.8">
<g id="Vector 34" filter="url(#filter0_f_3881_66209)">
<path d="M918.657 568.401C1034.59 449.288 1345.54 387.842 1441.84 440.07C1482.1 657.206 1422.18 749.386 1165.11 859.481C949.974 864.756 506.283 852.765 452.627 762.6C398.972 672.434 491.328 662.301 544.212 668.505C620.721 684.767 802.721 687.515 918.657 568.401Z" fill="#3CBAF8"/>
</g>
<g id="Vector 35" style="mix-blend-mode:soft-light" filter="url(#filter1_f_3881_66209)">
<path d="M744.396 409.235C860.332 290.121 1171.28 228.675 1267.58 280.903C1307.84 498.039 1247.92 590.219 990.851 700.315C775.713 705.59 332.022 693.598 278.366 603.433C224.71 513.268 317.066 503.134 369.951 509.338C446.459 525.601 628.46 528.348 744.396 409.235Z" fill="#3CB6F8" style="mix-blend-mode:overlay"/>
</g>
</g>
<defs>
<filter id="filter0_f_3881_66209" x="217.955" y="202.863" width="1453.8" height="876.134" filterUnits="userSpaceOnUse" color-interpolation-filters="sRGB">
<feFlood flood-opacity="0" result="BackgroundImageFix"/>
<feBlend mode="normal" in="SourceGraphic" in2="BackgroundImageFix" result="shape"/>
<feGaussianBlur stdDeviation="109.2" result="effect1_foregroundBlur_3881_66209"/>
</filter>
<filter id="filter1_f_3881_66209" x="3.05271e-05" y="0.00296113" width="1541.18" height="963.521" filterUnits="userSpaceOnUse" color-interpolation-filters="sRGB">
<feFlood flood-opacity="0" result="BackgroundImageFix"/>
<feBlend mode="normal" in="SourceGraphic" in2="BackgroundImageFix" result="shape"/>
<feGaussianBlur stdDeviation="131.04" result="effect1_foregroundBlur_3881_66209"/>
</filter>
</defs>
</svg>
