<svg width="12" height="12" viewBox="0 0 12 12" fill="none" xmlns="http://www.w3.org/2000/svg">
<g id="Group">
<path id="Vector" d="M11.454 3.83314L11.0146 3.36527C10.8017 3.13808 10.4448 3.12833 10.2199 3.34052C9.99641 3.55047 9.98516 3.89838 10.1891 4.12482H8.54629L7.68627 2.47525C7.79874 2.37253 7.87222 2.22782 7.87222 2.06286C7.87222 1.75244 7.62029 1.50051 7.30987 1.50051H3.30667C2.94302 1.50051 2.59211 1.65197 2.34317 1.9159L0.541397 3.83314C0.105762 4.29652 0.0667719 5.00059 0.449171 5.5082L4.94274 11.4736C5.19392 11.8073 5.57857 11.9985 5.99771 11.9985C6.41685 11.9985 6.8015 11.8073 7.05269 11.4736L11.5463 5.5082C11.9287 5.00059 11.8897 4.29577 11.454 3.83314ZM4.54759 5.25027H7.44708L5.99696 10.0528L4.54759 5.25027ZM3.16196 2.68744C3.1987 2.64845 3.25118 2.62596 3.30592 2.62596H4.23043L3.44913 4.12557H1.81006L3.16196 2.68744Z" fill="url(#paint0_linear_3881_67266)"/>
<path id="Vector_2" d="M11.0536 1.11833L10.3443 0.882143L10.1073 0.17208C10.0309 -0.0573599 9.65071 -0.0573599 9.57423 0.17208L9.3373 0.882143L8.62798 1.11833C8.51326 1.15657 8.43528 1.26379 8.43528 1.38526C8.43528 1.50673 8.51326 1.61395 8.62798 1.65219L9.3373 1.88838L9.57423 2.59844C9.61247 2.71316 9.71969 2.79039 9.84041 2.79039C9.96113 2.79039 10.0691 2.71241 10.1066 2.59844L10.3435 1.88838L11.0528 1.65219C11.1676 1.61395 11.2455 1.50673 11.2455 1.38526C11.2455 1.26379 11.1676 1.15657 11.0528 1.11833H11.0536Z" fill="url(#paint1_linear_3881_67266)"/>
<path id="Vector_3" d="M0.562352 1.87496C0.872931 1.87496 1.1247 1.62318 1.1247 1.31261C1.1247 1.00203 0.872931 0.750253 0.562352 0.750253C0.251774 0.750253 0 1.00203 0 1.31261C0 1.62318 0.251774 1.87496 0.562352 1.87496Z" fill="url(#paint2_linear_3881_67266)"/>
</g>
<defs>
<linearGradient id="paint0_linear_3881_67266" x1="5.99771" y1="1.50051" x2="5.99771" y2="11.9985" gradientUnits="userSpaceOnUse">
<stop stop-color="#3CBAF8"/>
<stop offset="1" stop-color="#3CBAF8"/>
</linearGradient>
<linearGradient id="paint1_linear_3881_67266" x1="9.84041" y1="0" x2="9.84041" y2="2.79039" gradientUnits="userSpaceOnUse">
<stop stop-color="#3CBAF8"/>
<stop offset="1" stop-color="#3CBAF8"/>
</linearGradient>
<linearGradient id="paint2_linear_3881_67266" x1="0.562352" y1="0.750253" x2="0.562352" y2="1.87496" gradientUnits="userSpaceOnUse">
<stop stop-color="#3CBAF8"/>
<stop offset="1" stop-color="#3CBAF8"/>
</linearGradient>
</defs>
</svg>
