<svg width="13" height="12" viewBox="0 0 13 12" fill="none" xmlns="http://www.w3.org/2000/svg">
<g id="Group">
<path id="Vector" d="M9.18004 6.46146L11.3334 4.3625C11.4814 4.21812 11.5351 4.00119 11.4705 3.80457C11.4067 3.60795 11.2369 3.4643 11.0316 3.43455L8.0562 3.00214L6.72558 0.306072C6.5413 -0.0653988 5.9333 -0.0653988 5.74902 0.306072L4.4184 3.00214L1.44301 3.43455C1.23768 3.4643 1.06718 3.60795 1.00406 3.80457C0.939489 4.00119 0.993178 4.21812 1.14119 4.3625L3.29455 6.46146L2.78596 9.42452C2.75113 9.62839 2.83457 9.83517 3.00289 9.95705C3.16904 10.0782 3.3925 10.0942 3.57533 9.99841L6.2373 8.59887L8.89926 9.99841C8.97835 10.0405 9.06541 10.0608 9.15247 10.0608C9.26493 10.0608 9.37811 10.026 9.47171 9.95705C9.6393 9.83517 9.72346 9.62839 9.68864 9.42452L9.18004 6.46146Z" fill="url(#paint0_linear_3881_67195)"/>
<path id="Vector_2" d="M6.23806 10.14C5.9377 10.14 5.69392 10.3837 5.69392 10.6841V11.4568C5.69392 11.7572 5.9377 12.0009 6.23806 12.0009C6.53843 12.0009 6.78221 11.7572 6.78221 11.4568V10.6841C6.78221 10.3837 6.53843 10.14 6.23806 10.14Z" fill="url(#paint1_linear_3881_67195)"/>
<path id="Vector_3" d="M12.1007 6.72044L11.3657 6.48175C11.0806 6.3896 10.7737 6.54487 10.6808 6.83073C10.588 7.11658 10.744 7.42348 11.0298 7.51635L11.7648 7.75505C11.8199 7.77319 11.8765 7.78189 11.9324 7.78189C12.1616 7.78189 12.375 7.63606 12.4497 7.40607C12.5426 7.12021 12.3866 6.81331 12.1007 6.72044Z" fill="url(#paint2_linear_3881_67195)"/>
<path id="Vector_4" d="M9.30263 1.71362C9.47095 1.71362 9.6371 1.63599 9.74303 1.48943L10.1972 0.864028C10.3742 0.620976 10.3205 0.280703 10.0768 0.103674C9.83372 -0.0733548 9.49344 -0.0174892 9.31714 0.224112L8.86296 0.849518C8.68593 1.09257 8.73962 1.43284 8.9834 1.60987C9.07989 1.68025 9.19162 1.71362 9.3019 1.71362H9.30263Z" fill="url(#paint3_linear_3881_67195)"/>
<path id="Vector_5" d="M2.73709 1.48995C2.84302 1.63651 3.00917 1.71414 3.17749 1.71414C3.28777 1.71414 3.40023 1.68077 3.496 1.61039C3.73978 1.43336 3.79346 1.09382 3.61644 0.850038L3.16225 0.224633C2.98595 -0.0176941 2.64568 -0.0735597 2.40263 0.104195C2.15885 0.281224 2.10516 0.620771 2.28219 0.864549L2.73637 1.48995H2.73709Z" fill="url(#paint4_linear_3881_67195)"/>
<path id="Vector_6" d="M1.11083 6.48195L0.375868 6.72065C0.0892847 6.81352 -0.0659785 7.12042 0.0268892 7.40628C0.101619 7.63627 0.314199 7.7821 0.544191 7.7821C0.599331 7.7821 0.656648 7.7734 0.711788 7.75526L1.44675 7.51656C1.73333 7.42369 1.8886 7.11679 1.79573 6.83093C1.70359 6.5458 1.39669 6.38909 1.11083 6.48195Z" fill="url(#paint5_linear_3881_67195)"/>
</g>
<defs>
<linearGradient id="paint0_linear_3881_67195" x1="6.2373" y1="0.0274689" x2="6.2373" y2="10.0608" gradientUnits="userSpaceOnUse">
<stop stop-color="#F16F0B"/>
<stop offset="1" stop-color="#F8973C"/>
</linearGradient>
<linearGradient id="paint1_linear_3881_67195" x1="6.23806" y1="10.14" x2="6.23806" y2="12.0009" gradientUnits="userSpaceOnUse">
<stop stop-color="#F16F0B"/>
<stop offset="1" stop-color="#F8973C"/>
</linearGradient>
<linearGradient id="paint2_linear_3881_67195" x1="11.5653" y1="6.4552" x2="11.5653" y2="7.78189" gradientUnits="userSpaceOnUse">
<stop stop-color="#F16F0B"/>
<stop offset="1" stop-color="#F8973C"/>
</linearGradient>
<linearGradient id="paint3_linear_3881_67195" x1="9.53008" y1="0" x2="9.53008" y2="1.71362" gradientUnits="userSpaceOnUse">
<stop stop-color="#F16F0B"/>
<stop offset="1" stop-color="#F8973C"/>
</linearGradient>
<linearGradient id="paint4_linear_3881_67195" x1="2.94931" y1="0" x2="2.94931" y2="1.71414" gradientUnits="userSpaceOnUse">
<stop stop-color="#F16F0B"/>
<stop offset="1" stop-color="#F8973C"/>
</linearGradient>
<linearGradient id="paint5_linear_3881_67195" x1="0.911309" y1="6.4552" x2="0.911309" y2="7.7821" gradientUnits="userSpaceOnUse">
<stop stop-color="#F16F0B"/>
<stop offset="1" stop-color="#F8973C"/>
</linearGradient>
</defs>
</svg>
