<svg width="12" height="12" viewBox="0 0 12 12" fill="none" xmlns="http://www.w3.org/2000/svg">
<g id="Group">
<path id="Vector" d="M11.5202 3.62345L11.0279 3.19322C10.7892 2.98429 10.4397 2.99311 10.249 3.20992C10.0596 3.42448 10.0959 3.76168 10.3257 3.97034L8.72277 4.05435L7.65931 2.50228C7.75508 2.39714 7.8071 2.25337 7.78467 2.09376C7.74246 1.79342 7.46238 1.56254 7.1595 1.57841L3.25349 1.78312C2.89866 1.80171 2.57687 1.9662 2.36987 2.2343L0.872541 4.18147C0.510492 4.65209 0.568188 5.33531 1.01033 5.8069L6.20599 11.349C6.49645 11.659 6.89776 11.8243 7.30673 11.8029C7.71569 11.7814 8.065 11.5768 8.26472 11.2411L11.838 5.23945C12.1421 4.72875 12.0082 4.04879 11.5202 3.62345ZM4.97418 5.34776L7.80328 5.1995L7.04141 9.92031L4.97418 5.34776ZM3.27369 2.93894C3.30424 2.89934 3.35239 2.87489 3.4058 2.87209L4.30786 2.82482L3.74945 4.31572L2.15017 4.39954L3.27369 2.93894Z" fill="url(#paint0_linear_3881_66444)"/>
<path id="Vector_2" d="M10.7619 1.02135L10.0377 0.829093L9.70993 0.154185C9.60411 -0.0638997 9.23319 -0.0444606 9.18977 0.181445L9.05514 0.880586L8.39516 1.14538C8.28842 1.18825 8.22692 1.29598 8.24344 1.4135C8.25995 1.53103 8.35062 1.63079 8.46775 1.66192L9.19196 1.85417L9.51971 2.52908C9.57262 2.63812 9.68774 2.70736 9.80552 2.70119C9.92331 2.69502 10.0181 2.61405 10.0391 2.50186L10.1738 1.80272L10.8337 1.53792C10.9405 1.49506 11.002 1.38733 10.9855 1.2698C10.969 1.15227 10.8783 1.05252 10.7612 1.02138L10.7619 1.02135Z" fill="url(#paint1_linear_3881_66444)"/>
<path id="Vector_3" d="M0.63054 2.28695C0.933578 2.27107 1.145 2.01459 1.10277 1.71409C1.06054 1.41359 0.78064 1.18286 0.477601 1.19874C0.174563 1.21462 -0.0368623 1.4711 0.00537038 1.7716C0.0476031 2.07211 0.327501 2.30284 0.63054 2.28695Z" fill="url(#paint2_linear_3881_66444)"/>
</g>
<defs>
<linearGradient id="paint0_linear_3881_66444" x1="5.8792" y1="1.64551" x2="6.41398" y2="11.8497" gradientUnits="userSpaceOnUse">
<stop stop-color="#3CBAF8"/>
<stop offset="1" stop-color="#3CBAF8"/>
</linearGradient>
<linearGradient id="paint1_linear_3881_66444" x1="9.42608" y1="0.00133783" x2="9.56823" y2="2.71363" gradientUnits="userSpaceOnUse">
<stop stop-color="#3CBAF8"/>
<stop offset="1" stop-color="#3CBAF8"/>
</linearGradient>
<linearGradient id="paint2_linear_3881_66444" x1="0.477601" y1="1.19874" x2="0.534895" y2="2.29197" gradientUnits="userSpaceOnUse">
<stop stop-color="#3CBAF8"/>
<stop offset="1" stop-color="#3CBAF8"/>
</linearGradient>
</defs>
</svg>
