<svg width="96" height="61" viewBox="0 0 96 61" fill="none" xmlns="http://www.w3.org/2000/svg">
<path d="M47.9998 0C27.0395 0 8.90654 12.4256 0.101074 30.5196C8.90654 48.6135 27.0395 61.0391 47.9998 61.0391C68.9602 61.0391 87.0931 48.6135 95.8986 30.5196C87.0931 12.4256 68.954 0 47.9998 0ZM74.8388 32.9649H57.1036L72.465 41.8438L70.0228 46.0749L54.6676 37.1959L63.5352 52.577L59.3096 55.0223L50.442 39.6474V57.4054H45.5639V39.6474L36.6963 55.0223L32.4706 52.577L41.3382 37.1959L25.9768 46.0749L23.5347 41.8438L38.8961 32.9649H21.1609V28.0805H38.8961L23.5347 19.2015L25.9768 14.9705L41.3382 23.8494L32.4706 8.47454L36.6963 6.02925L45.5639 21.4104V3.64617H50.442V21.4041L59.3096 6.02302L63.5352 8.46832L54.6676 23.8432L70.0228 14.9642L72.465 19.1953L57.1036 28.0743H74.8388V32.9586V32.9649Z" fill="#FF4C4C"/>
</svg>
