<svg width="14" height="14" viewBox="0 0 14 14" fill="none" xmlns="http://www.w3.org/2000/svg">
<g clip-path="url(#clip0_2098_7264)">
<path d="M11.2008 4.08174C11.2008 3.53392 11.6448 3.08984 12.1927 3.08984C12.7405 3.08984 13.1846 3.53393 13.1846 4.08174L13.2219 8.59336C13.2219 8.95036 13.099 9.29725 12.8734 9.57414L10.8885 12.2567V13.2299C10.8885 13.4447 10.7144 13.6188 10.4996 13.6188H8.32248C8.10774 13.6188 7.93359 13.4447 7.93359 13.2299V9.30192C7.93359 8.94803 8.05415 8.60503 8.27582 8.32892L9.49802 6.71327C9.71284 6.42926 10.1016 6.34226 10.417 6.50757C10.7088 6.66052 10.8639 6.99091 10.7747 7.30809C10.6243 7.84312 10.41 8.45103 10.1187 9.07317C10.1758 9.01865 10.236 8.96428 10.2975 8.90883C10.7653 8.48657 11.311 7.99408 11.2381 6.76683L11.2008 4.08174Z" fill="#B7B7B7" fill-opacity="0.4" style="mix-blend-mode:plus-lighter"/>
<path d="M2.79842 4.07394C2.79842 3.52612 2.35433 3.08203 1.80651 3.08203C1.2587 3.08203 0.814615 3.52612 0.814615 4.07394L0.777344 8.58555C0.777344 8.94255 0.900233 9.28944 1.12579 9.56633L3.11068 12.2489V13.2221C3.11068 13.4369 3.28479 13.611 3.49957 13.611H5.6767C5.89148 13.611 6.06559 13.4369 6.06559 13.2221V9.2941C6.06559 8.94021 5.94504 8.59721 5.72337 8.3211L4.50118 6.70546C4.28633 6.42146 3.89763 6.33445 3.58222 6.49977C3.2904 6.65271 3.13535 6.98311 3.2245 7.30029C3.37488 7.8353 3.58919 8.44321 3.8805 9.06536C3.82336 9.01084 3.76314 8.95647 3.70173 8.90101C3.2339 8.47876 2.6882 7.98627 2.76115 6.75903L2.79842 4.07394Z" fill="#B7B7B7" fill-opacity="0.4" style="mix-blend-mode:plus-lighter"/>
<path d="M6.79252 5.58678C6.92475 5.656 7.07875 5.656 7.21097 5.58678C7.90863 5.21967 10.1129 3.89044 10.1129 1.72822C10.116 0.779333 9.3553 0.00544445 8.41186 0C7.84408 0.007 7.31675 0.295556 7.00175 0.770778C6.68675 0.295556 6.15863 0.00777778 5.59163 0C4.64819 0.00544445 3.88752 0.779333 3.89063 1.72822C3.89063 3.89044 6.09486 5.21967 6.79252 5.58678Z" fill="#B7B7B7" fill-opacity="0.8" style="mix-blend-mode:plus-lighter"/>
</g>
<defs>
<clipPath id="clip0_2098_7264">
<rect width="14" height="14" fill="white"/>
</clipPath>
</defs>
</svg>
