<svg width="15" height="15" viewBox="0 0 15 15" fill="none" xmlns="http://www.w3.org/2000/svg">
<g id="close_line">
<path id="vector" fill-rule="evenodd" clip-rule="evenodd" d="M7.49973 8.38355L11.0351 11.919C11.2792 12.1631 11.6749 12.1631 11.919 11.919C12.163 11.6749 12.163 11.2792 11.919 11.0351L8.38358 7.4997L11.919 3.96427C12.163 3.7202 12.163 3.32448 11.919 3.08041C11.6749 2.83633 11.2792 2.83633 11.0351 3.08041L7.49973 6.61585L3.96425 3.0804C3.72018 2.83633 3.32446 2.83633 3.0804 3.0804C2.83633 3.32447 2.83633 3.72018 3.0804 3.96426L6.61581 7.4997L3.0804 11.0352C2.83633 11.2792 2.83633 11.6749 3.0804 11.919C3.32446 12.1631 3.72018 12.1631 3.96425 11.919L7.49973 8.38355Z" fill="#BEBEBE"/>
</g>
</svg>
