<svg width="20" height="20" viewBox="0 0 20 20" fill="none" xmlns="http://www.w3.org/2000/svg">
<g id="dots_line">
<path id="vector" d="M7.49947 3.7495C8.18981 3.7495 8.74944 4.30913 8.74944 4.99947C8.74944 5.68981 8.18981 6.24944 7.49947 6.24944C6.80913 6.24944 6.2495 5.68981 6.2495 4.99947C6.2495 4.30913 6.80913 3.7495 7.49947 3.7495ZM8.74944 9.99934C8.74944 9.30902 8.18981 8.74937 7.49947 8.74937C6.80913 8.74937 6.2495 9.30902 6.2495 9.99934C6.2495 10.6897 6.80913 11.2493 7.49947 11.2493C8.18981 11.2493 8.74944 10.6897 8.74944 9.99934ZM8.74944 14.9992C8.74944 14.3089 8.18981 13.7492 7.49947 13.7492C6.80913 13.7492 6.2495 14.3089 6.2495 14.9992C6.2495 15.6895 6.80913 16.2492 7.49947 16.2492C8.18981 16.2492 8.74944 15.6895 8.74944 14.9992ZM13.7493 9.99934C13.7493 9.30902 13.1897 8.74937 12.4993 8.74937C11.809 8.74937 11.2494 9.30902 11.2494 9.99934C11.2494 10.6897 11.809 11.2493 12.4993 11.2493C13.1897 11.2493 13.7493 10.6897 13.7493 9.99934ZM12.4993 13.7492C13.1897 13.7492 13.7493 14.3089 13.7493 14.9992C13.7493 15.6895 13.1897 16.2492 12.4993 16.2492C11.809 16.2492 11.2494 15.6895 11.2494 14.9992C11.2494 14.3089 11.809 13.7492 12.4993 13.7492ZM13.7493 4.99947C13.7493 4.30913 13.1897 3.7495 12.4993 3.7495C11.809 3.7495 11.2494 4.30913 11.2494 4.99947C11.2494 5.68981 11.809 6.24944 12.4993 6.24944C13.1897 6.24944 13.7493 5.68981 13.7493 4.99947Z" fill="#919191"/>
</g>
</svg>
