<svg width="121" height="52" viewBox="0 0 121 52" fill="none" xmlns="http://www.w3.org/2000/svg">
<path d="M63.9247 7.90862V10.1319H60.6104V17.1068H57.9139V10.1319H54.5996V7.90862H63.9224H63.9247Z" fill="#FFFFF5"/>
<path d="M67.6745 7.90862V11.2852H71.399V7.90862H74.0956V17.1068H71.399V13.5108H67.6745V17.1068H64.9641V7.90862H67.6745Z" fill="#FFFFF5"/>
<path d="M83.7899 7.90862V10.1042H78.4359V11.3684H83.133V13.4553H78.4359V14.9113H83.8706V17.1068H75.7371V7.90862H83.7876H83.7899Z" fill="#FFFFF5"/>
<path d="M57.9279 20.7492V24.1257H61.6524V20.7492H64.349V29.9474H61.6524V26.3513H57.9279V29.9474H55.2175V20.7492H57.9279Z" fill="#FFFFF5"/>
<path d="M72.4523 20.7492V22.9724H70.4818V27.7218H72.4523V29.9451H65.7847V27.7218H67.7691V22.9724H65.7847V20.7492H72.4523Z" fill="#FFFFF5"/>
<path d="M78.7379 20.7492C81.5589 20.7492 83.2829 21.8192 83.2829 24.7035V26.0763C83.2829 28.8496 81.6119 29.9474 78.7379 29.9474H73.9048V20.7492H78.7379ZM76.5875 27.7218H78.7379C80.0931 27.7218 80.5448 27.2133 80.5448 26.074V24.7012C80.5448 23.5063 80.1069 22.9724 78.7379 22.9724H76.5875V27.7218Z" fill="#FFFFF5"/>
<path d="M89.5516 20.7492C92.3726 20.7492 94.0966 21.8192 94.0966 24.7035V26.0763C94.0966 28.8496 92.4256 29.9474 89.5516 29.9474H84.7185V20.7492H89.5516ZM87.4036 27.7218H89.5539C90.9091 27.7218 91.3608 27.2133 91.3608 26.074V24.7012C91.3608 23.5063 90.9229 22.9724 89.5539 22.9724H87.4036V27.7218Z" fill="#FFFFF5"/>
<path d="M103.585 20.7492V22.9447H98.2313V24.2089H102.928V26.2958H98.2313V27.7518H103.666V29.9474H95.5325V20.7492H103.583H103.585Z" fill="#FFFFF5"/>
<path d="M108.513 20.7492L112.085 26.3236H112.401V20.7492H114.865V29.9474H111.442L107.856 24.373H107.554V29.9474H105.09V20.7492H108.513Z" fill="#FFFFF5"/>
<path d="M63.2957 33.5874V39.3259C63.2957 41.7433 61.8575 42.9219 59.2716 42.9219H58.9973C56.3814 42.9219 54.9456 41.741 54.9456 39.3259V38.5285H57.656V39.379C57.656 40.107 58.0662 40.5323 58.9973 40.5323H59.2301C60.1612 40.5323 60.5853 40.107 60.5853 39.379V35.8107H55.123V33.5874H63.2957Z" fill="#FFFFF5"/>
<path d="M71.1664 33.5874L74.4807 42.7856H71.8256L71.224 41.11H66.9257L66.3241 42.7856H63.8188L67.1193 33.5874H71.171H71.1664ZM67.7024 38.9422H70.4543L69.3457 35.8661H68.811L67.7024 38.9422Z" fill="#FFFFF5"/>
<path d="M79.8461 33.5874L81.5309 37.789H81.955L83.6789 33.5874H87.7722V42.7856H85.1033V36.4439H84.7345L83.0221 40.6732H80.0927L78.3803 36.4439H78.0254V42.7856H75.4924V33.5874H79.8461Z" fill="#FFFFF5"/>
<path d="M93.7971 33.451C96.3577 33.451 98.0679 34.4263 98.0679 36.3884V36.6912H95.4381V36.3884C95.4381 35.7714 94.8089 35.4964 93.7672 35.4964H93.5206C92.4535 35.4964 91.8634 35.7298 91.8634 36.1134V36.2244C91.8634 36.7328 92.2875 36.883 94.5462 37.2412C97.1068 37.6942 98.2015 38.4915 98.2015 40.0423V40.1787C98.2015 41.7849 96.7634 42.9243 93.8202 42.9243H93.5459C90.5751 42.9243 89.0701 41.771 89.0701 39.795V39.5477H91.6998V39.795C91.6998 40.6455 92.3843 40.8651 93.5759 40.8651H93.8225C94.9172 40.8651 95.5465 40.6594 95.5465 40.2203V40.1093C95.5465 39.6564 94.9449 39.4368 92.7116 39.0786C90.37 38.7227 89.2199 37.9392 89.2199 36.3884V36.1966C89.2199 34.4124 90.8493 33.451 93.5183 33.451H93.7925H93.7971Z" fill="#FFFFF5"/>
<path d="M27.9476 17.6777C23.3635 17.6777 19.6482 21.4032 19.6482 26C19.6482 30.5968 23.3635 34.3223 27.9476 34.3223C32.5318 34.3223 36.2471 30.5968 36.2471 26C36.2471 21.4032 32.5318 17.6777 27.9476 17.6777ZM27.9476 31.928C24.6818 31.928 22.0359 29.2748 22.0359 26C22.0359 22.7252 24.6818 20.072 27.9476 20.072C31.2135 20.072 33.8593 22.7252 33.8593 26C33.8593 29.2748 31.2135 31.928 27.9476 31.928ZM29.5033 26C29.5033 26.862 28.8073 27.56 27.9476 27.56C27.088 27.56 26.3919 26.862 26.3919 26C26.3919 25.138 27.088 24.44 27.9476 24.44C28.8073 24.44 29.5033 25.138 29.5033 26ZM27.9476 7.47414C17.7444 7.47414 9.47266 15.7687 9.47266 26C9.47266 36.2313 17.7444 44.5259 27.9476 44.5259C38.1508 44.5259 46.4226 36.2313 46.4226 26C46.4226 15.7687 38.1508 7.47414 27.9476 7.47414ZM39.0543 37.1349C36.088 40.1093 32.1446 41.7479 27.9499 41.7479C23.7553 41.7479 19.8118 40.1093 16.8456 37.1349C13.8356 34.1166 12.3052 30.1692 12.2545 26.2034C12.2545 26.0901 12.1623 25.9977 12.0494 25.9977H12.0402C11.9249 25.9977 11.8304 25.9029 11.8304 25.7874C11.8558 23.742 12.2614 21.7591 13.0082 19.9148C13.771 18.0313 14.8912 16.2933 16.3362 14.7888C16.4538 14.6663 16.4538 14.4722 16.3362 14.352L16.1887 14.2041C16.0666 14.0816 16.0666 13.8782 16.1887 13.758C17.7675 12.2327 19.5906 11.0494 21.5704 10.2428C23.4787 9.46631 25.5276 9.04107 27.6434 9.00409C27.814 9.00178 27.9499 8.86311 27.9499 8.6944V8.4864C27.9499 8.31307 28.0928 8.16978 28.2657 8.17209C30.4852 8.21138 32.6378 8.65742 34.6407 9.47325C36.7196 10.3191 38.6371 11.5648 40.2965 13.171C40.421 13.2912 40.421 13.4946 40.2965 13.6171L39.2709 14.6455C39.1511 14.7657 39.1511 14.9598 39.2709 15.0823C42.1012 18.0313 43.6569 21.8932 43.6569 25.9977C43.6569 30.1022 42.0228 34.1582 39.0566 37.1326L39.0543 37.1349ZM27.9476 4.12534C15.9006 4.12534 6.13306 13.9175 6.13306 26C6.13306 38.0825 15.8983 47.8747 27.9476 47.8747C39.9969 47.8747 49.7622 38.0825 49.7622 26C49.7622 13.9175 39.9969 4.12534 27.9476 4.12534ZM41.4512 39.5408C37.8443 43.1577 33.0481 45.1499 27.9476 45.1499C22.8472 45.1499 18.051 43.1577 14.444 39.5408C10.7725 35.8592 8.9126 31.0405 8.86189 26.2057C8.86189 26.0924 8.7697 26 8.65677 26C8.54153 26 8.44704 25.9052 8.44704 25.7897C8.47239 23.3561 8.94717 20.9271 9.87138 18.6391C10.7864 16.3719 12.1416 14.2434 13.937 12.3852C14.0545 12.2628 14.0568 12.0686 13.937 11.9484L13.7895 11.8005C13.6673 11.678 13.6673 11.477 13.7895 11.3545C15.6955 9.50098 17.8989 8.06578 20.2912 7.0928C22.5983 6.15449 25.0805 5.64374 27.6411 5.60676C27.8116 5.60445 27.9476 5.46809 27.9476 5.29707V5.08907C27.9476 4.91574 28.0905 4.77245 28.2634 4.77476C30.9277 4.81405 33.5136 5.34329 35.9175 6.3232C38.4112 7.33778 40.7091 8.83538 42.6958 10.7698C42.8203 10.89 42.8203 11.091 42.6958 11.2158L41.6679 12.2466C41.548 12.3668 41.548 12.5609 41.6679 12.6834C48.8979 20.1668 48.8242 32.1522 41.4512 39.5431V39.5408ZM27.9476 14.2757C21.4897 14.2757 16.2556 19.5243 16.2556 26C16.2556 32.4757 21.4897 37.7243 27.9476 37.7243C34.4056 37.7243 39.6397 32.4757 39.6397 26C39.6397 19.5243 34.4056 14.2757 27.9476 14.2757ZM34.2558 32.3255C32.571 34.0149 30.3308 34.9463 27.9476 34.9463C25.5645 34.9463 23.3243 34.0149 21.6395 32.3255C19.9524 30.6338 19.0835 28.4267 19.0328 26.2034C19.0305 26.0901 18.9406 26 18.8277 26C18.7148 26 18.6156 25.9052 18.618 25.7874C18.6433 24.6596 18.8692 23.5364 19.2979 22.4779C19.7173 21.4402 20.3281 20.4603 21.1348 19.6005C21.25 19.4757 21.2523 19.2839 21.1324 19.1637L20.9849 19.0158C20.8628 18.8933 20.8628 18.69 20.9872 18.5698C21.9138 17.6962 22.974 17.0167 24.1217 16.5499C25.2303 16.0992 26.4173 15.845 27.6434 15.8103C27.814 15.8057 27.9476 15.6693 27.9476 15.5006V15.2926C27.9476 15.1193 28.0905 14.976 28.2634 14.9806C29.5932 15.0176 30.8839 15.2926 32.0847 15.7826C33.3339 16.291 34.4885 17.0329 35.4957 17.9851C35.6225 18.1052 35.6225 18.3063 35.498 18.4311L34.4701 19.4619C34.3503 19.582 34.3503 19.7739 34.4655 19.8987C36.0166 21.5604 36.8671 23.7166 36.8671 26.0046C36.8671 28.2926 35.9382 30.6407 34.2535 32.3301L34.2558 32.3255ZM27.9476 10.8761C19.6182 10.8761 12.8653 17.6476 12.8653 26C12.8653 34.3524 19.6182 41.1239 27.9476 41.1239C36.277 41.1239 43.03 34.3524 43.03 26C43.03 17.6476 36.277 10.8761 27.9476 10.8761ZM36.655 34.7314C34.1036 37.2898 30.6304 38.5863 26.9888 38.3113C24.4098 38.1172 21.9437 37.0933 19.9755 35.4108C17.1429 32.9865 15.6978 29.6053 15.6425 26.2057C15.6425 26.0924 15.5503 26.0023 15.4374 26.0023C15.3221 26.0023 15.2276 25.9076 15.2276 25.792C15.253 24.2297 15.5618 22.672 16.1542 21.2021C16.7373 19.7531 17.5969 18.3918 18.7332 17.1993C18.8507 17.0768 18.8507 16.8827 18.7332 16.7625L18.5857 16.6146C18.4635 16.4921 18.4635 16.2887 18.588 16.1685C19.8395 14.9691 21.2823 14.0377 22.8449 13.4021C24.3522 12.7897 25.9724 12.45 27.6411 12.413C27.8116 12.4084 27.9476 12.272 27.9476 12.1033V11.8953C27.9476 11.722 28.0905 11.5787 28.2634 11.581C30.038 11.6203 31.7597 11.9808 33.3615 12.6325C35.0256 13.3097 36.5628 14.3035 37.895 15.5815C38.0194 15.7017 38.0194 15.9028 37.8973 16.0276L36.8694 17.0583C36.7495 17.1785 36.7495 17.3726 36.8671 17.4951C41.4535 22.3253 41.3821 29.9959 36.6527 34.736L36.655 34.7314Z" fill="#FFFFF5"/>
</svg>
