<svg width="100" height="100" viewBox="0 0 100 100" fill="none" xmlns="http://www.w3.org/2000/svg">
<path d="M63.8598 36.8131C63.6558 36.6011 63.6558 36.2651 63.8598 36.0571L65.6398 34.2771C65.8518 34.0651 65.8518 33.7131 65.6398 33.5051C62.7598 30.7251 59.4318 28.5731 55.8238 27.1051C52.3478 25.6931 48.6118 24.9211 44.7598 24.8531C44.4598 24.8491 44.2118 25.0931 44.2118 25.3971V25.7571C44.2118 26.0531 43.9758 26.2891 43.6798 26.2931C40.0118 26.3571 36.4518 27.0931 33.1398 28.4371C29.7078 29.8291 26.5398 31.8771 23.7998 34.5211C23.5838 34.7291 23.5838 35.0811 23.7998 35.2931L24.0558 35.5491C24.2638 35.7571 24.2638 36.0931 24.0558 36.3051C21.5478 38.9091 19.6038 41.9171 18.2798 45.1771C16.9838 48.3691 16.2838 51.8011 16.2358 55.3411C16.2358 55.5411 16.3958 55.7051 16.5998 55.7051H16.6158C16.8118 55.7051 16.9678 55.8611 16.9718 56.0611C17.0598 62.9211 19.7158 69.7571 24.9398 74.9811C30.0878 80.1291 36.9318 82.9651 44.2118 82.9651C51.4918 82.9651 58.3358 80.1291 63.4838 74.9811C68.6318 69.8331 71.4678 62.9891 71.4678 55.7091C71.4678 48.4291 68.7678 41.9171 63.8598 36.8171V36.8131ZM44.2158 81.8811C29.7598 81.8811 18.0398 70.1611 18.0398 55.7051C18.0398 41.2491 29.7598 29.5291 44.2158 29.5291C58.6718 29.5291 70.3918 41.2491 70.3918 55.7051C70.3918 70.1611 58.6718 81.8811 44.2158 81.8811Z" fill="#FFFFF5"/>
<path d="M59.696 40.9774C59.492 40.7654 59.492 40.4294 59.7 40.2214L61.484 38.4374C61.696 38.2254 61.696 37.8734 61.48 37.6654C59.168 35.4494 56.5 33.7334 53.612 32.5614C50.832 31.4334 47.844 30.8094 44.764 30.7414C44.464 30.7334 44.216 30.9814 44.216 31.2854V31.6454C44.216 31.9414 43.98 32.1774 43.684 32.1814C40.788 32.2454 37.976 32.8334 35.36 33.8934C32.648 34.9934 30.144 36.6054 27.972 38.6814C27.752 38.8894 27.752 39.2414 27.968 39.4534L28.224 39.7094C28.432 39.9174 28.432 40.2534 28.228 40.4654C26.26 42.5294 24.764 44.8894 23.752 47.3934C22.724 49.9374 22.188 52.6334 22.144 55.3374C22.144 55.5374 22.304 55.7014 22.508 55.7014C22.704 55.7014 22.86 55.8574 22.864 56.0534C22.96 61.9374 25.468 67.7934 30.384 71.9854C33.8 74.8974 38.08 76.6694 42.556 77.0054C48.88 77.4814 54.908 75.2374 59.332 70.8094C67.54 62.6014 67.664 49.3294 59.704 40.9694L59.696 40.9774ZM44.216 75.9974C33.008 75.9974 23.924 66.9134 23.924 55.7054C23.924 44.4974 33.008 35.4134 44.216 35.4134C55.424 35.4134 64.508 44.4974 64.508 55.7054C64.508 66.9134 55.424 75.9974 44.216 75.9974Z" fill="#FFFFF5"/>
<path d="M55.5319 45.1372C55.3319 44.9212 55.3319 44.5892 55.5399 44.3812L57.3239 42.5972C57.5359 42.3852 57.5359 42.0332 57.3199 41.8252C55.5759 40.1772 53.5719 38.8932 51.3999 38.0132C49.3119 37.1652 47.0759 36.6932 44.7679 36.6252C44.4679 36.6172 44.2199 36.8652 44.2199 37.1652V37.5252C44.2199 37.8172 43.9839 38.0532 43.6919 38.0612C41.5639 38.1252 39.5039 38.5652 37.5799 39.3412C35.5879 40.1492 33.7439 41.3252 32.1399 42.8372C31.9199 43.0452 31.9199 43.3932 32.1359 43.6092L32.3919 43.8652C32.5999 44.0732 32.5999 44.4052 32.3959 44.6212C30.9999 46.1132 29.9359 47.8052 29.2079 49.6012C28.4679 51.4372 28.0719 53.3812 28.0279 55.3292C28.0239 55.5292 28.1879 55.6972 28.3919 55.6972C28.5959 55.6972 28.7439 55.8532 28.7479 56.0492C28.8359 59.8972 30.3439 63.7172 33.2719 66.6452C36.1959 69.5692 40.0839 71.1812 44.2199 71.1812C48.3559 71.1812 52.2439 69.5692 55.1679 66.6452C58.0919 63.7212 59.7039 59.8332 59.7039 55.6972C59.7039 51.5612 58.2279 48.0052 55.5359 45.1292L55.5319 45.1372ZM44.2159 70.1092C36.2599 70.1092 29.8119 63.6612 29.8119 55.7052C29.8119 47.7492 36.2599 41.3012 44.2159 41.3012C52.1719 41.3012 58.6199 47.7492 58.6199 55.7052C58.6199 63.6612 52.1719 70.1092 44.2159 70.1092Z" fill="#FFFFF5"/>
<path d="M44.2161 45.4453C38.5481 45.4453 33.9561 50.0373 33.9561 55.7053C33.9561 61.3733 38.5481 65.9653 44.2161 65.9653C49.8841 65.9653 54.4761 61.3733 54.4761 55.7053C54.4761 50.0373 49.8841 45.4453 44.2161 45.4453ZM44.2161 58.4053C42.7241 58.4053 41.5161 57.1973 41.5161 55.7053C41.5161 54.2133 42.7241 53.0053 44.2161 53.0053C45.7081 53.0053 46.9161 54.2133 46.9161 55.7053C46.9161 57.1973 45.7081 58.4053 44.2161 58.4053Z" fill="#FFFFF5"/>
<path d="M68.0242 32.6534C67.8202 32.4414 67.8162 32.1054 68.0242 31.8974L69.8082 30.1134C70.0202 29.9014 70.0202 29.5534 69.8082 29.3414C66.3642 25.9934 62.3762 23.4054 58.0442 21.6454C53.8762 19.9534 49.3882 19.0334 44.7602 18.9654C44.4602 18.9614 44.2122 19.2054 44.2122 19.5094V19.8694C44.2122 20.1654 43.9762 20.4014 43.6802 20.4054C39.2402 20.4694 34.9322 21.3534 30.9242 22.9774C26.7722 24.6614 22.9442 27.1494 19.6402 30.3534C19.4242 30.5614 19.4242 30.9094 19.6402 31.1254L19.8962 31.3814C20.1042 31.5894 20.1042 31.9254 19.8962 32.1374C16.7802 35.3534 14.4282 39.0374 12.8402 42.9614C11.2402 46.9214 10.4162 51.1254 10.3682 55.3374C10.3682 55.5374 10.5322 55.7014 10.7322 55.7014C10.9282 55.7014 11.0882 55.8614 11.0882 56.0574C11.1762 64.4254 14.4082 72.7654 20.7762 79.1374C27.0362 85.3974 35.3602 88.8454 44.2122 88.8454C53.0642 88.8454 61.3882 85.3974 67.6482 79.1374C80.4442 66.3414 80.5682 45.5974 68.0242 32.6494V32.6534ZM44.2162 87.7694C26.5082 87.7694 12.1522 73.4134 12.1522 55.7054C12.1522 37.9974 26.5082 23.6454 44.2162 23.6454C61.9242 23.6454 76.2802 38.0014 76.2802 55.7094C76.2802 73.4174 61.9242 87.7734 44.2162 87.7734V87.7694Z" fill="#FFFFF5"/>
<path d="M44.2161 16.8213C22.7401 16.8213 5.32812 34.2333 5.32812 55.7093C5.32812 77.1853 22.7401 94.5973 44.2161 94.5973C65.6921 94.5973 83.1041 77.1853 83.1041 55.7093C83.1041 34.2333 65.6921 16.8213 44.2161 16.8213ZM44.2161 93.5653C23.3081 93.5653 6.35613 76.6173 6.35613 55.7053C6.35613 34.7933 23.3081 17.8493 44.2161 17.8493C65.1241 17.8493 82.0761 34.7973 82.0761 55.7093C82.0761 76.6213 65.1281 93.5693 44.2161 93.5693V93.5653Z" fill="#FFFFF5"/>
<path d="M24.9961 9.08505L25.7721 10.6531L23.4321 11.8131L25.8681 16.7291L23.9641 17.6731L21.5281 12.7571L19.1881 13.9171L18.4121 12.3491L25.0001 9.08105L24.9961 9.08505Z" fill="#FFFFF5"/>
<path d="M28.7318 7.84531L29.4678 10.3973L32.2918 9.58531L31.5558 7.03331L33.5998 6.44531L35.6038 13.3973L33.5598 13.9853L32.7758 11.2653L29.9518 12.0773L30.7358 14.7973L28.6798 15.3893L26.6758 8.43731L28.7318 7.84531Z" fill="#FFFFF5"/>
<path d="M42.1479 5.39307L42.3279 7.11307L38.1279 7.54907L38.2319 8.53707L41.9159 8.15307L42.0879 9.78507L38.4039 10.1691L38.5239 11.3091L42.7879 10.8651L42.9679 12.5851L36.5879 13.2491L35.8359 6.05307L42.1519 5.39307H42.1479Z" fill="#FFFFF5"/>
<path d="M48.9321 5.66107L48.6001 8.29707L51.5161 8.66107L51.8481 6.02507L53.9601 6.28907L53.0601 13.4691L50.9481 13.2051L51.3001 10.3971L48.3841 10.0331L48.0321 12.8411L45.9121 12.5731L46.8121 5.39307L48.9321 5.66107Z" fill="#FFFFF5"/>
<path d="M60.9679 8.29297L60.4679 9.96897L58.9759 9.52497L57.9079 13.105L59.3999 13.549L58.8999 15.225L53.8599 13.725L54.3599 12.049L55.8599 12.497L56.9279 8.91697L55.4279 8.46897L55.9279 6.79297L60.9679 8.29697V8.29297Z" fill="#FFFFF5"/>
<path d="M66.324 10.6293C68.324 11.6053 69.176 12.9573 68.184 14.9973L67.712 15.9693C66.756 17.9293 65.192 18.1293 63.156 17.1373L59.728 15.4693L62.896 8.96533L66.324 10.6333V10.6293ZM62.396 14.8173L63.92 15.5613C64.88 16.0293 65.376 15.8253 65.768 15.0213L66.24 14.0493C66.652 13.2053 66.524 12.6733 65.556 12.2013L64.032 11.4573L62.396 14.8173Z" fill="#FFFFF5"/>
<path d="M74.4481 15.6292C76.2281 16.9612 76.8161 18.4532 75.4561 20.2692L74.8081 21.1332C73.5001 22.8812 71.9281 22.7812 70.1121 21.4252L67.0601 19.1412L71.3961 13.3452L74.4481 15.6292ZM69.8041 19.0052L71.1601 20.0212C72.0161 20.6612 72.5401 20.5572 73.0761 19.8372L73.7241 18.9732C74.2881 18.2212 74.2641 17.6772 73.4001 17.0292L72.0441 16.0132L69.8041 19.0052Z" fill="#FFFFF5"/>
<path d="M83.1801 23.8773L81.9161 25.0573L79.0361 21.9693L78.3081 22.6453L80.8321 25.3533L79.6321 26.4733L77.1081 23.7653L76.2721 24.5453L79.1961 27.6813L77.9321 28.8613L73.5601 24.1693L78.8521 19.2373L83.1801 23.8813V23.8773Z" fill="#FFFFF5"/>
<path d="M86.0238 27.869L83.8318 32.597L83.9638 32.805L87.6678 30.457L88.7078 32.097L82.5998 35.973L81.1518 33.693L83.3398 28.953L83.2118 28.753L79.5078 31.101L78.4678 29.461L84.5798 25.585L86.0278 27.865L86.0238 27.869Z" fill="#FFFFF5"/>
<path d="M92.7718 42.4892L88.5038 43.9532C86.7038 44.5692 85.4598 43.7972 84.7958 41.8692L84.7278 41.6652C84.0598 39.7132 84.5678 38.3412 86.3678 37.7252L86.9598 37.5212L87.6558 39.5452L87.0238 39.7612C86.4838 39.9452 86.2718 40.3612 86.5078 41.0572L86.5678 41.2292C86.8078 41.9252 87.2318 42.1332 87.7718 41.9452L90.4278 41.0332L89.0278 36.9572L90.6838 36.3892L92.7758 42.4892H92.7718Z" fill="#FFFFF5"/>
<path d="M94.0882 49.5094L87.3522 53.2294L87.0242 51.1614L88.2522 50.4854L87.7202 47.1374L86.3442 46.8734L86.0322 44.9214L93.5882 46.3534L94.0922 49.5094H94.0882ZM89.5002 47.4734L89.8402 49.6174L92.0922 48.3734L92.0242 47.9574L89.4962 47.4734H89.5002Z" fill="#FFFFF5"/>
<path d="M94.46 57.5333L91.08 58.6573L91.06 58.9893L94.276 60.5533L94.076 63.7773L86.8521 63.3293L86.98 61.2253L91.96 61.5333L91.976 61.2413L88.7401 59.6893L88.8841 57.3813L92.288 56.2373L92.304 55.9573L87.324 55.6493L87.448 53.6533L94.672 54.1013L94.46 57.5293V57.5333Z" fill="#FFFFF5"/>
<path d="M92.6759 69.5292C92.1279 71.4732 91.0279 72.5652 89.5399 72.1492L89.3119 72.0852L89.8719 70.0892L90.0999 70.1532C90.5679 70.2852 90.9119 69.8652 91.1319 69.0732L91.1839 68.8852C91.4119 68.0732 91.3599 67.5772 91.0679 67.4972L90.9839 67.4732C90.5999 67.3652 90.3959 67.6572 89.6439 69.2972C88.7559 71.1452 87.9199 71.8092 86.7439 71.4773L86.6399 71.4492C85.4239 71.1092 84.8679 69.7732 85.4919 67.5372L85.5519 67.3292C86.1839 65.0732 87.3799 64.1732 88.8759 64.5932L89.0639 64.6452L88.5039 66.6412L88.3159 66.5892C87.6719 66.4092 87.3599 66.8812 87.1039 67.7852L87.0519 67.9732C86.8199 68.8052 86.8399 69.3252 87.1719 69.4212L87.2559 69.4452C87.5999 69.5412 87.8919 69.1292 88.6399 67.5132C89.4079 65.8132 90.2479 65.1052 91.4239 65.4332L91.5679 65.4732C92.9199 65.8532 93.2999 67.2932 92.7319 69.3212L92.6759 69.5292Z" fill="#FFFFF5"/>
</svg>
