<svg width="54" height="55" viewBox="0 0 54 55" fill="none" xmlns="http://www.w3.org/2000/svg">
<path d="M28.6875 9.36477C30.9375 7.74477 33.5475 6.93477 36.495 6.93477C38.115 6.93477 39.8925 7.36227 41.8275 8.26227C43.7625 9.13977 45.2925 10.1748 46.4175 11.3673C48.735 14.2473 49.7025 17.5998 49.365 21.4248C49.005 25.2498 47.745 28.2423 45.5625 30.3573L28.485 47.4348C28.0575 47.8623 27.5175 48.0648 26.8875 48.0648C26.2575 48.0648 25.74 47.8623 25.3125 47.4348C25.1045 47.2299 24.9412 46.9843 24.8327 46.7132C24.7243 46.4421 24.6732 46.1516 24.6825 45.8598C24.6825 45.2298 24.885 44.6898 25.3125 44.2623L35.64 33.9348C36.2025 33.4398 36.2025 32.9223 35.64 32.3598C35.0775 31.7973 34.56 31.7973 34.065 32.3598L23.7375 42.6873C23.5293 42.897 23.2798 43.0613 23.0048 43.1697C22.7299 43.2782 22.4354 43.3284 22.14 43.3173C21.51 43.3173 20.9925 43.1148 20.565 42.6873C20.357 42.4824 20.1937 42.2368 20.0852 41.9657C19.9768 41.6946 19.9257 41.4041 19.935 41.1123C19.935 40.4823 20.1375 39.9423 20.565 39.5148L30.8925 29.1873C31.5 28.6248 31.5 28.0623 30.8925 27.4998C30.375 26.9373 29.88 26.9373 29.3175 27.4998L18.99 37.9398C18.7794 38.1463 18.5295 38.3085 18.2551 38.4167C17.9807 38.5249 17.6874 38.5769 17.3925 38.5698C16.7625 38.5698 16.2225 38.3673 15.75 37.9398C15.3 37.5123 15.075 36.9948 15.075 36.3648C15.075 35.7348 15.3225 35.1723 15.8175 34.6773L26.1675 24.3273C26.73 23.7648 26.73 23.2473 26.1675 22.7523C25.605 22.2573 25.065 22.2573 24.57 22.7523L14.13 33.1248C13.635 33.5748 13.1175 33.8223 12.555 33.8223C11.925 33.8223 11.385 33.5973 10.98 33.1248C10.5525 32.6748 10.3275 32.1348 10.3275 31.5048C10.3275 30.8748 10.5525 30.3573 10.98 29.9298C17.865 22.9998 22.1175 18.8148 23.7375 17.2623L31.7475 25.1823C32.625 26.0148 33.6375 26.4423 34.875 26.4423C36.45 26.4423 37.6875 25.8123 38.61 24.5523C39.24 23.6298 39.465 22.6173 39.285 21.4923C39.105 20.3673 38.6325 19.4223 37.8675 18.6348L28.6875 9.36477ZM33.3225 23.6073L23.7375 13.9998L7.80755 29.9298C5.91755 28.0173 4.83755 25.0923 4.59005 21.1098C4.34255 17.1498 5.42255 13.7073 7.80755 10.8273C10.485 8.17227 13.68 6.82227 17.3925 6.82227C21.1275 6.82227 24.3 8.17227 26.8875 10.8273L36.495 20.4348C36.9225 20.8623 37.125 21.3798 37.125 22.0098C37.125 22.6398 36.9225 23.1798 36.495 23.6073C36.0675 24.0123 35.55 24.2373 34.875 24.2373C34.2675 24.2373 33.75 24.0123 33.3225 23.6073Z" fill="#31FAB4"/>
</svg>
