<svg width="17" height="17" viewBox="0 0 17 17" fill="none" xmlns="http://www.w3.org/2000/svg">
<g filter="url(#filter0_d_3881_66170)">
<mask id="mask0_3881_66170" style="mask-type:alpha" maskUnits="userSpaceOnUse" x="0" y="0" width="17" height="17">
<path d="M8.31017 0.509718C8.60083 0.405635 8.91893 0.405594 9.20958 0.509718C9.48005 0.606746 9.71992 0.839381 10.1988 1.30269C10.4517 1.54728 10.5791 1.66964 10.7252 1.75288C10.8827 1.84245 11.0569 1.89883 11.2369 1.9189C11.3204 1.92815 11.4064 1.92693 11.5143 1.91694L11.9274 1.86421C12.5872 1.77088 12.9181 1.72408 13.194 1.80464C13.4902 1.89131 13.7476 2.07796 13.9215 2.33296C14.0833 2.57043 14.1413 2.89929 14.2565 3.55562C14.3173 3.90231 14.3473 4.07615 14.4166 4.22944C14.4913 4.39454 14.5991 4.54288 14.733 4.66499C14.8574 4.77825 15.0139 4.86134 15.3248 5.02632C15.9133 5.33855 16.2076 5.49533 16.3834 5.72261C16.5722 5.96694 16.671 6.2694 16.6617 6.57808L16.652 6.68648C16.6142 6.94446 16.4697 7.23956 16.2135 7.76362L16.0358 8.1396C15.9928 8.23942 15.9649 8.32079 15.9479 8.40327L15.9274 8.53706C15.9136 8.67179 15.9204 8.8082 15.9479 8.94136C15.9819 9.10606 16.059 9.26494 16.2135 9.58101C16.5061 10.1796 16.6531 10.4793 16.6617 10.7666C16.671 11.0753 16.5723 11.3777 16.3834 11.622C16.2076 11.8493 15.9134 12.006 15.3248 12.3183L14.9586 12.5185C14.8655 12.5738 14.7951 12.6231 14.733 12.6796L14.6383 12.7753C14.5477 12.8765 14.4728 12.991 14.4166 13.1152C14.3473 13.2685 14.3173 13.4422 14.2565 13.789L14.1783 14.2236C14.106 14.6039 14.0429 14.8336 13.9215 15.0117L13.8522 15.1035C13.6824 15.3113 13.4533 15.4641 13.194 15.54L13.0865 15.5644C12.8296 15.608 12.5044 15.562 11.9274 15.4804C11.579 15.4312 11.4041 15.4062 11.2369 15.4248C11.0568 15.4448 10.8827 15.5021 10.7252 15.5917L10.6168 15.663C10.5077 15.7441 10.3886 15.8584 10.1988 16.0419C9.71987 16.5053 9.48008 16.7379 9.20958 16.8349L9.09923 16.8691C8.87693 16.9276 8.64283 16.9276 8.42052 16.8691L8.31017 16.8349C8.10722 16.7622 7.92149 16.6129 7.63927 16.3476L7.32091 16.0419C7.06804 15.7973 6.94066 15.675 6.79454 15.5917C6.63694 15.502 6.46209 15.4448 6.28185 15.4248C6.11484 15.4063 5.94035 15.4312 5.5924 15.4804L5.1549 15.541C4.77072 15.5897 4.5327 15.6004 4.32579 15.54C4.0665 15.4642 3.83738 15.3113 3.66759 15.1035L3.59826 15.0117C3.47686 14.8336 3.41377 14.6039 3.34142 14.2236L3.26329 13.789C3.21767 13.5289 3.18969 13.366 3.14904 13.2363L3.10314 13.1152C3.04699 12.9911 2.97196 12.8764 2.88146 12.7753L2.78576 12.6796C2.6614 12.5663 2.50584 12.4833 2.19493 12.3183C1.67999 12.0451 1.38981 11.8914 1.20763 11.705L1.13634 11.622C0.947409 11.3777 0.848782 11.0753 0.858021 10.7666C0.864526 10.5511 0.948788 10.3288 1.11388 9.97847L1.30626 9.58101C1.42225 9.34373 1.49439 9.19522 1.53771 9.06636L1.57189 8.94136C1.59932 8.80822 1.60611 8.67177 1.5924 8.53706L1.57189 8.40327C1.55487 8.32084 1.52694 8.23934 1.484 8.1396L1.30626 7.76362C1.05011 7.23961 0.905563 6.94445 0.867786 6.68648L0.858021 6.57808C0.849902 6.30776 0.924518 6.04225 1.06993 5.81636L1.13634 5.72261C1.26827 5.55204 1.46659 5.42082 1.80626 5.23433L2.19493 5.02632C2.5059 4.86133 2.66138 4.77828 2.78576 4.66499C2.88644 4.57325 2.97245 4.46687 3.04064 4.34956L3.10314 4.22944C3.13782 4.15278 3.16227 4.07068 3.18615 3.9648L3.26329 3.55562C3.37845 2.89913 3.43638 2.57045 3.59826 2.33296C3.75043 2.10983 3.96639 1.93904 4.21642 1.84175L4.32579 1.80464C4.60165 1.72413 4.93255 1.77088 5.5924 1.86421C5.94038 1.91343 6.11481 1.93738 6.28185 1.9189C6.41711 1.90386 6.54944 1.86819 6.67345 1.81343L6.79454 1.75288C6.86773 1.71119 6.93651 1.65959 7.01818 1.58784L7.32091 1.30269C7.74019 0.897075 7.97587 0.668308 8.20958 0.552687L8.31017 0.509718ZM9.91226 15.3927C9.97708 15.3314 9.91456 15.2022 9.82648 15.2166C9.47972 15.2733 9.12401 15.3037 8.76134 15.3037L8.42052 15.2949C8.17415 15.2824 7.93147 15.2559 7.69301 15.2169C7.6049 15.2025 7.54245 15.3316 7.60738 15.3929C7.66516 15.4475 7.72386 15.5045 7.78478 15.5634C8.03091 15.8015 8.18993 15.9551 8.31993 16.0634C8.44436 16.1671 8.50335 16.1957 8.53478 16.207C8.68015 16.259 8.83962 16.2591 8.98497 16.207C9.01646 16.1957 9.07548 16.167 9.19982 16.0634C9.32984 15.955 9.48877 15.8016 9.73497 15.5634C9.79592 15.5045 9.85456 15.4474 9.91226 15.3927ZM4.05017 13.3371C3.98722 13.2736 3.86006 13.3419 3.87672 13.4297C3.89162 13.5084 3.90575 13.5896 3.92052 13.6738C3.97978 14.0116 4.01864 14.2293 4.06017 14.3935C4.09992 14.5506 4.13024 14.6081 4.14904 14.6357C4.23605 14.7632 4.36508 14.8571 4.51329 14.9003C4.54549 14.9097 4.60994 14.9208 4.77111 14.9101C4.9401 14.8988 5.15916 14.8683 5.49865 14.8203C5.58258 14.8084 5.66352 14.7967 5.74224 14.7865C5.83078 14.775 5.85625 14.6334 5.77655 14.5932C5.13406 14.2688 4.55157 13.8434 4.05017 13.3371ZM13.6422 13.4322C13.6586 13.3445 13.5318 13.2766 13.469 13.34C12.9678 13.8453 12.3859 14.2697 11.744 14.5934C11.6643 14.6336 11.6897 14.7751 11.7782 14.7866C11.8567 14.7968 11.9374 14.8084 12.0211 14.8203C12.3606 14.8683 12.5797 14.8989 12.7486 14.9101C12.9101 14.9208 12.9744 14.9097 13.0065 14.9003C13.1547 14.857 13.2837 14.7633 13.3707 14.6357C13.3895 14.6081 13.4198 14.5506 13.4596 14.3935C13.5011 14.2293 13.54 14.0116 13.5992 13.6738C13.6138 13.5905 13.6277 13.5101 13.6422 13.4322ZM8.76134 2.70894C5.4676 2.70908 2.79762 5.37907 2.79747 8.6728C2.79748 11.9667 5.46752 14.6365 8.76134 14.6367C12.0553 14.6367 14.7252 11.9667 14.7252 8.6728C14.7251 5.37899 12.0552 2.70895 8.76134 2.70894ZM8.75841 2.98921C11.8973 2.98921 14.4418 5.53399 14.442 8.6728C14.442 11.8118 11.8974 14.3564 8.75841 14.3564C5.61966 14.3562 3.07482 11.8116 3.07482 8.6728C3.07498 5.53413 5.61976 2.98945 8.75841 2.98921ZM2.20661 9.67959C2.1931 9.59105 2.04984 9.57154 2.01175 9.6526C1.97801 9.72441 1.94211 9.79785 1.9049 9.87398C1.75429 10.1821 1.65728 10.3808 1.59435 10.538C1.53407 10.6887 1.52504 10.7537 1.52404 10.7871C1.51952 10.9413 1.56927 11.0927 1.66368 11.2148C1.68425 11.2413 1.72945 11.2881 1.86583 11.374C2.00917 11.4642 2.2045 11.5687 2.50743 11.7294C2.58258 11.7693 2.65515 11.8076 2.72503 11.8458C2.80351 11.8887 2.90776 11.7887 2.86671 11.7092C2.54371 11.084 2.31673 10.401 2.20661 9.67959ZM15.5085 9.65484C15.4702 9.57422 15.3281 9.59392 15.3147 9.68215C15.2049 10.402 14.9797 11.0837 14.658 11.7077C14.6172 11.787 14.7204 11.8862 14.7987 11.8435C14.8673 11.8061 14.9386 11.7685 15.0123 11.7294C15.3153 11.5687 15.5106 11.4642 15.6539 11.374C15.7906 11.2879 15.8356 11.2412 15.8561 11.2148C15.9505 11.0927 16.0002 10.9413 15.9957 10.7871C15.9947 10.7537 15.9856 10.6886 15.9254 10.538C15.8625 10.3808 15.7654 10.182 15.6149 9.87398C15.578 9.79861 15.5422 9.72591 15.5085 9.65484ZM2.86647 5.63482C2.90752 5.55532 2.80335 5.45552 2.72492 5.49858C2.65512 5.53691 2.58259 5.57531 2.50743 5.61519C2.20441 5.77596 2.00918 5.88041 1.86583 5.97066C1.72908 6.05678 1.68417 6.10341 1.66368 6.12984C1.56923 6.25195 1.51947 6.40326 1.52404 6.55757C1.52506 6.59098 1.53414 6.6561 1.59435 6.80659C1.65729 6.96382 1.75435 7.16268 1.9049 7.47066C1.94216 7.54689 1.97824 7.62038 2.01218 7.69223C2.05043 7.77322 2.1941 7.75355 2.20759 7.66501C2.31757 6.94345 2.54362 6.26016 2.86647 5.63482ZM14.7978 5.50043C14.7195 5.45761 14.6161 5.55694 14.657 5.63627C14.9791 6.26038 15.2046 6.94214 15.3146 7.66211C15.3281 7.75031 15.4702 7.77004 15.5085 7.68948C15.5423 7.61853 15.5781 7.54595 15.6149 7.47066C15.7655 7.16258 15.8625 6.96384 15.9254 6.80659C15.9856 6.65608 15.9947 6.59097 15.9957 6.55757C16.0003 6.40334 15.9504 6.25192 15.8561 6.12984C15.8356 6.10343 15.7905 6.05671 15.6539 5.97066C15.5106 5.88042 15.3152 5.77591 15.0123 5.61519C14.9383 5.57591 14.8667 5.53812 14.7978 5.50043ZM4.51329 2.44429C4.365 2.4876 4.23605 2.58128 4.14904 2.70894C4.13023 2.73656 4.09992 2.79397 4.06017 2.95112C4.01865 3.11535 3.97978 3.33301 3.92052 3.67085C3.90569 3.7554 3.89147 3.83692 3.87644 3.91579C3.85969 4.00372 3.98697 4.07216 4.04995 4.00855C4.55166 3.50176 5.13444 3.07556 5.77741 2.75093C5.85717 2.71066 5.83158 2.5692 5.74295 2.55792C5.664 2.54786 5.58282 2.53627 5.49865 2.52437C5.15918 2.47635 4.9401 2.44579 4.77111 2.43452C4.60978 2.42379 4.54546 2.43495 4.51329 2.44429ZM12.7486 2.43452C12.5796 2.44578 12.3606 2.47634 12.0211 2.52437C11.9371 2.53626 11.856 2.54782 11.7771 2.55787C11.6885 2.56915 11.6629 2.71062 11.7427 2.75084C12.3852 3.07469 12.9679 3.49952 13.4695 4.00522C13.5324 4.06861 13.659 4.00069 13.6425 3.91294C13.6278 3.83494 13.6139 3.75436 13.5992 3.67085C13.54 3.33309 13.5011 3.11534 13.4596 2.95112C13.4199 2.79436 13.3895 2.73664 13.3707 2.70894C13.2837 2.58135 13.1547 2.48762 13.0065 2.44429C12.9744 2.43495 12.9102 2.42379 12.7486 2.43452ZM8.98497 1.13765C8.83959 1.08553 8.68017 1.08556 8.53478 1.13765C8.50333 1.14894 8.44444 1.17745 8.31993 1.2812C8.1899 1.3896 8.031 1.54301 7.78478 1.7812C7.72337 1.84061 7.66418 1.89798 7.60589 1.95278C7.54075 2.01401 7.60322 2.14358 7.69145 2.12915C8.03972 2.07217 8.39702 2.04196 8.76134 2.04194L9.10216 2.05073C9.34797 2.06318 9.59016 2.08999 9.82813 2.12917C9.91631 2.14368 9.97881 2.01427 9.91379 1.95298C9.85555 1.89808 9.7964 1.84063 9.73497 1.7812C9.48887 1.54312 9.32982 1.3896 9.19982 1.2812C9.07563 1.17772 9.01649 1.14901 8.98497 1.13765Z" fill="black"/>
</mask>
<g mask="url(#mask0_3881_66170)">
<rect x="-2.29199" y="-2.38086" width="22.1028" height="22.1028" fill="#E94B28"/>
<rect x="-2.29199" y="-2.38086" width="22.1028" height="22.1028" fill="url(#paint0_linear_3881_66170)" fill-opacity="0.6" style="mix-blend-mode:overlay"/>
<rect x="-2.29199" y="-2.38086" width="22.1028" height="22.1028" fill="url(#paint1_radial_3881_66170)" fill-opacity="0.6" style="mix-blend-mode:overlay"/>
<g style="mix-blend-mode:soft-light">
<path fill-rule="evenodd" clip-rule="evenodd" d="M-2.29199 -2.38086H10.9697L6.73724 19.7219H-2.29199V-2.38086Z" fill="url(#paint2_linear_3881_66170)" style="mix-blend-mode:lighten"/>
</g>
<g style="mix-blend-mode:soft-light">
<mask id="path-5-inside-1_3881_66170" fill="white">
<path d="M8.31017 0.509718C8.60083 0.405635 8.91893 0.405594 9.20958 0.509718C9.48005 0.606746 9.71992 0.839381 10.1988 1.30269C10.4517 1.54728 10.5791 1.66964 10.7252 1.75288C10.8827 1.84245 11.0569 1.89883 11.2369 1.9189C11.3204 1.92815 11.4064 1.92693 11.5143 1.91694L11.9274 1.86421C12.5872 1.77088 12.9181 1.72408 13.194 1.80464C13.4902 1.89131 13.7476 2.07796 13.9215 2.33296C14.0833 2.57043 14.1413 2.89929 14.2565 3.55562C14.3173 3.90231 14.3473 4.07615 14.4166 4.22944C14.4913 4.39454 14.5991 4.54288 14.733 4.66499C14.8574 4.77825 15.0139 4.86134 15.3248 5.02632C15.9133 5.33855 16.2076 5.49533 16.3834 5.72261C16.5722 5.96694 16.671 6.2694 16.6617 6.57808L16.652 6.68648C16.6142 6.94446 16.4697 7.23956 16.2135 7.76362L16.0358 8.1396C15.9928 8.23942 15.9649 8.32079 15.9479 8.40327L15.9274 8.53706C15.9136 8.67179 15.9204 8.8082 15.9479 8.94136C15.9819 9.10606 16.059 9.26494 16.2135 9.58101C16.5061 10.1796 16.6531 10.4793 16.6617 10.7666C16.671 11.0753 16.5723 11.3777 16.3834 11.622C16.2076 11.8493 15.9134 12.006 15.3248 12.3183L14.9586 12.5185C14.8655 12.5738 14.7951 12.6231 14.733 12.6796L14.6383 12.7753C14.5477 12.8765 14.4728 12.991 14.4166 13.1152C14.3473 13.2685 14.3173 13.4422 14.2565 13.789L14.1783 14.2236C14.106 14.6039 14.0429 14.8336 13.9215 15.0117L13.8522 15.1035C13.6824 15.3113 13.4533 15.4641 13.194 15.54L13.0865 15.5644C12.8296 15.608 12.5044 15.562 11.9274 15.4804C11.579 15.4312 11.4041 15.4062 11.2369 15.4248C11.0568 15.4448 10.8827 15.5021 10.7252 15.5917L10.6168 15.663C10.5077 15.7441 10.3886 15.8584 10.1988 16.0419C9.71987 16.5053 9.48008 16.7379 9.20958 16.8349L9.09923 16.8691C8.87693 16.9276 8.64283 16.9276 8.42052 16.8691L8.31017 16.8349C8.10722 16.7622 7.92149 16.6129 7.63927 16.3476L7.32091 16.0419C7.06804 15.7973 6.94066 15.675 6.79454 15.5917C6.63694 15.502 6.46209 15.4448 6.28185 15.4248C6.11484 15.4063 5.94035 15.4312 5.5924 15.4804L5.1549 15.541C4.77072 15.5897 4.5327 15.6004 4.32579 15.54C4.0665 15.4642 3.83738 15.3113 3.66759 15.1035L3.59826 15.0117C3.47686 14.8336 3.41377 14.6039 3.34142 14.2236L3.26329 13.789C3.21767 13.5289 3.18969 13.366 3.14904 13.2363L3.10314 13.1152C3.04699 12.9911 2.97196 12.8764 2.88146 12.7753L2.78576 12.6796C2.6614 12.5663 2.50584 12.4833 2.19493 12.3183C1.67999 12.0451 1.38981 11.8914 1.20763 11.705L1.13634 11.622C0.947409 11.3777 0.848782 11.0753 0.858021 10.7666C0.864526 10.5511 0.948788 10.3288 1.11388 9.97847L1.30626 9.58101C1.42225 9.34373 1.49439 9.19522 1.53771 9.06636L1.57189 8.94136C1.59932 8.80822 1.60611 8.67177 1.5924 8.53706L1.57189 8.40327C1.55487 8.32084 1.52694 8.23934 1.484 8.1396L1.30626 7.76362C1.05011 7.23961 0.905563 6.94445 0.867786 6.68648L0.858021 6.57808C0.849902 6.30776 0.924518 6.04225 1.06993 5.81636L1.13634 5.72261C1.26827 5.55204 1.46659 5.42082 1.80626 5.23433L2.19493 5.02632C2.5059 4.86133 2.66138 4.77828 2.78576 4.66499C2.88644 4.57325 2.97245 4.46687 3.04064 4.34956L3.10314 4.22944C3.13782 4.15278 3.16227 4.07068 3.18615 3.9648L3.26329 3.55562C3.37845 2.89913 3.43638 2.57045 3.59826 2.33296C3.75043 2.10983 3.96639 1.93904 4.21642 1.84175L4.32579 1.80464C4.60165 1.72413 4.93255 1.77088 5.5924 1.86421C5.94038 1.91343 6.11481 1.93738 6.28185 1.9189C6.41711 1.90386 6.54944 1.86819 6.67345 1.81343L6.79454 1.75288C6.86773 1.71119 6.93651 1.65959 7.01818 1.58784L7.32091 1.30269C7.74019 0.897075 7.97587 0.668308 8.20958 0.552687L8.31017 0.509718ZM9.91226 15.3927C9.97708 15.3314 9.91456 15.2022 9.82648 15.2166C9.47972 15.2733 9.12401 15.3037 8.76134 15.3037L8.42052 15.2949C8.17415 15.2824 7.93147 15.2559 7.69301 15.2169C7.6049 15.2025 7.54245 15.3316 7.60738 15.3929C7.66516 15.4475 7.72386 15.5045 7.78478 15.5634C8.03091 15.8015 8.18993 15.9551 8.31993 16.0634C8.44436 16.1671 8.50335 16.1957 8.53478 16.207C8.68015 16.259 8.83962 16.2591 8.98497 16.207C9.01646 16.1957 9.07548 16.167 9.19982 16.0634C9.32984 15.955 9.48877 15.8016 9.73497 15.5634C9.79592 15.5045 9.85456 15.4474 9.91226 15.3927ZM4.05017 13.3371C3.98722 13.2736 3.86006 13.3419 3.87672 13.4297C3.89162 13.5084 3.90575 13.5896 3.92052 13.6738C3.97978 14.0116 4.01864 14.2293 4.06017 14.3935C4.09992 14.5506 4.13024 14.6081 4.14904 14.6357C4.23605 14.7632 4.36508 14.8571 4.51329 14.9003C4.54549 14.9097 4.60994 14.9208 4.77111 14.9101C4.9401 14.8988 5.15916 14.8683 5.49865 14.8203C5.58258 14.8084 5.66352 14.7967 5.74224 14.7865C5.83078 14.775 5.85625 14.6334 5.77655 14.5932C5.13406 14.2688 4.55157 13.8434 4.05017 13.3371ZM13.6422 13.4322C13.6586 13.3445 13.5318 13.2766 13.469 13.34C12.9678 13.8453 12.3859 14.2697 11.744 14.5934C11.6643 14.6336 11.6897 14.7751 11.7782 14.7866C11.8567 14.7968 11.9374 14.8084 12.0211 14.8203C12.3606 14.8683 12.5797 14.8989 12.7486 14.9101C12.9101 14.9208 12.9744 14.9097 13.0065 14.9003C13.1547 14.857 13.2837 14.7633 13.3707 14.6357C13.3895 14.6081 13.4198 14.5506 13.4596 14.3935C13.5011 14.2293 13.54 14.0116 13.5992 13.6738C13.6138 13.5905 13.6277 13.5101 13.6422 13.4322ZM8.76134 2.70894C5.4676 2.70908 2.79762 5.37907 2.79747 8.6728C2.79748 11.9667 5.46752 14.6365 8.76134 14.6367C12.0553 14.6367 14.7252 11.9667 14.7252 8.6728C14.7251 5.37899 12.0552 2.70895 8.76134 2.70894ZM8.75841 2.98921C11.8973 2.98921 14.4418 5.53399 14.442 8.6728C14.442 11.8118 11.8974 14.3564 8.75841 14.3564C5.61966 14.3562 3.07482 11.8116 3.07482 8.6728C3.07498 5.53413 5.61976 2.98945 8.75841 2.98921ZM2.20661 9.67959C2.1931 9.59105 2.04984 9.57154 2.01175 9.6526C1.97801 9.72441 1.94211 9.79785 1.9049 9.87398C1.75429 10.1821 1.65728 10.3808 1.59435 10.538C1.53407 10.6887 1.52504 10.7537 1.52404 10.7871C1.51952 10.9413 1.56927 11.0927 1.66368 11.2148C1.68425 11.2413 1.72945 11.2881 1.86583 11.374C2.00917 11.4642 2.2045 11.5687 2.50743 11.7294C2.58258 11.7693 2.65515 11.8076 2.72503 11.8458C2.80351 11.8887 2.90776 11.7887 2.86671 11.7092C2.54371 11.084 2.31673 10.401 2.20661 9.67959ZM15.5085 9.65484C15.4702 9.57422 15.3281 9.59392 15.3147 9.68215C15.2049 10.402 14.9797 11.0837 14.658 11.7077C14.6172 11.787 14.7204 11.8862 14.7987 11.8435C14.8673 11.8061 14.9386 11.7685 15.0123 11.7294C15.3153 11.5687 15.5106 11.4642 15.6539 11.374C15.7906 11.2879 15.8356 11.2412 15.8561 11.2148C15.9505 11.0927 16.0002 10.9413 15.9957 10.7871C15.9947 10.7537 15.9856 10.6886 15.9254 10.538C15.8625 10.3808 15.7654 10.182 15.6149 9.87398C15.578 9.79861 15.5422 9.72591 15.5085 9.65484ZM2.86647 5.63482C2.90752 5.55532 2.80335 5.45552 2.72492 5.49858C2.65512 5.53691 2.58259 5.57531 2.50743 5.61519C2.20441 5.77596 2.00918 5.88041 1.86583 5.97066C1.72908 6.05678 1.68417 6.10341 1.66368 6.12984C1.56923 6.25195 1.51947 6.40326 1.52404 6.55757C1.52506 6.59098 1.53414 6.6561 1.59435 6.80659C1.65729 6.96382 1.75435 7.16268 1.9049 7.47066C1.94216 7.54689 1.97824 7.62038 2.01218 7.69223C2.05043 7.77322 2.1941 7.75355 2.20759 7.66501C2.31757 6.94345 2.54362 6.26016 2.86647 5.63482ZM14.7978 5.50043C14.7195 5.45761 14.6161 5.55694 14.657 5.63627C14.9791 6.26038 15.2046 6.94214 15.3146 7.66211C15.3281 7.75031 15.4702 7.77004 15.5085 7.68948C15.5423 7.61853 15.5781 7.54595 15.6149 7.47066C15.7655 7.16258 15.8625 6.96384 15.9254 6.80659C15.9856 6.65608 15.9947 6.59097 15.9957 6.55757C16.0003 6.40334 15.9504 6.25192 15.8561 6.12984C15.8356 6.10343 15.7905 6.05671 15.6539 5.97066C15.5106 5.88042 15.3152 5.77591 15.0123 5.61519C14.9383 5.57591 14.8667 5.53812 14.7978 5.50043ZM4.51329 2.44429C4.365 2.4876 4.23605 2.58128 4.14904 2.70894C4.13023 2.73656 4.09992 2.79397 4.06017 2.95112C4.01865 3.11535 3.97978 3.33301 3.92052 3.67085C3.90569 3.7554 3.89147 3.83692 3.87644 3.91579C3.85969 4.00372 3.98697 4.07216 4.04995 4.00855C4.55166 3.50176 5.13444 3.07556 5.77741 2.75093C5.85717 2.71066 5.83158 2.5692 5.74295 2.55792C5.664 2.54786 5.58282 2.53627 5.49865 2.52437C5.15918 2.47635 4.9401 2.44579 4.77111 2.43452C4.60978 2.42379 4.54546 2.43495 4.51329 2.44429ZM12.7486 2.43452C12.5796 2.44578 12.3606 2.47634 12.0211 2.52437C11.9371 2.53626 11.856 2.54782 11.7771 2.55787C11.6885 2.56915 11.6629 2.71062 11.7427 2.75084C12.3852 3.07469 12.9679 3.49952 13.4695 4.00522C13.5324 4.06861 13.659 4.00069 13.6425 3.91294C13.6278 3.83494 13.6139 3.75436 13.5992 3.67085C13.54 3.33309 13.5011 3.11534 13.4596 2.95112C13.4199 2.79436 13.3895 2.73664 13.3707 2.70894C13.2837 2.58135 13.1547 2.48762 13.0065 2.44429C12.9744 2.43495 12.9102 2.42379 12.7486 2.43452ZM8.98497 1.13765C8.83959 1.08553 8.68017 1.08556 8.53478 1.13765C8.50333 1.14894 8.44444 1.17745 8.31993 1.2812C8.1899 1.3896 8.031 1.54301 7.78478 1.7812C7.72337 1.84061 7.66418 1.89798 7.60589 1.95278C7.54075 2.01401 7.60322 2.14358 7.69145 2.12915C8.03972 2.07217 8.39702 2.04196 8.76134 2.04194L9.10216 2.05073C9.34797 2.06318 9.59016 2.08999 9.82813 2.12917C9.91631 2.14368 9.97881 2.01427 9.91379 1.95298C9.85555 1.89808 9.7964 1.84063 9.73497 1.7812C9.48887 1.54312 9.32982 1.3896 9.19982 1.2812C9.07563 1.17772 9.01649 1.14901 8.98497 1.13765Z"/>
</mask>
<path d="M8.31017 0.509718L8.2961 0.470423L8.2938 0.471404L8.31017 0.509718ZM9.20958 0.509718L9.22365 0.470501L9.22363 0.470495L9.20958 0.509718ZM10.1988 1.30269L10.1699 1.33263L10.1988 1.30269ZM10.7252 1.75288L10.7046 1.78909L10.7046 1.7891L10.7252 1.75288ZM11.2369 1.9189L11.2323 1.96031L11.2323 1.96031L11.2369 1.9189ZM11.5143 1.91694L11.5181 1.95846L11.5195 1.95827L11.5143 1.91694ZM11.9274 1.86421L11.9326 1.90554L11.9332 1.90546L11.9274 1.86421ZM13.194 1.80464L13.2057 1.76465L13.2056 1.76465L13.194 1.80464ZM13.9215 2.33296L13.9559 2.3095L13.9559 2.30949L13.9215 2.33296ZM14.2565 3.55562L14.2975 3.54842V3.54842L14.2565 3.55562ZM14.4166 4.22944L14.3787 4.24661L14.3787 4.24663L14.4166 4.22944ZM14.733 4.66499L14.7049 4.69578L14.705 4.6958L14.733 4.66499ZM15.3248 5.02632L15.3443 4.98952L15.3248 5.02632ZM16.3834 5.72261L16.4164 5.69713L16.4164 5.69712L16.3834 5.72261ZM16.6617 6.57808L16.7033 6.58182L16.7034 6.57933L16.6617 6.57808ZM16.652 6.68648L16.6933 6.69252L16.6935 6.69021L16.652 6.68648ZM16.2135 7.76362L16.1761 7.74533L16.1758 7.74582L16.2135 7.76362ZM16.0358 8.1396L15.9981 8.12178L15.9975 8.12312L16.0358 8.1396ZM15.9479 8.40327L15.907 8.39484L15.9067 8.39696L15.9479 8.40327ZM15.9274 8.53706L15.8861 8.53074L15.8859 8.53284L15.9274 8.53706ZM15.9479 8.94136L15.9071 8.94977L15.9071 8.94979L15.9479 8.94136ZM16.2135 9.58101L16.1761 9.5993L16.2135 9.58101ZM16.6617 10.7666L16.7034 10.7653V10.7653L16.6617 10.7666ZM16.3834 11.622L16.4164 11.6475L16.4164 11.6475L16.3834 11.622ZM15.3248 12.3183L15.3053 12.2815L15.3048 12.2818L15.3248 12.3183ZM14.9586 12.5185L14.9386 12.4819L14.9373 12.4827L14.9586 12.5185ZM14.733 12.6796L14.7049 12.6488L14.7034 12.6503L14.733 12.6796ZM14.6383 12.7753L14.6086 12.746L14.6073 12.7475L14.6383 12.7753ZM14.4166 13.1152L14.3787 13.098L14.3787 13.098L14.4166 13.1152ZM14.2565 13.789L14.2975 13.7964L14.2975 13.7962L14.2565 13.789ZM14.1783 14.2236L14.2193 14.2314L14.2193 14.231L14.1783 14.2236ZM13.9215 15.0117L13.9548 15.0368L13.9559 15.0351L13.9215 15.0117ZM13.8522 15.1035L13.8845 15.1298L13.8854 15.1286L13.8522 15.1035ZM13.194 15.54L13.2032 15.5807L13.2057 15.58L13.194 15.54ZM13.0865 15.5644L13.0935 15.6055L13.0958 15.605L13.0865 15.5644ZM11.9274 15.4804L11.9332 15.4392L11.9274 15.4804ZM11.2369 15.4248L11.2323 15.3833L11.2323 15.3833L11.2369 15.4248ZM10.7252 15.5917L10.7046 15.5555L10.7023 15.5569L10.7252 15.5917ZM10.6168 15.663L10.5939 15.6282L10.592 15.6296L10.6168 15.663ZM10.1988 16.0419L10.1699 16.012L10.1988 16.0419ZM9.20958 16.8349L9.22192 16.8748L9.22365 16.8741L9.20958 16.8349ZM9.09923 16.8691L9.10985 16.9094L9.11156 16.9089L9.09923 16.8691ZM8.42052 16.8691L8.40818 16.9089L8.40993 16.9094L8.42052 16.8691ZM8.31017 16.8349L8.2961 16.8742L8.29784 16.8747L8.31017 16.8349ZM7.63927 16.3476L7.61041 16.3777L7.61073 16.378L7.63927 16.3476ZM7.32091 16.0419L7.29194 16.0719L7.29206 16.072L7.32091 16.0419ZM6.79454 15.5917L6.81517 15.5556L6.81515 15.5555L6.79454 15.5917ZM6.28185 15.4248L6.28645 15.3833L6.28643 15.3833L6.28185 15.4248ZM5.5924 15.4804L5.59811 15.5217L5.59823 15.5217L5.5924 15.4804ZM5.1549 15.541L5.16014 15.5823L5.16061 15.5822L5.1549 15.541ZM4.32579 15.54L4.3141 15.58L4.31413 15.58L4.32579 15.54ZM3.66759 15.1035L3.63432 15.1286L3.63533 15.1298L3.66759 15.1035ZM3.59826 15.0117L3.56379 15.0352L3.56501 15.0368L3.59826 15.0117ZM3.34142 14.2236L3.30041 14.231L3.30049 14.2314L3.34142 14.2236ZM3.26329 13.789L3.22226 13.7962L3.22229 13.7964L3.26329 13.789ZM3.14904 13.2363L3.18886 13.2238L3.188 13.2215L3.14904 13.2363ZM3.10314 13.1152L3.14217 13.1004L3.1411 13.098L3.10314 13.1152ZM2.88146 12.7753L2.91255 12.7475L2.91092 12.7459L2.88146 12.7753ZM2.78576 12.6796L2.81525 12.6501L2.81381 12.6488L2.78576 12.6796ZM2.19493 12.3183L2.21446 12.2815L2.19493 12.3183ZM1.20763 11.705L1.17596 11.7322L1.17784 11.7342L1.20763 11.705ZM1.13634 11.622L1.10334 11.6475L1.10473 11.6492L1.13634 11.622ZM0.858021 10.7666L0.816376 10.7653L0.816376 10.7653L0.858021 10.7666ZM1.11388 9.97847L1.07638 9.96031L1.07619 9.96071L1.11388 9.97847ZM1.30626 9.58101L1.26883 9.56271L1.26876 9.56285L1.30626 9.58101ZM1.53771 9.06636L1.57727 9.07966L1.5779 9.07735L1.53771 9.06636ZM1.57189 8.94136L1.61216 8.95237L1.61269 8.94977L1.57189 8.94136ZM1.5924 8.53706L1.6339 8.53284L1.63358 8.53075L1.5924 8.53706ZM1.57189 8.40327L1.61313 8.39695L1.61269 8.39485L1.57189 8.40327ZM1.484 8.1396L1.52229 8.12312L1.52166 8.12179L1.484 8.1396ZM1.30626 7.76362L1.34393 7.74582L1.34369 7.74533L1.30626 7.76362ZM0.867786 6.68648L0.826227 6.69022L0.826562 6.69251L0.867786 6.68648ZM0.858021 6.57808L0.816301 6.57933L0.816525 6.58182L0.858021 6.57808ZM1.06993 5.81636L1.0359 5.79225L1.0349 5.79381L1.06993 5.81636ZM1.13634 5.72261L1.10336 5.6971L1.10234 5.69853L1.13634 5.72261ZM1.80626 5.23433L1.7866 5.19759L1.78621 5.19781L1.80626 5.23433ZM2.19493 5.02632L2.17541 4.98951L2.17528 4.98959L2.19493 5.02632ZM2.78576 4.66499L2.81381 4.69579L2.81382 4.69579L2.78576 4.66499ZM3.04064 4.34956L3.0767 4.37052L3.0776 4.36879L3.04064 4.34956ZM3.10314 4.22944L3.14015 4.2487L3.1411 4.24661L3.10314 4.22944ZM3.18615 3.9648L3.22681 3.97397L3.22709 3.97252L3.18615 3.9648ZM3.26329 3.55562L3.30424 3.56334L3.30433 3.56281L3.26329 3.55562ZM3.59826 2.33296L3.56383 2.30949L3.56383 2.30949L3.59826 2.33296ZM4.21642 1.84175L4.20302 1.80226L4.20131 1.80292L4.21642 1.84175ZM4.32579 1.80464L4.31411 1.76461L4.31241 1.76519L4.32579 1.80464ZM5.5924 1.86421L5.58656 1.90546L5.5924 1.86421ZM6.28185 1.9189L6.28643 1.96031L6.28645 1.96031L6.28185 1.9189ZM6.67345 1.81343L6.6903 1.85159L6.69208 1.85069L6.67345 1.81343ZM6.79454 1.75288L6.8132 1.7902L6.81517 1.78908L6.79454 1.75288ZM7.01818 1.58784L7.04569 1.61916L7.04674 1.61817L7.01818 1.58784ZM7.32091 1.30269L7.34948 1.33302L7.34988 1.33263L7.32091 1.30269ZM8.20958 0.552687L8.19319 0.514313L8.19111 0.515343L8.20958 0.552687ZM8.76134 15.3037L8.76027 15.3453H8.76134V15.3037ZM8.42052 15.2949L8.41841 15.3365L8.41945 15.3365L8.42052 15.2949ZM7.78478 15.5634L7.75581 15.5934H7.75581L7.78478 15.5634ZM8.31993 16.0634L8.29326 16.0954L8.29327 16.0954L8.31993 16.0634ZM8.53478 16.207L8.5207 16.2462L8.52073 16.2462L8.53478 16.207ZM8.98497 16.207L8.99903 16.2462L8.99908 16.2462L8.98497 16.207ZM9.19982 16.0634L9.22649 16.0954L9.2265 16.0954L9.19982 16.0634ZM9.73497 15.5634L9.76394 15.5934L9.73497 15.5634ZM3.92052 13.6738L3.87948 13.681L3.92052 13.6738ZM4.06017 14.3935L4.01978 14.4037L4.01978 14.4037L4.06017 14.3935ZM4.14904 14.6357L4.1146 14.6591L4.11462 14.6592L4.14904 14.6357ZM4.51329 14.9003L4.50161 14.9403L4.5017 14.9404L4.51329 14.9003ZM4.77111 14.9101L4.77387 14.9517H4.77388L4.77111 14.9101ZM5.49865 14.8203L5.50448 14.8615H5.50448L5.49865 14.8203ZM12.0211 14.8203L12.0153 14.8615L12.0211 14.8203ZM12.7486 14.9101L12.7459 14.9517L12.7459 14.9517L12.7486 14.9101ZM13.0065 14.9003L13.0181 14.9403L13.0181 14.9403L13.0065 14.9003ZM13.3707 14.6357L13.4051 14.6592L13.4052 14.6591L13.3707 14.6357ZM13.4596 14.3935L13.5 14.4037L13.5 14.4037L13.4596 14.3935ZM13.5992 13.6738L13.6403 13.681L13.5992 13.6738ZM8.76134 2.70894V2.66727H8.76134L8.76134 2.70894ZM2.79747 8.6728L2.75581 8.6728V8.6728H2.79747ZM8.76134 14.6367L8.76134 14.6783H8.76134V14.6367ZM14.7252 8.6728H14.7669V8.6728L14.7252 8.6728ZM8.75841 2.98921V2.94755H8.75841L8.75841 2.98921ZM14.442 8.6728H14.4837V8.6728L14.442 8.6728ZM8.75841 14.3564L8.75841 14.3981H8.75841V14.3564ZM3.07482 8.6728L3.03315 8.6728V8.6728H3.07482ZM1.9049 9.87398L1.86746 9.85568H1.86746L1.9049 9.87398ZM1.59435 10.538L1.55567 10.5226L1.55567 10.5226L1.59435 10.538ZM1.52404 10.7871L1.48239 10.7858L1.48239 10.7858L1.52404 10.7871ZM1.66368 11.2148L1.63073 11.2403L1.63079 11.2404L1.66368 11.2148ZM1.86583 11.374L1.84363 11.4092L1.84364 11.4092L1.86583 11.374ZM2.50743 11.7294L2.48791 11.7662H2.48791L2.50743 11.7294ZM15.0123 11.7294L15.0318 11.7662L15.0123 11.7294ZM15.6539 11.374L15.6761 11.4092L15.6761 11.4092L15.6539 11.374ZM15.8561 11.2148L15.889 11.2403L15.889 11.2403L15.8561 11.2148ZM15.9957 10.7871L16.0374 10.7858L16.0374 10.7858L15.9957 10.7871ZM15.9254 10.538L15.9641 10.5226L15.9641 10.5226L15.9254 10.538ZM15.6149 9.87398L15.6523 9.85568L15.6149 9.87398ZM2.50743 5.61519L2.48791 5.57838H2.48791L2.50743 5.61519ZM1.86583 5.97066L1.84364 5.9354L1.84363 5.9354L1.86583 5.97066ZM1.66368 6.12984L1.63076 6.10431L1.63073 6.10434L1.66368 6.12984ZM1.52404 6.55757L1.48239 6.5588L1.48239 6.55885L1.52404 6.55757ZM1.59435 6.80659L1.55567 6.82207L1.55567 6.82208L1.59435 6.80659ZM1.9049 7.47066L1.86746 7.48895L1.86747 7.48895L1.9049 7.47066ZM15.6149 7.47066L15.6523 7.48895V7.48895L15.6149 7.47066ZM15.9254 6.80659L15.9641 6.82207L15.9641 6.82207L15.9254 6.80659ZM15.9957 6.55757L16.0374 6.55885L16.0374 6.5588L15.9957 6.55757ZM15.8561 6.12984L15.889 6.10436L15.889 6.10431L15.8561 6.12984ZM15.6539 5.97066L15.6761 5.9354L15.6761 5.9354L15.6539 5.97066ZM15.0123 5.61519L15.0318 5.57838L15.0123 5.61519ZM4.51329 2.44429L4.50168 2.40428L4.50161 2.40429L4.51329 2.44429ZM4.14904 2.70894L4.11461 2.68547L4.1146 2.68549L4.14904 2.70894ZM4.06017 2.95112L4.01978 2.94091L4.01978 2.94091L4.06017 2.95112ZM3.92052 3.67085L3.87948 3.66365L3.87948 3.66365L3.92052 3.67085ZM5.49865 2.52437L5.50448 2.48311H5.50448L5.49865 2.52437ZM4.77111 2.43452L4.77388 2.39295L4.77387 2.39295L4.77111 2.43452ZM12.7486 2.43452L12.7459 2.39295L12.7459 2.39295L12.7486 2.43452ZM12.0211 2.52437L12.0153 2.48311L12.0211 2.52437ZM13.5992 3.67085L13.6403 3.66365V3.66365L13.5992 3.67085ZM13.4596 2.95112L13.5 2.94091L13.5 2.94091L13.4596 2.95112ZM13.3707 2.70894L13.4052 2.68553L13.4051 2.68547L13.3707 2.70894ZM13.0065 2.44429L13.0182 2.4043L13.0181 2.40429L13.0065 2.44429ZM8.98497 1.13765L8.9991 1.09845L8.99903 1.09843L8.98497 1.13765ZM8.53478 1.13765L8.52073 1.09842L8.5207 1.09844L8.53478 1.13765ZM8.31993 1.2812L8.29326 1.24919L8.29326 1.2492L8.31993 1.2812ZM7.78478 1.7812L7.75581 1.75126H7.75581L7.78478 1.7812ZM8.76134 2.04194L8.76242 2.00028H8.76134L8.76134 2.04194ZM9.10216 2.05073L9.10427 2.00911L9.10324 2.00908L9.10216 2.05073ZM9.73497 1.7812L9.76394 1.75126V1.75126L9.73497 1.7812ZM9.19982 1.2812L9.2265 1.2492L9.22649 1.24919L9.19982 1.2812ZM13.4695 4.00522L13.4991 3.97588L13.4695 4.00522ZM13.6425 3.91294L13.6835 3.90523L13.6425 3.91294ZM11.7771 2.55787L11.7718 2.51654L11.7771 2.55787ZM11.7427 2.75084L11.7615 2.71364L11.7427 2.75084ZM5.77741 2.75093L5.75863 2.71373L5.77741 2.75093ZM5.74295 2.55792L5.73769 2.59925L5.74295 2.55792ZM3.87644 3.91579L3.83552 3.908L3.87644 3.91579ZM15.3146 7.66211L15.3558 7.65582L15.3146 7.66211ZM15.5085 7.68948L15.4709 7.67158L15.5085 7.68948ZM14.657 5.63627L14.694 5.61717L14.657 5.63627ZM14.7978 5.50043L14.8178 5.46388L14.7978 5.50043ZM11.744 14.5934L11.7252 14.5562L11.744 14.5934ZM11.7782 14.7866L11.7836 14.7453L11.7782 14.7866ZM15.3147 9.68215L15.2735 9.67587L15.3147 9.68215ZM15.5085 9.65484L15.4708 9.67271L15.5085 9.65484ZM2.01218 7.69223L1.9745 7.71003L2.01218 7.69223ZM2.20661 9.67959L2.2478 9.67331L2.20661 9.67959ZM13.469 13.34L13.4986 13.3693L13.469 13.34ZM13.6422 13.4322L13.6013 13.4246L13.6422 13.4322ZM2.72503 11.8458L2.70504 11.8824L2.72503 11.8458ZM2.86671 11.7092L2.90372 11.6901L2.86671 11.7092ZM2.72492 5.49858L2.70487 5.46206L2.72492 5.49858ZM2.86647 5.63482L2.90349 5.65394L2.86647 5.63482ZM7.60589 1.95278L7.63442 1.98314L7.60589 1.95278ZM5.74224 14.7865L5.7476 14.8278L5.74224 14.7865ZM5.77655 14.5932L5.75777 14.6304L5.77655 14.5932ZM7.69301 15.2169L7.68628 15.258L7.69301 15.2169ZM7.60738 15.3929L7.57878 15.4232L7.60738 15.3929ZM9.82813 2.12917L9.8349 2.08806L9.82813 2.12917ZM9.91379 1.95298L9.94236 1.92266L9.91379 1.95298ZM14.658 11.7077L14.621 11.6886L14.658 11.7077ZM14.7987 11.8435L14.7787 11.807L14.7987 11.8435ZM3.87672 13.4297L3.83579 13.4375L3.87672 13.4297ZM4.05017 13.3371L4.02057 13.3664L4.05017 13.3371ZM9.82648 15.2166L9.81976 15.1755L9.82648 15.2166ZM9.91226 15.3927L9.88362 15.3625L9.91226 15.3927ZM8.31017 0.509718L8.32421 0.548943C8.6058 0.448111 8.91397 0.448073 9.19553 0.548941L9.20958 0.509718L9.22363 0.470495C8.92389 0.363116 8.59587 0.36316 8.29612 0.470493L8.31017 0.509718ZM9.20958 0.509718L9.19551 0.548935C9.32423 0.595113 9.44749 0.674129 9.59935 0.800838C9.75154 0.927826 9.92996 1.10054 10.1699 1.33263L10.1988 1.30269L10.2278 1.27274C9.98881 1.04153 9.80783 0.866271 9.65273 0.736858C9.4973 0.607167 9.36539 0.521351 9.22365 0.470501L9.20958 0.509718ZM10.1988 1.30269L10.1699 1.33263C10.4212 1.57581 10.5528 1.70265 10.7046 1.78909L10.7252 1.75288L10.7458 1.71668C10.6053 1.63664 10.4821 1.51876 10.2278 1.27274L10.1988 1.30269ZM10.7252 1.75288L10.7046 1.7891C10.867 1.88147 11.0467 1.93962 11.2323 1.96031L11.2369 1.9189L11.2415 1.87749C11.0671 1.85805 10.8983 1.80342 10.7458 1.71667L10.7252 1.75288ZM11.2369 1.9189L11.2323 1.96031C11.3195 1.96998 11.4085 1.96857 11.5181 1.95843L11.5143 1.91694L11.5104 1.87546C11.4043 1.88528 11.3213 1.88633 11.2415 1.87749L11.2369 1.9189ZM11.5143 1.91694L11.5195 1.95827L11.9326 1.90554L11.9274 1.86421L11.9221 1.82288L11.509 1.87562L11.5143 1.91694ZM11.9274 1.86421L11.9332 1.90546C12.2637 1.85871 12.5096 1.82396 12.7074 1.81079C12.9048 1.79765 13.051 1.80629 13.1823 1.84463L13.194 1.80464L13.2056 1.76465C13.0611 1.72243 12.9039 1.71419 12.7019 1.72764C12.5003 1.74107 12.2508 1.77638 11.9215 1.82296L11.9274 1.86421ZM13.194 1.80464L13.1823 1.84463C13.4693 1.9286 13.7186 2.10943 13.8871 2.35643L13.9215 2.33296L13.9559 2.30949C13.7766 2.04649 13.5111 1.85402 13.2057 1.76465L13.194 1.80464ZM13.9215 2.33296L13.8871 2.35642C13.9641 2.46946 14.0175 2.60578 14.0661 2.79745C14.1147 2.98954 14.1578 3.23406 14.2154 3.56281L14.2565 3.55562L14.2975 3.54842C14.24 3.22085 14.1965 2.97278 14.1469 2.77699C14.0972 2.58078 14.0407 2.43393 13.9559 2.3095L13.9215 2.33296ZM14.2565 3.55562L14.2154 3.56281C14.2758 3.90727 14.3066 4.08738 14.3787 4.24661L14.4166 4.22944L14.4546 4.21227C14.3879 4.06492 14.3587 3.89734 14.2975 3.54842L14.2565 3.55562ZM14.4166 4.22944L14.3787 4.24663C14.4557 4.41688 14.5669 4.56985 14.7049 4.69578L14.733 4.66499L14.7611 4.63421C14.6314 4.51591 14.527 4.3722 14.4546 4.21226L14.4166 4.22944ZM14.733 4.66499L14.705 4.6958C14.8341 4.81342 14.9963 4.89916 15.3053 5.06312L15.3248 5.02632L15.3443 4.98952C15.0315 4.82352 14.8806 4.74308 14.7611 4.63419L14.733 4.66499ZM15.3248 5.02632L15.3053 5.06312C15.6001 5.21952 15.8192 5.33595 15.9866 5.44156C16.1538 5.54694 16.2668 5.6399 16.3505 5.7481L16.3834 5.72261L16.4164 5.69712C16.3243 5.57804 16.2022 5.47897 16.0311 5.37108C15.8604 5.26342 15.6381 5.14535 15.3443 4.98952L15.3248 5.02632ZM16.3834 5.72261L16.3504 5.74809C16.5334 5.98482 16.6291 6.27785 16.6201 6.57683L16.6617 6.57808L16.7034 6.57933C16.7129 6.26096 16.6111 5.94906 16.4164 5.69713L16.3834 5.72261ZM16.6617 6.57808L16.6202 6.57434L16.6105 6.68274L16.652 6.68648L16.6935 6.69021L16.7032 6.58182L16.6617 6.57808ZM16.652 6.68648L16.6107 6.68044C16.5742 6.93036 16.4337 7.21833 16.1761 7.74533L16.2135 7.76362L16.2509 7.78192C16.5057 7.2608 16.6542 6.95856 16.6932 6.69251L16.652 6.68648ZM16.2135 7.76362L16.1758 7.74582L15.9981 8.12179L16.0358 8.1396L16.0734 8.15741L16.2512 7.78143L16.2135 7.76362ZM16.0358 8.1396L15.9975 8.12312C15.9538 8.22449 15.9248 8.30868 15.9071 8.39485L15.9479 8.40327L15.9887 8.41169C16.0049 8.33291 16.0317 8.25435 16.074 8.15608L16.0358 8.1396ZM15.9479 8.40327L15.9067 8.39696L15.8862 8.53075L15.9274 8.53706L15.9685 8.54337L15.989 8.40959L15.9479 8.40327ZM15.9274 8.53706L15.8859 8.53284C15.8718 8.67177 15.8788 8.81244 15.9071 8.94977L15.9479 8.94136L15.9887 8.93295C15.9621 8.80397 15.9555 8.67182 15.9688 8.54128L15.9274 8.53706ZM15.9479 8.94136L15.9071 8.94979C15.9424 9.12082 16.0225 9.28509 16.1761 9.5993L16.2135 9.58101L16.2509 9.56271C16.0955 9.24479 16.0214 9.0913 15.9887 8.93293L15.9479 8.94136ZM16.2135 9.58101L16.1761 9.5993C16.3226 9.89916 16.4317 10.1221 16.5054 10.306C16.5789 10.4895 16.616 10.6311 16.6201 10.7678L16.6617 10.7666L16.7034 10.7653C16.6988 10.6148 16.658 10.4629 16.5828 10.275C16.5077 10.0876 16.3969 9.86143 16.2509 9.56271L16.2135 9.58101ZM16.6617 10.7666L16.6201 10.7678C16.629 11.0668 16.5335 11.3598 16.3505 11.5965L16.3834 11.622L16.4164 11.6475C16.6112 11.3956 16.7129 11.0837 16.7034 10.7653L16.6617 10.7666ZM16.3834 11.622L16.3505 11.5965C16.2668 11.7047 16.1538 11.7977 15.9867 11.9031C15.8192 12.0087 15.6001 12.1251 15.3053 12.2815L15.3248 12.3183L15.3443 12.3551C15.6381 12.1993 15.8604 12.0812 16.0311 11.9735C16.2022 11.8657 16.3243 11.7666 16.4164 11.6475L16.3834 11.622ZM15.3248 12.3183L15.3048 12.2818L14.9386 12.4819L14.9586 12.5185L14.9786 12.5551L15.3448 12.3549L15.3248 12.3183ZM14.9586 12.5185L14.9373 12.4827C14.8428 12.5388 14.7699 12.5897 14.705 12.6488L14.733 12.6796L14.7611 12.7104C14.8204 12.6564 14.8882 12.6088 14.9799 12.5543L14.9586 12.5185ZM14.733 12.6796L14.7034 12.6503L14.6087 12.746L14.6383 12.7753L14.6679 12.8047L14.7626 12.7089L14.733 12.6796ZM14.6383 12.7753L14.6073 12.7475C14.5139 12.8518 14.4366 12.9699 14.3787 13.098L14.4166 13.1152L14.4546 13.1324C14.509 13.0121 14.5816 12.9011 14.6693 12.8031L14.6383 12.7753ZM14.4166 13.1152L14.3787 13.098C14.3066 13.2573 14.2759 13.4372 14.2154 13.7818L14.2565 13.789L14.2975 13.7962C14.3587 13.4472 14.3879 13.2797 14.4546 13.1324L14.4166 13.1152ZM14.2565 13.789L14.2155 13.7816L14.1373 14.2162L14.1783 14.2236L14.2193 14.231L14.2975 13.7964L14.2565 13.789ZM14.1783 14.2236L14.1374 14.2158C14.065 14.5965 14.003 14.8181 13.8871 14.9882L13.9215 15.0117L13.9559 15.0351C14.0828 14.849 14.147 14.6114 14.2193 14.2314L14.1783 14.2236ZM13.9215 15.0117L13.8883 14.9866L13.8189 15.0784L13.8522 15.1035L13.8854 15.1286L13.9547 15.0368L13.9215 15.0117ZM13.8522 15.1035L13.8199 15.0771C13.6554 15.2785 13.4334 15.4265 13.1823 15.5L13.194 15.54L13.2057 15.58C13.4731 15.5018 13.7094 15.3442 13.8844 15.1298L13.8522 15.1035ZM13.194 15.54L13.1847 15.4994L13.0773 15.5238L13.0865 15.5644L13.0958 15.605L13.2032 15.5806L13.194 15.54ZM13.0865 15.5644L13.0796 15.5233C12.8307 15.5656 12.5134 15.5212 11.9332 15.4392L11.9274 15.4804L11.9215 15.5217C12.4953 15.6028 12.8286 15.6505 13.0935 15.6055L13.0865 15.5644ZM11.9274 15.4804L11.9332 15.4392C11.587 15.3902 11.4059 15.3641 11.2323 15.3833L11.2369 15.4248L11.2415 15.4662C11.4022 15.4483 11.571 15.4721 11.9215 15.5217L11.9274 15.4804ZM11.2369 15.4248L11.2323 15.3833C11.0465 15.404 10.8669 15.4632 10.7046 15.5555L10.7252 15.5917L10.7458 15.628C10.8985 15.5411 11.0672 15.4856 11.2415 15.4662L11.2369 15.4248ZM10.7252 15.5917L10.7023 15.5569L10.5939 15.6282L10.6168 15.663L10.6397 15.6978L10.7481 15.6266L10.7252 15.5917ZM10.6168 15.663L10.592 15.6296C10.4802 15.7126 10.3589 15.8291 10.1699 16.012L10.1988 16.0419L10.2278 16.0719C10.4183 15.8876 10.5352 15.7755 10.6416 15.6965L10.6168 15.663ZM10.1988 16.0419L10.1699 16.012C9.92993 16.2441 9.75152 16.4168 9.59934 16.5438C9.4475 16.6705 9.32426 16.7495 9.19552 16.7957L9.20958 16.8349L9.22365 16.8741C9.36541 16.8233 9.49731 16.7375 9.65273 16.6078C9.80781 16.4784 9.98878 16.3031 10.2278 16.0719L10.1988 16.0419ZM9.20958 16.8349L9.19726 16.7951L9.0869 16.8293L9.09923 16.8691L9.11156 16.9089L9.22191 16.8747L9.20958 16.8349ZM9.09923 16.8691L9.08863 16.8288C8.87328 16.8855 8.64649 16.8854 8.43112 16.8288L8.42052 16.8691L8.40993 16.9094C8.63918 16.9697 8.88058 16.9697 9.10984 16.9094L9.09923 16.8691ZM8.42052 16.8691L8.43285 16.8293L8.3225 16.7951L8.31017 16.8349L8.29784 16.8747L8.40819 16.9089L8.42052 16.8691ZM8.31017 16.8349L8.32423 16.7957C8.13042 16.7262 7.95036 16.5829 7.66781 16.3173L7.63927 16.3476L7.61073 16.378C7.89261 16.6429 8.08403 16.7981 8.29611 16.8741L8.31017 16.8349ZM7.63927 16.3476L7.66813 16.3176L7.34977 16.0119L7.32091 16.0419L7.29206 16.072L7.61042 16.3777L7.63927 16.3476ZM7.32091 16.0419L7.34988 16.012C7.09847 15.7688 6.96689 15.642 6.81517 15.5556L6.79454 15.5917L6.77392 15.6279C6.91442 15.708 7.03762 15.8259 7.29194 16.0719L7.32091 16.0419ZM6.79454 15.5917L6.81515 15.5555C6.65268 15.4631 6.47239 15.404 6.28645 15.3833L6.28185 15.4248L6.27724 15.4662C6.45178 15.4856 6.6212 15.541 6.77394 15.628L6.79454 15.5917ZM6.28185 15.4248L6.28643 15.3833C6.11296 15.3642 5.93232 15.3903 5.58656 15.4392L5.5924 15.4804L5.59823 15.5217C5.94837 15.4721 6.11671 15.4484 6.27727 15.4662L6.28185 15.4248ZM5.5924 15.4804L5.58668 15.4392L5.14918 15.4997L5.1549 15.541L5.16061 15.5822L5.59811 15.5217L5.5924 15.4804ZM5.1549 15.541L5.14965 15.4996C4.76516 15.5484 4.53512 15.5577 4.33746 15.5L4.32579 15.54L4.31413 15.58C4.53029 15.6431 4.77628 15.631 5.16014 15.5823L5.1549 15.541ZM4.32579 15.54L4.33749 15.5C4.08634 15.4266 3.86437 15.2785 3.69986 15.0771L3.66759 15.1035L3.63533 15.1298C3.8104 15.3441 4.04667 15.5018 4.3141 15.58L4.32579 15.54ZM3.66759 15.1035L3.70084 15.0784L3.6315 14.9866L3.59826 15.0117L3.56501 15.0368L3.63435 15.1286L3.66759 15.1035ZM3.59826 15.0117L3.63268 14.9882C3.51674 14.8181 3.45477 14.5965 3.38235 14.2158L3.34142 14.2236L3.30049 14.2314C3.37277 14.6113 3.43699 14.8491 3.56383 15.0351L3.59826 15.0117ZM3.34142 14.2236L3.38243 14.2162L3.3043 13.7816L3.26329 13.789L3.22229 13.7964L3.30041 14.231L3.34142 14.2236ZM3.26329 13.789L3.30433 13.7818C3.25894 13.523 3.23047 13.3568 3.18879 13.2238L3.14904 13.2363L3.10928 13.2487C3.14892 13.3752 3.1764 13.5348 3.22226 13.7962L3.26329 13.789ZM3.14904 13.2363L3.188 13.2215L3.1421 13.1004L3.10314 13.1152L3.06418 13.13L3.11008 13.251L3.14904 13.2363ZM3.10314 13.1152L3.1411 13.098C3.08318 12.97 3.0058 12.8518 2.9125 12.7476L2.88146 12.7753L2.85042 12.8031C2.93812 12.9011 3.0108 13.0122 3.06518 13.1324L3.10314 13.1152ZM2.88146 12.7753L2.91092 12.7459L2.81522 12.6502L2.78576 12.6796L2.75629 12.7091L2.852 12.8048L2.88146 12.7753ZM2.78576 12.6796L2.81381 12.6488C2.68467 12.5312 2.52354 12.4455 2.21446 12.2815L2.19493 12.3183L2.17541 12.3551C2.48813 12.521 2.63812 12.6015 2.7577 12.7104L2.78576 12.6796ZM2.19493 12.3183L2.21446 12.2815C1.69663 12.0068 1.41392 11.8565 1.23743 11.6759L1.20763 11.705L1.17784 11.7342C1.36571 11.9264 1.66334 12.0834 2.17541 12.3551L2.19493 12.3183ZM1.20763 11.705L1.23924 11.6779L1.16795 11.5949L1.13634 11.622L1.10473 11.6492L1.17602 11.7322L1.20763 11.705ZM1.13634 11.622L1.1693 11.5965C0.986252 11.3598 0.890717 11.0668 0.899666 10.7678L0.858021 10.7666L0.816376 10.7653C0.806847 11.0837 0.908566 11.3956 1.10338 11.6475L1.13634 11.622ZM0.858021 10.7666L0.899666 10.7678C0.905878 10.562 0.986289 10.347 1.15157 9.99623L1.11388 9.97847L1.07619 9.96071C0.911288 10.3107 0.823174 10.5401 0.816376 10.7653L0.858021 10.7666ZM1.11388 9.97847L1.15138 9.99662L1.34376 9.59916L1.30626 9.58101L1.26876 9.56285L1.07638 9.96032L1.11388 9.97847ZM1.30626 9.58101L1.34369 9.5993C1.4592 9.363 1.53281 9.21167 1.5772 9.07963L1.53771 9.06636L1.49822 9.05308C1.45597 9.17877 1.38529 9.32447 1.26883 9.56271L1.30626 9.58101ZM1.53771 9.06636L1.5779 9.07735L1.61208 8.95235L1.57189 8.94136L1.5317 8.93037L1.49752 9.05537L1.53771 9.06636ZM1.57189 8.94136L1.61269 8.94977C1.64099 8.81245 1.64799 8.67175 1.63385 8.53284L1.5924 8.53706L1.55095 8.54128C1.56424 8.6718 1.55766 8.80399 1.53108 8.93295L1.57189 8.94136ZM1.5924 8.53706L1.63358 8.53075L1.61307 8.39696L1.57189 8.40327L1.53071 8.40959L1.55121 8.54337L1.5924 8.53706ZM1.57189 8.40327L1.61269 8.39485C1.59491 8.30872 1.56587 8.22441 1.52227 8.12313L1.484 8.1396L1.44573 8.15608C1.48801 8.25428 1.51483 8.33295 1.53108 8.41169L1.57189 8.40327ZM1.484 8.1396L1.52166 8.12179L1.34393 7.74582L1.30626 7.76362L1.2686 7.78143L1.44633 8.15741L1.484 8.1396ZM1.30626 7.76362L1.34369 7.74533C1.0861 7.21837 0.945607 6.93035 0.909011 6.68044L0.867786 6.68648L0.826562 6.69251C0.865519 6.95855 1.01411 7.26084 1.26883 7.78192L1.30626 7.76362ZM0.867786 6.68648L0.909282 6.68274L0.899517 6.57434L0.858021 6.57808L0.816525 6.58182L0.826291 6.69021L0.867786 6.68648ZM0.858021 6.57808L0.899666 6.57683C0.891802 6.31499 0.964077 6.05778 1.10497 5.83891L1.06993 5.81636L1.0349 5.79381C0.884959 6.02673 0.808002 6.30052 0.816376 6.57933L0.858021 6.57808ZM1.06993 5.81636L1.10393 5.84044L1.17034 5.74669L1.13634 5.72261L1.10234 5.69853L1.03594 5.79228L1.06993 5.81636ZM1.13634 5.72261L1.1693 5.7481C1.29533 5.58515 1.48639 5.45748 1.82631 5.27085L1.80626 5.23433L1.78621 5.19781C1.44679 5.38416 1.24121 5.51892 1.10338 5.69712L1.13634 5.72261ZM1.80626 5.23433L1.82592 5.27106L2.21459 5.06305L2.19493 5.02632L2.17528 4.98959L1.7866 5.19759L1.80626 5.23433ZM2.19493 5.02632L2.21446 5.06312C2.5236 4.8991 2.68466 4.81344 2.81381 4.69579L2.78576 4.66499L2.7577 4.63419C2.63811 4.74313 2.48819 4.82356 2.17541 4.98952L2.19493 5.02632ZM2.78576 4.66499L2.81382 4.69579C2.91762 4.6012 3.00632 4.49151 3.07666 4.3705L3.04064 4.34956L3.00462 4.32862C2.93858 4.44224 2.85526 4.54529 2.75769 4.63419L2.78576 4.66499ZM3.04064 4.34956L3.0776 4.36879L3.1401 4.24868L3.10314 4.22944L3.06618 4.21021L3.00368 4.33033L3.04064 4.34956ZM3.10314 4.22944L3.1411 4.24661C3.17741 4.16635 3.2026 4.08122 3.22679 3.97396L3.18615 3.9648L3.1455 3.95563C3.12193 4.06014 3.09823 4.13921 3.06518 4.21227L3.10314 4.22944ZM3.18615 3.9648L3.22709 3.97252L3.30424 3.56334L3.26329 3.55562L3.22235 3.5479L3.1452 3.95708L3.18615 3.9648ZM3.26329 3.55562L3.30433 3.56281C3.36202 3.23397 3.405 2.98946 3.45365 2.79739C3.50218 2.60575 3.55563 2.46948 3.63268 2.35643L3.59826 2.33296L3.56383 2.30949C3.47901 2.43393 3.42256 2.58074 3.37287 2.77693C3.32329 2.9727 3.27973 3.22077 3.22226 3.54842L3.26329 3.55562ZM3.59826 2.33296L3.63268 2.35643C3.78008 2.14029 3.98929 1.97483 4.23153 1.88058L4.21642 1.84175L4.20131 1.80292C3.94348 1.90324 3.72077 2.07936 3.56383 2.30949L3.59826 2.33296ZM4.21642 1.84175L4.22981 1.8812L4.33918 1.84409L4.32579 1.80464L4.31241 1.76519L4.20303 1.80229L4.21642 1.84175ZM4.32579 1.80464L4.33747 1.84464C4.46877 1.80631 4.61498 1.79767 4.81233 1.81081C5.01012 1.82397 5.25603 1.85871 5.58656 1.90546L5.5924 1.86421L5.59823 1.82296C5.26892 1.77638 5.01945 1.74108 4.81787 1.72766C4.61585 1.71422 4.45867 1.72246 4.31412 1.76464L4.32579 1.80464ZM5.5924 1.86421L5.58656 1.90546C5.93256 1.9544 6.11299 1.9795 6.28643 1.96031L6.28185 1.9189L6.27727 1.87749C6.11664 1.89526 5.94821 1.87246 5.59823 1.82296L5.5924 1.86421ZM6.28185 1.9189L6.28645 1.96031C6.42593 1.9448 6.56237 1.90802 6.69028 1.85154L6.67345 1.81343L6.65662 1.77532C6.5365 1.82835 6.40829 1.86292 6.27724 1.87749L6.28185 1.9189ZM6.67345 1.81343L6.69208 1.85069L6.81318 1.79015L6.79454 1.75288L6.77591 1.71562L6.65482 1.77616L6.67345 1.81343ZM6.79454 1.75288L6.81517 1.78908C6.89161 1.74554 6.96272 1.69202 7.04567 1.61914L7.01818 1.58784L6.99068 1.55654C6.91029 1.62716 6.84385 1.67685 6.77392 1.71668L6.79454 1.75288ZM7.01818 1.58784L7.04674 1.61817L7.34948 1.33301L7.32091 1.30269L7.29234 1.27236L6.98961 1.55751L7.01818 1.58784ZM7.32091 1.30269L7.34988 1.33263C7.77154 0.92472 8.00166 0.702034 8.22806 0.590031L8.20958 0.552687L8.19111 0.515343C7.95008 0.634583 7.70884 0.86943 7.29194 1.27274L7.32091 1.30269ZM8.20958 0.552687L8.22595 0.591001L8.32654 0.548032L8.31017 0.509718L8.2938 0.471404L8.19322 0.514372L8.20958 0.552687ZM9.82648 15.2166L9.81976 15.1755C9.47514 15.2318 9.12168 15.262 8.76134 15.262V15.3037V15.3453C9.12634 15.3453 9.48429 15.3148 9.83321 15.2577L9.82648 15.2166ZM8.76134 15.3037L8.76242 15.262L8.4216 15.2532L8.42052 15.2949L8.41945 15.3365L8.76027 15.3453L8.76134 15.3037ZM8.42052 15.2949L8.42263 15.2533C8.17785 15.2409 7.93671 15.2146 7.69974 15.1758L7.69301 15.2169L7.68628 15.258C7.92623 15.2973 8.17045 15.3239 8.41841 15.3365L8.42052 15.2949ZM7.60738 15.3929L7.57878 15.4232C7.63633 15.4775 7.69478 15.5343 7.75581 15.5934L7.78478 15.5634L7.81375 15.5335C7.75293 15.4747 7.694 15.4174 7.63598 15.3626L7.60738 15.3929ZM7.78478 15.5634L7.75581 15.5934C8.00145 15.831 8.16178 15.9858 8.29326 16.0954L8.31993 16.0634L8.34661 16.0314C8.21808 15.9243 8.06037 15.7721 7.81375 15.5335L7.78478 15.5634ZM8.31993 16.0634L8.29327 16.0954C8.41942 16.2005 8.48274 16.2326 8.5207 16.2462L8.53478 16.207L8.54886 16.1678C8.52396 16.1588 8.46931 16.1336 8.3466 16.0314L8.31993 16.0634ZM8.53478 16.207L8.52073 16.2462C8.67517 16.3015 8.84458 16.3016 8.99903 16.2462L8.98497 16.207L8.97092 16.1678C8.83466 16.2166 8.68512 16.2166 8.54882 16.1678L8.53478 16.207ZM8.98497 16.207L8.99908 16.2462C9.03708 16.2325 9.10041 16.2005 9.22649 16.0954L9.19982 16.0634L9.17315 16.0314C9.05056 16.1336 8.99585 16.1588 8.97087 16.1678L8.98497 16.207ZM9.19982 16.0634L9.2265 16.0954C9.35799 15.9858 9.51823 15.8311 9.76394 15.5934L9.73497 15.5634L9.70601 15.5335C9.45931 15.7721 9.3017 15.9242 9.17314 16.0314L9.19982 16.0634ZM9.73497 15.5634L9.76394 15.5934C9.82504 15.5343 9.88341 15.4774 9.9409 15.423L9.91226 15.3927L9.88362 15.3625C9.8257 15.4173 9.76681 15.4747 9.70601 15.5335L9.73497 15.5634ZM3.87672 13.4297L3.83579 13.4375C3.85062 13.5158 3.86469 13.5967 3.87948 13.681L3.92052 13.6738L3.96156 13.6666C3.94681 13.5825 3.93263 13.5009 3.91766 13.422L3.87672 13.4297ZM3.92052 13.6738L3.87948 13.681C3.93864 14.0182 3.97778 14.2377 4.01978 14.4037L4.06017 14.3935L4.10056 14.3833C4.0595 14.2209 4.02092 14.005 3.96156 13.6666L3.92052 13.6738ZM4.06017 14.3935L4.01978 14.4037C4.06003 14.5628 4.09183 14.6257 4.1146 14.6591L4.14904 14.6357L4.18347 14.6122C4.16865 14.5905 4.13981 14.5384 4.10056 14.3833L4.06017 14.3935ZM4.14904 14.6357L4.11462 14.6592C4.20706 14.7947 4.34412 14.8943 4.50161 14.9403L4.51329 14.9003L4.52497 14.8603C4.38603 14.8198 4.26504 14.7318 4.18345 14.6122L4.14904 14.6357ZM4.51329 14.9003L4.5017 14.9404C4.5406 14.9516 4.61058 14.9625 4.77387 14.9517L4.77111 14.9101L4.76834 14.8685C4.6093 14.8791 4.55038 14.8677 4.52489 14.8603L4.51329 14.9003ZM4.77111 14.9101L4.77388 14.9517C4.94477 14.9403 5.16564 14.9094 5.50448 14.8615L5.49865 14.8203L5.49281 14.779C5.15269 14.8271 4.93542 14.8574 4.76833 14.8685L4.77111 14.9101ZM5.49865 14.8203L5.50448 14.8615C5.58859 14.8496 5.66919 14.838 5.7476 14.8278L5.74224 14.7865L5.73688 14.7452C5.65785 14.7554 5.57656 14.7672 5.49281 14.779L5.49865 14.8203ZM5.77655 14.5932L5.79533 14.556C5.15687 14.2336 4.57804 13.8109 4.07977 13.3078L4.05017 13.3371L4.02057 13.3664C4.52511 13.8759 5.11124 14.3039 5.75777 14.6304L5.77655 14.5932ZM13.469 13.34L13.4394 13.3106C12.9414 13.8128 12.3631 14.2345 11.7252 14.5562L11.744 14.5934L11.7628 14.6306C12.4087 14.3048 12.9942 13.8778 13.4986 13.3693L13.469 13.34ZM11.7782 14.7866L11.7728 14.8279C11.851 14.838 11.9314 14.8497 12.0153 14.8615L12.0211 14.8203L12.0269 14.779C11.9435 14.7672 11.8624 14.7555 11.7836 14.7453L11.7782 14.7866ZM12.0211 14.8203L12.0153 14.8615C12.3541 14.9094 12.575 14.9403 12.7459 14.9517L12.7486 14.9101L12.7514 14.8685C12.5843 14.8574 12.3671 14.8271 12.0269 14.779L12.0211 14.8203ZM12.7486 14.9101L12.7459 14.9517C12.9095 14.9625 12.9793 14.9517 13.0181 14.9403L13.0065 14.9003L12.9948 14.8603C12.9695 14.8677 12.9108 14.8791 12.7514 14.8685L12.7486 14.9101ZM13.0065 14.9003L13.0181 14.9403C13.1756 14.8943 13.3127 14.7948 13.4051 14.6592L13.3707 14.6357L13.3363 14.6122C13.2547 14.7319 13.1337 14.8197 12.9948 14.8604L13.0065 14.9003ZM13.3707 14.6357L13.4052 14.6591C13.4279 14.6257 13.4597 14.5629 13.5 14.4037L13.4596 14.3935L13.4192 14.3833C13.3799 14.5384 13.3511 14.5905 13.3363 14.6122L13.3707 14.6357ZM13.4596 14.3935L13.5 14.4037C13.542 14.2377 13.5811 14.0182 13.6403 13.681L13.5992 13.6738L13.5582 13.6666C13.4988 14.005 13.4603 14.2209 13.4192 14.3833L13.4596 14.3935ZM13.5992 13.6738L13.6403 13.681C13.6549 13.5975 13.6687 13.5174 13.6832 13.4399L13.6422 13.4322L13.6013 13.4246C13.5867 13.5027 13.5728 13.5835 13.5582 13.6666L13.5992 13.6738ZM8.76134 2.70894L8.76134 2.66727C5.44459 2.66741 2.75596 5.35606 2.75581 8.6728L2.79747 8.6728L2.83914 8.67281C2.83928 5.40208 5.49061 2.75074 8.76134 2.7506L8.76134 2.70894ZM2.79747 8.6728H2.75581C2.75582 11.9897 5.44451 14.6782 8.76134 14.6783L8.76134 14.6367L8.76134 14.595C5.49053 14.5949 2.83915 11.9436 2.83914 8.6728H2.79747ZM8.76134 14.6367V14.6783C12.0783 14.6783 14.7669 11.9897 14.7669 8.6728H14.7252H14.6835C14.6835 11.9437 12.0323 14.595 8.76134 14.595V14.6367ZM14.7252 8.6728L14.7669 8.6728C14.7667 5.35598 12.0782 2.66728 8.76134 2.66727V2.70894V2.7506C12.0322 2.75061 14.6834 5.402 14.6835 8.67281L14.7252 8.6728ZM8.75841 2.98921V3.03087C11.8743 3.03087 14.4002 5.557 14.4003 8.67281L14.442 8.6728L14.4837 8.6728C14.4835 5.51098 11.9203 2.94755 8.75841 2.94755V2.98921ZM14.442 8.6728H14.4003C14.4003 11.7887 11.8744 14.3147 8.75841 14.3147V14.3564V14.3981C11.9204 14.3981 14.4837 11.8348 14.4837 8.6728H14.442ZM8.75841 14.3564L8.75841 14.3147C5.64267 14.3145 3.11648 11.7886 3.11648 8.6728H3.07482H3.03315C3.03315 11.8346 5.59665 14.3978 8.75841 14.3981L8.75841 14.3564ZM3.07482 8.6728L3.11648 8.67281C3.11664 5.55714 5.64277 3.03111 8.75841 3.03087L8.75841 2.98921L8.75841 2.94755C5.59675 2.94778 3.03331 5.51112 3.03315 8.6728L3.07482 8.6728ZM2.01175 9.6526L1.97404 9.63488C1.94046 9.70635 1.90471 9.7795 1.86746 9.85568L1.9049 9.87398L1.94233 9.89227C1.97951 9.81621 2.01556 9.74247 2.04946 9.67032L2.01175 9.6526ZM1.9049 9.87398L1.86746 9.85568C1.71716 10.1631 1.61932 10.3635 1.55567 10.5226L1.59435 10.538L1.63303 10.5535C1.69525 10.398 1.79141 10.201 1.94233 9.89227L1.9049 9.87398ZM1.59435 10.538L1.55567 10.5226C1.49456 10.6753 1.4836 10.7455 1.48239 10.7858L1.52404 10.7871L1.56568 10.7883C1.56647 10.7619 1.57358 10.7021 1.63303 10.5535L1.59435 10.538ZM1.52404 10.7871L1.48239 10.7858C1.47759 10.9498 1.53047 11.1107 1.63073 11.2403L1.66368 11.2148L1.69664 11.1893C1.60807 11.0748 1.56145 10.9328 1.56568 10.7883L1.52404 10.7871ZM1.66368 11.2148L1.63079 11.2404C1.6556 11.2723 1.70536 11.3222 1.84363 11.4092L1.86583 11.374L1.88804 11.3387C1.75353 11.254 1.7129 11.2102 1.69658 11.1892L1.66368 11.2148ZM1.86583 11.374L1.84364 11.4092C1.98858 11.5005 2.18548 11.6058 2.48791 11.7662L2.50743 11.7294L2.52696 11.6926C2.22351 11.5316 2.02977 11.4279 1.88803 11.3387L1.86583 11.374ZM2.50743 11.7294L2.48791 11.7662C2.56319 11.8062 2.63546 11.8443 2.70504 11.8824L2.72503 11.8458L2.74501 11.8093C2.67485 11.7709 2.60198 11.7324 2.52696 11.6926L2.50743 11.7294ZM2.86671 11.7092L2.90372 11.6901C2.58276 11.0688 2.35722 10.3902 2.2478 9.67331L2.20661 9.67959L2.16542 9.68588C2.27624 10.4119 2.50467 11.0992 2.82969 11.7284L2.86671 11.7092ZM15.3147 9.68215L15.2735 9.67587C15.1644 10.3912 14.9406 11.0685 14.621 11.6886L14.658 11.7077L14.6951 11.7268C15.0188 11.0988 15.2454 10.4128 15.3558 9.68844L15.3147 9.68215ZM14.7987 11.8435L14.8186 11.8801C14.887 11.8428 14.958 11.8054 15.0318 11.7662L15.0123 11.7294L14.9928 11.6926C14.9192 11.7317 14.8477 11.7694 14.7787 11.807L14.7987 11.8435ZM15.0123 11.7294L15.0318 11.7662C15.3343 11.6058 15.5312 11.5005 15.6761 11.4092L15.6539 11.374L15.6317 11.3387C15.49 11.428 15.2963 11.5316 14.9928 11.6926L15.0123 11.7294ZM15.6539 11.374L15.6761 11.4092C15.8147 11.322 15.8642 11.2722 15.889 11.2403L15.8561 11.2148L15.8231 11.1893C15.8069 11.2102 15.7665 11.2538 15.6317 11.3387L15.6539 11.374ZM15.8561 11.2148L15.889 11.2403C15.9893 11.1107 16.0422 10.9498 16.0374 10.7858L15.9957 10.7871L15.9541 10.7883C15.9583 10.9328 15.9117 11.0748 15.8231 11.1893L15.8561 11.2148ZM15.9957 10.7871L16.0374 10.7858C16.0361 10.7455 16.0251 10.6752 15.9641 10.5226L15.9254 10.538L15.8867 10.5535C15.9461 10.702 15.9533 10.7619 15.9541 10.7883L15.9957 10.7871ZM15.9254 10.538L15.9641 10.5226C15.9004 10.3635 15.8026 10.1631 15.6523 9.85568L15.6149 9.87398L15.5774 9.89227C15.7283 10.2009 15.8245 10.3981 15.8867 10.5535L15.9254 10.538ZM15.6149 9.87398L15.6523 9.85568C15.6154 9.78016 15.5797 9.70776 15.5461 9.63696L15.5085 9.65484L15.4708 9.67271C15.5047 9.74406 15.5407 9.81706 15.5774 9.89227L15.6149 9.87398ZM2.72492 5.49858L2.70487 5.46206C2.63538 5.50022 2.56315 5.53846 2.48791 5.57838L2.50743 5.61519L2.52696 5.65199C2.60204 5.61216 2.67485 5.57361 2.74498 5.5351L2.72492 5.49858ZM2.50743 5.61519L2.48791 5.57838C2.1854 5.73888 1.98859 5.84414 1.84364 5.9354L1.86583 5.97066L1.88803 6.00591C2.02978 5.91667 2.22342 5.81304 2.52696 5.65199L2.50743 5.61519ZM1.86583 5.97066L1.84363 5.9354C1.70502 6.0227 1.65551 6.07239 1.63076 6.10431L1.66368 6.12984L1.69661 6.15536C1.71284 6.13444 1.75315 6.09086 1.88804 6.00591L1.86583 5.97066ZM1.66368 6.12984L1.63073 6.10434C1.53043 6.23401 1.47754 6.39474 1.48239 6.5588L1.52404 6.55757L1.56568 6.55634C1.56141 6.41177 1.60803 6.26989 1.69664 6.15533L1.66368 6.12984ZM1.52404 6.55757L1.48239 6.55885C1.48363 6.59921 1.49463 6.66951 1.55567 6.82207L1.59435 6.80659L1.63303 6.79112C1.57365 6.64269 1.56649 6.58275 1.56568 6.55629L1.52404 6.55757ZM1.59435 6.80659L1.55567 6.82208C1.61932 6.98108 1.71723 7.18161 1.86746 7.48895L1.9049 7.47066L1.94233 7.45236C1.79147 7.14376 1.69526 6.94655 1.63303 6.79111L1.59435 6.80659ZM1.9049 7.47066L1.86747 7.48895C1.90479 7.5653 1.94071 7.63849 1.9745 7.71003L2.01218 7.69223L2.04985 7.67444C2.01576 7.60228 1.97954 7.52848 1.94233 7.45236L1.9049 7.47066ZM2.20759 7.66501L2.24878 7.67129C2.35806 6.95428 2.58268 6.27531 2.90349 5.65394L2.86647 5.63482L2.82945 5.61571C2.50456 6.245 2.27707 6.93262 2.16641 7.65873L2.20759 7.66501ZM14.657 5.63627L14.62 5.65538C14.94 6.27553 15.1641 6.95298 15.2734 7.66841L15.3146 7.66211L15.3558 7.65582C15.2451 6.93131 15.0181 6.24522 14.694 5.61717L14.657 5.63627ZM15.5085 7.68948L15.5461 7.70738C15.5798 7.63669 15.6154 7.56442 15.6523 7.48895L15.6149 7.47066L15.5774 7.45236C15.5407 7.52747 15.5048 7.60036 15.4709 7.67158L15.5085 7.68948ZM15.6149 7.47066L15.6523 7.48895C15.8026 7.18151 15.9004 6.98111 15.9641 6.82207L15.9254 6.80659L15.8867 6.79111C15.8245 6.94658 15.7283 7.14366 15.5774 7.45236L15.6149 7.47066ZM15.9254 6.80659L15.9641 6.82207C16.0251 6.66949 16.0361 6.5992 16.0374 6.55885L15.9957 6.55757L15.9541 6.55629C15.9533 6.58274 15.9461 6.64267 15.8867 6.79112L15.9254 6.80659ZM15.9957 6.55757L16.0374 6.5588C16.0422 6.39481 15.9892 6.23398 15.889 6.10436L15.8561 6.12984L15.8231 6.15531C15.9116 6.26986 15.9583 6.41187 15.9541 6.55634L15.9957 6.55757ZM15.8561 6.12984L15.889 6.10431C15.8643 6.0724 15.8146 6.02263 15.6761 5.9354L15.6539 5.97066L15.6317 6.00591C15.7665 6.0908 15.8069 6.13446 15.8231 6.15536L15.8561 6.12984ZM15.6539 5.97066L15.6761 5.9354C15.5312 5.84415 15.3343 5.73883 15.0318 5.57838L15.0123 5.61519L14.9928 5.65199C15.2962 5.81299 15.49 5.91669 15.6317 6.00591L15.6539 5.97066ZM15.0123 5.61519L15.0318 5.57838C14.9577 5.53904 14.8864 5.50141 14.8178 5.46388L14.7978 5.50043L14.7778 5.53699C14.847 5.57484 14.9189 5.61278 14.9928 5.65199L15.0123 5.61519ZM4.51329 2.44429L4.50161 2.40429C4.34405 2.45031 4.20706 2.54984 4.11461 2.68547L4.14904 2.70894L4.18346 2.7324C4.26504 2.61273 4.38595 2.52488 4.52497 2.48428L4.51329 2.44429ZM4.14904 2.70894L4.1146 2.68549C4.09182 2.71894 4.06004 2.78175 4.01978 2.94091L4.06017 2.95112L4.10056 2.96134C4.1398 2.8062 4.16864 2.75418 4.18348 2.73238L4.14904 2.70894ZM4.06017 2.95112L4.01978 2.94091C3.97779 3.10698 3.93864 3.32641 3.87948 3.66365L3.92052 3.67085L3.96156 3.67805C4.02092 3.33962 4.0595 3.12372 4.10056 2.96134L4.06017 2.95112ZM3.92052 3.67085L3.87948 3.66365C3.86464 3.7483 3.85047 3.82949 3.83552 3.908L3.87644 3.91579L3.91737 3.92359C3.93246 3.84436 3.94674 3.7625 3.96156 3.67805L3.92052 3.67085ZM4.04995 4.00855L4.07955 4.03786C4.57815 3.53424 5.15727 3.1107 5.79619 2.78812L5.77741 2.75093L5.75863 2.71373C5.11161 3.04041 4.52518 3.46929 4.02034 3.97924L4.04995 4.00855ZM5.74295 2.55792L5.74822 2.51659C5.66962 2.50657 5.58877 2.49504 5.50448 2.48311L5.49865 2.52437L5.49281 2.56562C5.57688 2.57751 5.65839 2.58914 5.73769 2.59925L5.74295 2.55792ZM5.49865 2.52437L5.50448 2.48311C5.16565 2.43519 4.94477 2.40435 4.77388 2.39295L4.77111 2.43452L4.76833 2.47609C4.93542 2.48724 5.1527 2.51751 5.49281 2.56562L5.49865 2.52437ZM4.77111 2.43452L4.77387 2.39295C4.61042 2.38208 4.54056 2.39299 4.50168 2.40428L4.51329 2.44429L4.52491 2.4843C4.55036 2.47692 4.60914 2.46551 4.76834 2.47609L4.77111 2.43452ZM12.7486 2.43452L12.7459 2.39295C12.575 2.40433 12.3542 2.43518 12.0153 2.48311L12.0211 2.52437L12.0269 2.56562C12.3671 2.5175 12.5843 2.48722 12.7514 2.47609L12.7486 2.43452ZM12.0211 2.52437L12.0153 2.48311C11.9311 2.49502 11.8503 2.50654 11.7718 2.51654L11.7771 2.55787L11.7824 2.5992C11.8616 2.58911 11.943 2.57749 12.0269 2.56562L12.0211 2.52437ZM11.7427 2.75084L11.724 2.78805C12.3625 3.10986 12.9414 3.53203 13.4399 4.03456L13.4695 4.00522L13.4991 3.97588C12.9943 3.46701 12.408 3.03952 11.7615 2.71364L11.7427 2.75084ZM13.6425 3.91294L13.6835 3.90523C13.6688 3.82756 13.6549 3.74731 13.6403 3.66365L13.5992 3.67085L13.5582 3.67805C13.5728 3.7614 13.5868 3.84232 13.6016 3.92064L13.6425 3.91294ZM13.5992 3.67085L13.6403 3.66365C13.5811 3.32648 13.542 3.10697 13.5 2.94091L13.4596 2.95112L13.4192 2.96134C13.4602 3.12371 13.4988 3.33969 13.5582 3.67805L13.5992 3.67085ZM13.4596 2.95112L13.5 2.94091C13.4598 2.78212 13.4279 2.71904 13.4052 2.68553L13.3707 2.70894L13.3363 2.73235C13.3511 2.75425 13.3801 2.80661 13.4192 2.96134L13.4596 2.95112ZM13.3707 2.70894L13.4051 2.68547C13.3127 2.54989 13.1756 2.45034 13.0182 2.4043L13.0065 2.44429L12.9948 2.48428C13.1337 2.52491 13.2548 2.6128 13.3363 2.7324L13.3707 2.70894ZM13.0065 2.44429L13.0181 2.40429C12.9793 2.39298 12.9095 2.38208 12.7459 2.39295L12.7486 2.43452L12.7514 2.47609C12.9108 2.46551 12.9695 2.47691 12.9948 2.48429L13.0065 2.44429ZM8.98497 1.13765L8.99903 1.09843C8.84455 1.04305 8.6752 1.04309 8.52073 1.09842L8.53478 1.13765L8.54883 1.17687C8.68514 1.12804 8.83462 1.12801 8.97092 1.17687L8.98497 1.13765ZM8.53478 1.13765L8.5207 1.09844C8.48272 1.11207 8.41951 1.144 8.29326 1.24919L8.31993 1.2812L8.34661 1.31321C8.46938 1.21091 8.52394 1.18581 8.54886 1.17686L8.53478 1.13765ZM8.31993 1.2812L8.29326 1.2492C8.16175 1.35883 8.00154 1.51354 7.75581 1.75126L7.78478 1.7812L7.81375 1.81115C8.06045 1.57248 8.21805 1.42038 8.34661 1.3132L8.31993 1.2812ZM7.78478 1.7812L7.75581 1.75126C7.69433 1.81074 7.63538 1.86788 7.57735 1.92243L7.60589 1.95278L7.63442 1.98314C7.69298 1.92809 7.75241 1.87049 7.81375 1.81115L7.78478 1.7812ZM7.69145 2.12915L7.69817 2.17026C8.04428 2.11365 8.39933 2.08362 8.76134 2.08361L8.76134 2.04194L8.76134 2.00028C8.39471 2.00029 8.03516 2.0307 7.68472 2.08803L7.69145 2.12915ZM8.76134 2.04194L8.76027 2.08359L9.10109 2.09238L9.10216 2.05073L9.10324 2.00908L8.76242 2.00029L8.76134 2.04194ZM9.10216 2.05073L9.10005 2.09234C9.34422 2.10471 9.58486 2.13134 9.82137 2.17028L9.82813 2.12917L9.8349 2.08806C9.59546 2.04864 9.35171 2.02165 9.10427 2.00912L9.10216 2.05073ZM9.91379 1.95298L9.94236 1.92266C9.88438 1.868 9.82548 1.81079 9.76394 1.75126L9.73497 1.7812L9.70601 1.81115C9.76733 1.87047 9.82672 1.92817 9.88521 1.98329L9.91379 1.95298ZM9.73497 1.7812L9.76394 1.75126C9.51832 1.51364 9.35797 1.35883 9.2265 1.2492L9.19982 1.2812L9.17314 1.3132C9.30167 1.42038 9.45941 1.57259 9.70601 1.81115L9.73497 1.7812ZM9.19982 1.2812L9.22649 1.24919C9.10055 1.14425 9.03711 1.11215 8.9991 1.09845L8.98497 1.13765L8.97085 1.17684C8.99587 1.18586 9.05071 1.21118 9.17315 1.31321L9.19982 1.2812ZM13.4695 4.00522L13.4399 4.03456C13.4885 4.08356 13.5577 4.07803 13.6054 4.0525C13.6532 4.02697 13.6961 3.97266 13.6835 3.90523L13.6425 3.91294L13.6016 3.92064C13.6054 3.94097 13.5933 3.96449 13.5661 3.97902C13.539 3.99354 13.5134 3.99027 13.4991 3.97588L13.4695 4.00522ZM11.7771 2.55787L11.7718 2.51654C11.7037 2.52521 11.6653 2.58285 11.6557 2.63616C11.6462 2.68947 11.6623 2.75696 11.724 2.78805L11.7427 2.75084L11.7615 2.71364C11.7433 2.7045 11.7323 2.68115 11.7377 2.65085C11.7432 2.62055 11.7618 2.60181 11.7824 2.5992L11.7771 2.55787ZM5.77741 2.75093L5.79619 2.78812C5.85783 2.757 5.8739 2.6895 5.86433 2.63619C5.85476 2.58289 5.81632 2.52526 5.74822 2.51659L5.74295 2.55792L5.73769 2.59925C5.75822 2.60186 5.77687 2.6206 5.78232 2.65092C5.78776 2.68122 5.77675 2.70459 5.75863 2.71373L5.77741 2.75093ZM3.87644 3.91579L3.83552 3.908C3.82264 3.97559 3.8658 4.0301 3.91362 4.05572C3.96144 4.08136 4.03084 4.08707 4.07955 4.03786L4.04995 4.00855L4.02034 3.97924C4.00607 3.99365 3.98034 3.99695 3.95298 3.98228C3.9256 3.96761 3.9135 3.94393 3.91737 3.92359L3.87644 3.91579ZM15.3146 7.66211L15.2734 7.66841C15.2838 7.73657 15.3429 7.77283 15.3964 7.78034C15.45 7.78785 15.5167 7.76929 15.5461 7.70738L15.5085 7.68948L15.4709 7.67158C15.462 7.69023 15.4384 7.70209 15.408 7.69782C15.3776 7.69356 15.3588 7.67586 15.3558 7.65582L15.3146 7.66211ZM14.657 5.63627L14.694 5.61717C14.6847 5.59912 14.6895 5.57381 14.7116 5.55255C14.7337 5.53129 14.7597 5.52707 14.7778 5.53699L14.7978 5.50043L14.8178 5.46388C14.7576 5.43098 14.6928 5.45501 14.6538 5.49253C14.6148 5.53007 14.5884 5.59409 14.62 5.65538L14.657 5.63627ZM11.744 14.5934L11.7252 14.5562C11.6636 14.5873 11.6475 14.6548 11.657 14.7081C11.6665 14.7614 11.7048 14.8191 11.7728 14.8279L11.7782 14.7866L11.7836 14.7453C11.7631 14.7426 11.7444 14.7238 11.739 14.6935C11.7336 14.6631 11.7447 14.6397 11.7628 14.6306L11.744 14.5934ZM15.3147 9.68215L15.3558 9.68844C15.3589 9.66838 15.3776 9.65069 15.408 9.64644C15.4384 9.64218 15.462 9.65404 15.4708 9.67271L15.5085 9.65484L15.5461 9.63696C15.5167 9.57501 15.45 9.55641 15.3965 9.56391C15.3429 9.57142 15.2839 9.60769 15.2735 9.67587L15.3147 9.68215ZM2.01218 7.69223L1.9745 7.71003C2.00393 7.77232 2.07108 7.79091 2.12488 7.78347C2.17869 7.77602 2.23834 7.73981 2.24878 7.67129L2.20759 7.66501L2.16641 7.65873C2.16335 7.67875 2.14443 7.69664 2.11346 7.70092C2.08249 7.70521 2.05868 7.69313 2.04985 7.67444L2.01218 7.69223ZM2.01175 9.6526L2.04946 9.67032C2.05827 9.65158 2.08196 9.63954 2.11272 9.64377C2.14347 9.648 2.16236 9.66581 2.16542 9.68588L2.20661 9.67959L2.2478 9.67331C2.23735 9.60483 2.17785 9.56862 2.12407 9.56122C2.07031 9.55383 2.00333 9.57256 1.97404 9.63488L2.01175 9.6526ZM13.469 13.34L13.4986 13.3693C13.5128 13.3549 13.5385 13.3516 13.5657 13.3662C13.5929 13.3807 13.605 13.4043 13.6013 13.4246L13.6422 13.4322L13.6832 13.4399C13.6958 13.3724 13.6527 13.3181 13.6049 13.2927C13.5572 13.2672 13.488 13.2616 13.4394 13.3106L13.469 13.34ZM2.72503 11.8458L2.70504 11.8824C2.76539 11.9154 2.8305 11.891 2.86958 11.8534C2.90867 11.8158 2.93548 11.7516 2.90372 11.6901L2.86671 11.7092L2.82969 11.7284C2.83899 11.7463 2.8342 11.7719 2.81181 11.7934C2.78941 11.8149 2.76315 11.8192 2.74501 11.8093L2.72503 11.8458ZM2.72492 5.49858L2.74498 5.5351C2.76312 5.52514 2.78931 5.52934 2.81164 5.55078C2.83395 5.57222 2.83876 5.59768 2.82945 5.61571L2.86647 5.63482L2.90349 5.65394C2.93523 5.59246 2.90847 5.52827 2.86936 5.49069C2.83026 5.45313 2.76516 5.42896 2.70487 5.46206L2.72492 5.49858ZM7.60589 1.95278L7.57735 1.92243C7.52731 1.96947 7.53006 2.03873 7.55365 2.08749C7.57725 2.13626 7.62997 2.18142 7.69817 2.17026L7.69145 2.12915L7.68472 2.08803C7.66469 2.0913 7.64207 2.0789 7.62866 2.05119C7.61524 2.02347 7.61933 1.99733 7.63442 1.98314L7.60589 1.95278ZM5.74224 14.7865L5.7476 14.8278C5.81566 14.819 5.85399 14.7612 5.8635 14.7079C5.87302 14.6546 5.85695 14.5871 5.79533 14.556L5.77655 14.5932L5.75777 14.6304C5.77585 14.6395 5.7869 14.6629 5.78147 14.6933C5.77604 14.7237 5.75737 14.7425 5.73688 14.7452L5.74224 14.7865ZM7.69301 15.2169L7.69974 15.1758C7.63165 15.1646 7.57895 15.2096 7.55532 15.2583C7.5317 15.307 7.52891 15.3761 7.57878 15.4232L7.60738 15.3929L7.63598 15.3626C7.62092 15.3484 7.61689 15.3223 7.63029 15.2947C7.64368 15.2671 7.66627 15.2547 7.68628 15.258L7.69301 15.2169ZM9.82813 2.12917L9.82137 2.17028C9.88954 2.1815 9.94227 2.13641 9.9659 2.08767C9.98952 2.03895 9.99231 1.96974 9.94236 1.92266L9.91379 1.95298L9.88521 1.98329C9.90029 1.9975 9.90434 2.02364 9.89092 2.05132C9.87751 2.07899 9.8549 2.09135 9.8349 2.08806L9.82813 2.12917ZM14.658 11.7077L14.621 11.6886C14.5894 11.7499 14.6158 11.8138 14.6547 11.8514C14.6937 11.8889 14.7584 11.9129 14.8186 11.8801L14.7987 11.8435L14.7787 11.807C14.7606 11.8169 14.7346 11.8126 14.7126 11.7914C14.6905 11.7701 14.6858 11.7448 14.6951 11.7268L14.658 11.7077ZM3.87672 13.4297L3.91766 13.422C3.9138 13.4017 3.92591 13.378 3.95325 13.3634C3.98059 13.3487 4.0063 13.352 4.02057 13.3664L4.05017 13.3371L4.07977 13.3078C4.03109 13.2587 3.96175 13.2643 3.91393 13.2899C3.86612 13.3155 3.82298 13.3699 3.83579 13.4375L3.87672 13.4297ZM9.82648 15.2166L9.83321 15.2577C9.85319 15.2545 9.8758 15.2668 9.88923 15.2945C9.90267 15.3221 9.89864 15.3483 9.88362 15.3625L9.91226 15.3927L9.9409 15.423C9.9907 15.3759 9.98782 15.3067 9.96418 15.2581C9.94054 15.2094 9.88785 15.1644 9.81976 15.1755L9.82648 15.2166Z" fill="url(#paint3_linear_3881_66170)" mask="url(#path-5-inside-1_3881_66170)"/>
</g>
</g>
</g>
<defs>
<filter id="filter0_d_3881_66170" x="0.190801" y="-0.0683251" width="17.1379" height="17.8137" filterUnits="userSpaceOnUse" color-interpolation-filters="sRGB">
<feFlood flood-opacity="0" result="BackgroundImageFix"/>
<feColorMatrix in="SourceAlpha" type="matrix" values="0 0 0 0 0 0 0 0 0 0 0 0 0 0 0 0 0 0 127 0" result="hardAlpha"/>
<feOffset dy="0.166655"/>
<feGaussianBlur stdDeviation="0.333311"/>
<feColorMatrix type="matrix" values="0 0 0 0 0 0 0 0 0 0 0 0 0 0 0 0 0 0 0.16 0"/>
<feBlend mode="color-burn" in2="BackgroundImageFix" result="effect1_dropShadow_3881_66170"/>
<feBlend mode="normal" in="SourceGraphic" in2="effect1_dropShadow_3881_66170" result="shape"/>
</filter>
<linearGradient id="paint0_linear_3881_66170" x1="8.75941" y1="0.123738" x2="8.7594" y2="17.1028" gradientUnits="userSpaceOnUse">
<stop stop-color="white"/>
<stop offset="1" stop-color="white" stop-opacity="0"/>
</linearGradient>
<radialGradient id="paint1_radial_3881_66170" cx="0" cy="0" r="1" gradientUnits="userSpaceOnUse" gradientTransform="translate(8.75941 5.00069) rotate(90) scale(11.1989 8.49685)">
<stop stop-color="white"/>
<stop offset="1" stop-color="white" stop-opacity="0"/>
</radialGradient>
<linearGradient id="paint2_linear_3881_66170" x1="-2.29199" y1="-2.38086" x2="-2.29199" y2="19.7219" gradientUnits="userSpaceOnUse">
<stop offset="0.135095" stop-color="white"/>
<stop offset="0.877908" stop-color="white" stop-opacity="0.01"/>
</linearGradient>
<linearGradient id="paint3_linear_3881_66170" x1="8.75987" y1="0.431641" x2="8.75987" y2="16.9129" gradientUnits="userSpaceOnUse">
<stop stop-color="white"/>
<stop offset="1" stop-color="#999999"/>
</linearGradient>
</defs>
</svg>
