<svg width="72" height="72" viewBox="0 0 72 72" fill="none" xmlns="http://www.w3.org/2000/svg">
<path d="M36 6.75C30.2149 6.75 24.5597 8.46548 19.7496 11.6795C14.9394 14.8935 11.1904 19.4618 8.97654 24.8065C6.76267 30.1512 6.18343 36.0324 7.31204 41.7064C8.44066 47.3803 11.2265 52.5922 15.3171 56.6829C19.4078 60.7736 24.6197 63.5593 30.2936 64.688C35.9676 65.8166 41.8488 65.2373 47.1935 63.0235C52.5382 60.8096 57.1065 57.0606 60.3205 52.2504C63.5345 47.4403 65.25 41.7851 65.25 36C65.2418 28.2449 62.1575 20.8098 56.6738 15.3262C51.1902 9.84251 43.7551 6.75819 36 6.75ZM25.875 27C26.5425 27 27.195 27.1979 27.7501 27.5688C28.3051 27.9396 28.7377 28.4667 28.9931 29.0834C29.2486 29.7001 29.3154 30.3787 29.1852 31.0334C29.0549 31.6881 28.7335 32.2895 28.2615 32.7615C27.7895 33.2335 27.1881 33.5549 26.5334 33.6852C25.8788 33.8154 25.2002 33.7485 24.5835 33.4931C23.9668 33.2376 23.4397 32.8051 23.0688 32.25C22.698 31.695 22.5 31.0425 22.5 30.375C22.5 29.4799 22.8556 28.6214 23.4885 27.9885C24.1215 27.3556 24.9799 27 25.875 27ZM48.375 51.4463C47.8587 51.7441 47.2453 51.8249 46.6695 51.6709C46.0937 51.5169 45.6025 51.1408 45.3038 50.625C43.2028 46.9941 39.901 45 36 45C32.0991 45 28.7972 46.9969 26.6963 50.625C26.5556 50.8939 26.362 51.1315 26.1271 51.3237C25.8922 51.5158 25.6209 51.6584 25.3295 51.743C25.038 51.8275 24.7325 51.8522 24.4313 51.8157C24.13 51.7791 23.8393 51.6819 23.5766 51.5301C23.3139 51.3782 23.0846 51.1748 22.9025 50.932C22.7204 50.6892 22.5894 50.4121 22.5172 50.1174C22.445 49.8226 22.4332 49.5163 22.4824 49.2169C22.5317 48.9175 22.641 48.6311 22.8038 48.375C25.6978 43.3716 30.5072 40.5 36 40.5C41.4928 40.5 46.3022 43.3688 49.1963 48.375C49.4941 48.8913 49.5749 49.5047 49.4209 50.0805C49.2669 50.6563 48.8908 51.1475 48.375 51.4463ZM46.125 33.75C45.4575 33.75 44.805 33.5521 44.25 33.1812C43.695 32.8104 43.2624 32.2833 43.0069 31.6666C42.7515 31.0499 42.6846 30.3713 42.8149 29.7166C42.9451 29.0619 43.2665 28.4605 43.7385 27.9885C44.2105 27.5165 44.8119 27.1951 45.4666 27.0648C46.1213 26.9346 46.7999 27.0015 47.4166 27.2569C48.0333 27.5124 48.5604 27.9449 48.9312 28.5C49.3021 29.055 49.5 29.7075 49.5 30.375C49.5 31.2701 49.1444 32.1286 48.5115 32.7615C47.8786 33.3944 47.0201 33.75 46.125 33.75Z" fill="#FF4C4C"/>
</svg>
