<svg width="72" height="72" viewBox="0 0 72 72" fill="none" xmlns="http://www.w3.org/2000/svg">
<path d="M67.4494 44.1562L64.0744 17.1563C63.8688 15.5247 63.0747 14.0242 61.8412 12.9367C60.6076 11.8492 59.0195 11.2494 57.375 11.25H9C7.80653 11.25 6.66193 11.7241 5.81802 12.568C4.97411 13.4119 4.5 14.5565 4.5 15.75V40.5C4.5 41.6935 4.97411 42.8381 5.81802 43.682C6.66193 44.5259 7.80653 45 9 45H21.1106L31.7362 66.2569C31.9233 66.6307 32.2108 66.945 32.5665 67.1646C32.9222 67.3842 33.332 67.5003 33.75 67.5C36.7337 67.5 39.5952 66.3147 41.705 64.205C43.8147 62.0952 45 59.2337 45 56.25V51.75H60.75C61.7079 51.7503 62.6548 51.5468 63.5279 51.1529C64.4011 50.759 65.1804 50.1839 65.814 49.4656C66.4477 48.7473 66.9213 47.9024 67.2032 46.9869C67.4852 46.0715 67.5691 45.1066 67.4494 44.1562ZM20.25 40.5H9V15.75H20.25V40.5Z" fill="#FF4C4C"/>
</svg>
