<svg width="72" height="72" viewBox="0 0 72 72" fill="none" xmlns="http://www.w3.org/2000/svg">
<path d="M48.0613 21.6723L37.2629 32.4708C37.0957 32.6385 36.897 32.7717 36.6782 32.8625C36.4595 32.9533 36.2249 33.0001 35.988 33.0001C35.7512 33.0001 35.5166 32.9533 35.2979 32.8625C35.0791 32.7717 34.8804 32.6385 34.7132 32.4708L23.9148 21.6723C23.5767 21.3342 23.3867 20.8756 23.3867 20.3975C23.3867 19.9193 23.5767 19.4608 23.9148 19.1227C24.2529 18.7846 24.7114 18.5946 25.1896 18.5946C25.6677 18.5946 26.1263 18.7846 26.4644 19.1227L34.1898 26.8481V4.80121C34.1898 4.32389 34.3794 3.86611 34.7169 3.5286C35.0544 3.19108 35.5122 3.00146 35.9895 3.00146C36.4669 3.00146 36.9246 3.19108 37.2622 3.5286C37.5997 3.86611 37.7893 4.32389 37.7893 4.80121V26.8481L45.5147 19.1212C45.8528 18.7831 46.3113 18.5931 46.7895 18.5931C47.2676 18.5931 47.7262 18.7831 48.0643 19.1212C48.4024 19.4593 48.5924 19.9178 48.5924 20.396C48.5924 20.8741 48.4024 21.3327 48.0643 21.6708L48.0613 21.6723Z" fill="#FF4C4C"/>
<path d="M50.4929 51.7297H50.5007C51.2432 51.7297 51.9456 52.0631 52.4148 52.6321L52.4158 52.6331C55.5067 56.3595 60.0517 58.4933 64.8923 58.4934H64.989C66.3623 58.4936 67.4821 59.604 67.489 60.9797C67.4957 62.3601 66.3817 63.4865 65.0027 63.4934H64.9978C59.6914 63.5636 54.6874 61.6045 50.8093 58.1487L50.4783 57.8538L50.1462 58.1467C50.0145 58.263 49.8821 58.3756 49.7458 58.4885L49.7439 58.4905C45.8539 61.7511 41.0393 63.4933 36.0251 63.4934L36.0242 63.4963C35.3922 63.4959 34.7601 63.4696 34.1238 63.4153H34.1248C29.5033 63.0087 25.2435 61.1647 21.8357 58.1516L21.5046 57.8577L21.1726 58.1516C17.3065 61.5803 12.3088 63.4986 7.05933 63.5012C5.56509 63.4627 4.49766 62.3801 4.50073 60.9954V60.9934C4.50091 59.6159 5.62281 58.5022 7.00073 58.5022H7.04858C11.9043 58.5022 16.4679 56.3639 19.5789 52.635L19.5798 52.636C20.0575 52.0681 20.7617 51.7373 21.4978 51.7336C22.2384 51.734 22.9409 52.0612 23.4128 52.6262L23.4138 52.6272C26.2308 55.9884 30.1886 58.0521 34.5525 58.4358H34.5554C38.9238 58.7984 43.1787 57.4835 46.5417 54.6653C47.2793 54.0472 47.9651 53.3654 48.5779 52.6243L48.5769 52.6233C49.0549 52.057 49.7595 51.7297 50.4929 51.7297Z" fill="#FF4C4C" stroke="#2E1418"/>
<path d="M50.4929 37.1094H50.5007C51.2432 37.1094 51.9456 37.4427 52.4148 38.0117L52.4158 38.0127C55.5067 41.7392 60.0518 43.8729 64.8923 43.873C64.9004 43.873 64.9086 43.8723 64.9158 43.8721L64.9187 43.873H64.989C66.3623 43.8732 67.4822 44.9836 67.489 46.3594C67.4957 47.7398 66.3817 48.8662 65.0027 48.873H64.9949C59.6925 48.9744 54.6929 46.9895 50.8093 43.5283L50.4783 43.2334L50.1462 43.5264C50.0084 43.648 49.8834 43.7575 49.7537 43.8584L49.7468 43.8643L49.739 43.8701C45.8531 47.1305 41.0386 48.873 36.0203 48.873L36.0183 48.8799C35.3909 48.8794 34.7595 48.8531 34.1238 48.7988H34.1248C29.5033 48.3922 25.2435 46.5482 21.8357 43.5352L21.5046 43.2412L21.1726 43.5352C17.304 46.9661 12.3058 48.8809 7.0564 48.8809H6.99292C5.61543 48.8809 4.4974 47.7553 4.50073 46.374V46.373C4.50087 44.9955 5.62279 43.8809 7.00073 43.8809H7.06226V43.8799C11.9121 43.8783 16.4693 41.742 19.5789 38.0146L19.5798 38.0156C20.0575 37.4477 20.7617 37.117 21.4978 37.1133C22.2384 37.1136 22.9409 37.4409 23.4128 38.0059L23.4138 38.0068C26.2308 41.3681 30.1885 43.4318 34.5525 43.8154H34.5544C38.9234 44.1823 43.1784 42.8592 46.5408 40.042C47.2809 39.4259 47.9616 38.7397 48.5759 38.0059L48.575 38.0049C49.053 37.4373 49.7586 37.1094 50.4929 37.1094Z" fill="#FF4C4C" stroke="#2E1418"/>
</svg>
