<svg width="20" height="20" viewBox="0 0 20 20" fill="none" xmlns="http://www.w3.org/2000/svg">
<path d="M6.66725 3.33275C6.66725 5.17463 5.17463 6.66551 3.33449 6.66551C1.49435 6.66551 0 5.17463 0 3.33275C0 1.49088 1.49261 0 3.33275 0C5.17289 0 6.66551 1.49261 6.66551 3.33275H6.66725ZM10 0C8.15812 0 6.66725 1.49261 6.66725 3.33275C6.66725 5.17289 8.15986 6.66551 10 6.66551C11.8401 6.66551 13.3328 5.17289 13.3328 3.33275C13.3328 1.49261 11.8419 0 10 0ZM16.6672 0C14.8254 0 13.3345 1.49261 13.3345 3.33275C13.3345 5.17289 14.8271 6.66551 16.6672 6.66551C18.5074 6.66551 20 5.17289 20 3.33275C20 1.49261 18.5091 0 16.6672 0ZM3.33275 6.66725C1.49261 6.66725 0 8.15986 0 10C0 11.8401 1.49261 13.3328 3.33275 13.3328C5.17289 13.3328 6.66551 11.8401 6.66551 10C6.66551 8.15986 5.17289 6.66725 3.33275 6.66725ZM10 6.66725C8.15812 6.66725 6.66725 8.15986 6.66725 10C6.66725 11.8401 8.15986 13.3328 10 13.3328C11.8401 13.3328 13.3328 11.8401 13.3328 10C13.3328 8.15986 11.8401 6.66725 10 6.66725ZM16.6672 6.66725C14.8254 6.66725 13.3345 8.15986 13.3345 10C13.3345 11.8401 14.8271 13.3328 16.6672 13.3328C18.5074 13.3328 20 11.8401 20 10C20 8.15986 18.5074 6.66725 16.6672 6.66725ZM3.33275 13.3345C1.49088 13.3345 0 14.8271 0 16.6672C0 18.5074 1.49261 20 3.33275 20C5.17289 20 6.66551 18.5074 6.66551 16.6672C6.66551 14.8271 5.17289 13.3345 3.33275 13.3345ZM10 13.3345C8.15812 13.3345 6.66725 14.8271 6.66725 16.6672C6.66725 18.5074 8.15986 20 10 20C11.8401 20 13.3328 18.5074 13.3328 16.6672C13.3328 14.8271 11.8401 13.3345 10 13.3345ZM16.6672 13.3345C14.8254 13.3345 13.3345 14.8271 13.3345 16.6672C13.3345 18.5074 14.8271 20 16.6672 20C18.5074 20 20 18.5074 20 16.6672C20 14.8271 18.5074 13.3345 16.6672 13.3345Z" fill="#F0E601"/>
</svg>
